<?xml version="1.0" encoding="us-ascii" standalone="no"?><svg xmlns="http://www.w3.org/2000/svg" xmlns:xlink="http://www.w3.org/1999/xlink" contentStyleType="text/css" height="774px" preserveAspectRatio="none" style="width:1011px;height:774px;background:#FFFFFF;" version="1.1" viewBox="0 0 1011 774" width="1011px" zoomAndPan="magnify"><defs/><g><!--class Usager--><g id="elem_Usager"><rect codeLine="3" fill="#FFB6C1" height="40" id="Usager" rx="2.5" ry="2.5" style="stroke:#181818;stroke-width:0.5;" width="80" x="483.5" y="383.5"/><ellipse cx="498.5" cy="399.5" fill="#ADD1B2" rx="11" ry="11" style="stroke:#181818;stroke-width:1.0;"/><path d="M500.8438,395.1719 C499.9063,394.7344 499.3125,394.5938 498.4375,394.5938 C495.8125,394.5938 493.8125,396.6719 493.8125,399.3906 L493.8125,400.5156 C493.8125,403.0938 495.9219,404.9844 498.8125,404.9844 C500.0313,404.9844 501.1875,404.6875 501.9375,404.1406 C502.5156,403.7344 502.8438,403.2813 502.8438,402.8906 C502.8438,402.4375 502.4531,402.0469 501.9844,402.0469 C501.7656,402.0469 501.5625,402.125 501.375,402.3125 C500.9219,402.7969 500.9219,402.7969 500.7344,402.8906 C500.3125,403.1563 499.625,403.2813 498.8594,403.2813 C496.8125,403.2813 495.5156,402.1875 495.5156,400.4844 L495.5156,399.3906 C495.5156,397.6094 496.7656,396.2969 498.5,396.2969 C499.0781,396.2969 499.6875,396.4531 500.1563,396.7031 C500.6406,396.9844 500.8125,397.2031 500.9063,397.6094 C500.9688,398.0156 501,398.1406 501.1406,398.2656 C501.2813,398.4063 501.5156,398.5156 501.7344,398.5156 C502,398.5156 502.2656,398.375 502.4375,398.1563 C502.5469,398 502.5781,397.8125 502.5781,397.3906 L502.5781,395.9688 C502.5781,395.5313 502.5625,395.4063 502.4688,395.25 C502.3125,394.9844 502.0313,394.8438 501.7344,394.8438 C501.4375,394.8438 501.2344,394.9375 501.0156,395.25 L500.8438,395.1719 Z " fill="#000000"/><text fill="#000000" font-family="sans-serif" font-size="14" lengthAdjust="spacing" textLength="48" x="512.5" y="404.3467">Usager</text><line style="stroke:#181818;stroke-width:0.5;" x1="484.5" x2="562.5" y1="415.5" y2="415.5"/></g><!--class ContactPersonnePhysique--><g id="elem_ContactPersonnePhysique"><rect codeLine="5" fill="#ADD8E6" height="284.4531" id="ContactPersonnePhysique" rx="2.5" ry="2.5" style="stroke:#181818;stroke-width:0.5;" width="347" x="159" y="7"/><ellipse cx="234.25" cy="23" fill="#ADD1B2" rx="11" ry="11" style="stroke:#181818;stroke-width:1.0;"/><path d="M236.5938,18.6719 C235.6563,18.2344 235.0625,18.0938 234.1875,18.0938 C231.5625,18.0938 229.5625,20.1719 229.5625,22.8906 L229.5625,24.0156 C229.5625,26.5938 231.6719,28.4844 234.5625,28.4844 C235.7813,28.4844 236.9375,28.1875 237.6875,27.6406 C238.2656,27.2344 238.5938,26.7813 238.5938,26.3906 C238.5938,25.9375 238.2031,25.5469 237.7344,25.5469 C237.5156,25.5469 237.3125,25.625 237.125,25.8125 C236.6719,26.2969 236.6719,26.2969 236.4844,26.3906 C236.0625,26.6563 235.375,26.7813 234.6094,26.7813 C232.5625,26.7813 231.2656,25.6875 231.2656,23.9844 L231.2656,22.8906 C231.2656,21.1094 232.5156,19.7969 234.25,19.7969 C234.8281,19.7969 235.4375,19.9531 235.9063,20.2031 C236.3906,20.4844 236.5625,20.7031 236.6563,21.1094 C236.7188,21.5156 236.75,21.6406 236.8906,21.7656 C237.0313,21.9063 237.2656,22.0156 237.4844,22.0156 C237.75,22.0156 238.0156,21.875 238.1875,21.6563 C238.2969,21.5 238.3281,21.3125 238.3281,20.8906 L238.3281,19.4688 C238.3281,19.0313 238.3125,18.9063 238.2188,18.75 C238.0625,18.4844 237.7813,18.3438 237.4844,18.3438 C237.1875,18.3438 236.9844,18.4375 236.7656,18.75 L236.5938,18.6719 Z " fill="#000000"/><text fill="#000000" font-family="sans-serif" font-size="14" lengthAdjust="spacing" textLength="188" x="254.75" y="27.8467">ContactPersonnePhysique</text><line style="stroke:#181818;stroke-width:0.5;" x1="160" x2="505" y1="39" y2="39"/><text fill="#000000" font-family="sans-serif" font-size="14" lengthAdjust="spacing" textLength="283" x="165" y="55.9951">identifiantContactPP : Identifiant [0..1]</text><text fill="#000000" font-family="sans-serif" font-size="14" lengthAdjust="spacing" textLength="129" x="165" y="72.292">nom : Texte [0..1]</text><text fill="#000000" font-family="sans-serif" font-size="14" lengthAdjust="spacing" textLength="154" x="165" y="88.5889">prenom : Texte [0..1]</text><text fill="#000000" font-family="sans-serif" font-size="14" lengthAdjust="spacing" textLength="140" x="165" y="104.8857">civilite : Code [0..1]</text><text fill="#000000" font-family="sans-serif" font-size="14" lengthAdjust="spacing" textLength="202" x="165" y="121.1826">paysNationalite : Code [0..*]</text><text fill="#000000" font-family="sans-serif" font-size="14" lengthAdjust="spacing" textLength="173" x="165" y="137.4795">profession : Texte [0..1]</text><text fill="#000000" font-family="sans-serif" font-size="14" lengthAdjust="spacing" textLength="218" x="165" y="153.7764">situationFamiliale : Code [0..1]</text><text fill="#000000" font-family="sans-serif" font-size="14" lengthAdjust="spacing" textLength="193" x="165" y="170.0732">dateNaissance : Date [0..1]</text><text fill="#000000" font-family="sans-serif" font-size="14" lengthAdjust="spacing" textLength="167" x="165" y="186.3701">adresse : Adresse [0..1]</text><text fill="#000000" font-family="sans-serif" font-size="14" lengthAdjust="spacing" textLength="335" x="165" y="202.667">telecommunication : Telecommunication [0..*]</text><text fill="#000000" font-family="sans-serif" font-size="14" lengthAdjust="spacing" textLength="120" x="165" y="218.9639">role : Code [0..1]</text><text fill="#000000" font-family="sans-serif" font-size="14" lengthAdjust="spacing" textLength="148" x="165" y="235.2607">relation : Code [0..1]</text><text fill="#000000" font-family="sans-serif" font-size="14" lengthAdjust="spacing" textLength="154" x="165" y="251.5576">fonction : Texte[0..1]</text><text fill="#000000" font-family="sans-serif" font-size="14" lengthAdjust="spacing" textLength="214" x="165" y="267.8545">ordreAppel : Numerique [0..1]</text><text fill="#000000" font-family="sans-serif" font-size="14" lengthAdjust="spacing" textLength="194" x="165" y="284.1514">commentaire : Texte [0..1]</text></g><!--class ContactPersonneMorale--><g id="elem_ContactPersonneMorale"><rect codeLine="23" fill="#ADD8E6" height="186.6719" id="ContactPersonneMorale" rx="2.5" ry="2.5" style="stroke:#181818;stroke-width:0.5;" width="347" x="541" y="55.5"/><ellipse cx="623.75" cy="71.5" fill="#ADD1B2" rx="11" ry="11" style="stroke:#181818;stroke-width:1.0;"/><path d="M626.0938,67.1719 C625.1563,66.7344 624.5625,66.5938 623.6875,66.5938 C621.0625,66.5938 619.0625,68.6719 619.0625,71.3906 L619.0625,72.5156 C619.0625,75.0938 621.1719,76.9844 624.0625,76.9844 C625.2813,76.9844 626.4375,76.6875 627.1875,76.1406 C627.7656,75.7344 628.0938,75.2813 628.0938,74.8906 C628.0938,74.4375 627.7031,74.0469 627.2344,74.0469 C627.0156,74.0469 626.8125,74.125 626.625,74.3125 C626.1719,74.7969 626.1719,74.7969 625.9844,74.8906 C625.5625,75.1563 624.875,75.2813 624.1094,75.2813 C622.0625,75.2813 620.7656,74.1875 620.7656,72.4844 L620.7656,71.3906 C620.7656,69.6094 622.0156,68.2969 623.75,68.2969 C624.3281,68.2969 624.9375,68.4531 625.4063,68.7031 C625.8906,68.9844 626.0625,69.2031 626.1563,69.6094 C626.2188,70.0156 626.25,70.1406 626.3906,70.2656 C626.5313,70.4063 626.7656,70.5156 626.9844,70.5156 C627.25,70.5156 627.5156,70.375 627.6875,70.1563 C627.7969,70 627.8281,69.8125 627.8281,69.3906 L627.8281,67.9688 C627.8281,67.5313 627.8125,67.4063 627.7188,67.25 C627.5625,66.9844 627.2813,66.8438 626.9844,66.8438 C626.6875,66.8438 626.4844,66.9375 626.2656,67.25 L626.0938,67.1719 Z " fill="#000000"/><text fill="#000000" font-family="sans-serif" font-size="14" lengthAdjust="spacing" textLength="173" x="644.25" y="76.3467">ContactPersonneMorale</text><line style="stroke:#181818;stroke-width:0.5;" x1="542" x2="887" y1="87.5" y2="87.5"/><text fill="#000000" font-family="sans-serif" font-size="14" lengthAdjust="spacing" textLength="286" x="547" y="104.4951">identifiantContactPM : Identifiant [0..1]</text><text fill="#000000" font-family="sans-serif" font-size="14" lengthAdjust="spacing" textLength="141" x="547" y="120.792">libelle : Texte [0..1]</text><text fill="#000000" font-family="sans-serif" font-size="14" lengthAdjust="spacing" textLength="191" x="547" y="137.0889">raisonSociale : Texte [0..1]</text><text fill="#000000" font-family="sans-serif" font-size="14" lengthAdjust="spacing" textLength="203" x="547" y="153.3857">typeOrganisme : Code [0..1]</text><text fill="#000000" font-family="sans-serif" font-size="14" lengthAdjust="spacing" textLength="167" x="547" y="169.6826">adresse : Adresse [0..1]</text><text fill="#000000" font-family="sans-serif" font-size="14" lengthAdjust="spacing" textLength="335" x="547" y="185.9795">telecommunication : Telecommunication [0..*]</text><text fill="#000000" font-family="sans-serif" font-size="14" lengthAdjust="spacing" textLength="120" x="547" y="202.2764">role : Code [0..1]</text><text fill="#000000" font-family="sans-serif" font-size="14" lengthAdjust="spacing" textLength="214" x="547" y="218.5732">ordreAppel : Numerique [0..1]</text><text fill="#000000" font-family="sans-serif" font-size="14" lengthAdjust="spacing" textLength="194" x="547" y="234.8701">commentaire : Texte [0..1]</text></g><!--class MesureProtection--><g id="elem_MesureProtection"><rect codeLine="35" fill="#ADD8E6" height="154.0781" id="MesureProtection" rx="2.5" ry="2.5" style="stroke:#181818;stroke-width:0.5;" width="347" x="7" y="565"/><ellipse cx="112.25" cy="581" fill="#ADD1B2" rx="11" ry="11" style="stroke:#181818;stroke-width:1.0;"/><path d="M114.5938,576.6719 C113.6563,576.2344 113.0625,576.0938 112.1875,576.0938 C109.5625,576.0938 107.5625,578.1719 107.5625,580.8906 L107.5625,582.0156 C107.5625,584.5938 109.6719,586.4844 112.5625,586.4844 C113.7813,586.4844 114.9375,586.1875 115.6875,585.6406 C116.2656,585.2344 116.5938,584.7813 116.5938,584.3906 C116.5938,583.9375 116.2031,583.5469 115.7344,583.5469 C115.5156,583.5469 115.3125,583.625 115.125,583.8125 C114.6719,584.2969 114.6719,584.2969 114.4844,584.3906 C114.0625,584.6563 113.375,584.7813 112.6094,584.7813 C110.5625,584.7813 109.2656,583.6875 109.2656,581.9844 L109.2656,580.8906 C109.2656,579.1094 110.5156,577.7969 112.25,577.7969 C112.8281,577.7969 113.4375,577.9531 113.9063,578.2031 C114.3906,578.4844 114.5625,578.7031 114.6563,579.1094 C114.7188,579.5156 114.75,579.6406 114.8906,579.7656 C115.0313,579.9063 115.2656,580.0156 115.4844,580.0156 C115.75,580.0156 116.0156,579.875 116.1875,579.6563 C116.2969,579.5 116.3281,579.3125 116.3281,578.8906 L116.3281,577.4688 C116.3281,577.0313 116.3125,576.9063 116.2188,576.75 C116.0625,576.4844 115.7813,576.3438 115.4844,576.3438 C115.1875,576.3438 114.9844,576.4375 114.7656,576.75 L114.5938,576.6719 Z " fill="#000000"/><text fill="#000000" font-family="sans-serif" font-size="14" lengthAdjust="spacing" textLength="128" x="132.75" y="585.8467">MesureProtection</text><line style="stroke:#181818;stroke-width:0.5;" x1="8" x2="353" y1="597" y2="597"/><text fill="#000000" font-family="sans-serif" font-size="14" lengthAdjust="spacing" textLength="254" x="13" y="613.9951">typeMesureProtection : Code [0..1]</text><text fill="#000000" font-family="sans-serif" font-size="14" lengthAdjust="spacing" textLength="129" x="13" y="630.292">nom : Texte [0..1]</text><text fill="#000000" font-family="sans-serif" font-size="14" lengthAdjust="spacing" textLength="154" x="13" y="646.5889">prenom : Texte [0..1]</text><text fill="#000000" font-family="sans-serif" font-size="14" lengthAdjust="spacing" textLength="144" x="13" y="662.8857">dateFin : Date [0..1]</text><text fill="#000000" font-family="sans-serif" font-size="14" lengthAdjust="spacing" textLength="167" x="13" y="679.1826">adresse : Adresse [0..1]</text><text fill="#000000" font-family="sans-serif" font-size="14" lengthAdjust="spacing" textLength="335" x="13" y="695.4795">telecommunication : Telecommunication [0..*]</text><text fill="#000000" font-family="sans-serif" font-size="14" lengthAdjust="spacing" textLength="194" x="13" y="711.7764">commentaire : Texte [0..1]</text></g><!--class Transport--><g id="elem_Transport"><rect codeLine="45" fill="#ADD8E6" height="72.5938" id="Transport" rx="2.5" ry="2.5" style="stroke:#181818;stroke-width:0.5;" width="302" x="598.5" y="367"/><ellipse cx="709.75" cy="383" fill="#ADD1B2" rx="11" ry="11" style="stroke:#181818;stroke-width:1.0;"/><path d="M712.0938,378.6719 C711.1563,378.2344 710.5625,378.0938 709.6875,378.0938 C707.0625,378.0938 705.0625,380.1719 705.0625,382.8906 L705.0625,384.0156 C705.0625,386.5938 707.1719,388.4844 710.0625,388.4844 C711.2813,388.4844 712.4375,388.1875 713.1875,387.6406 C713.7656,387.2344 714.0938,386.7813 714.0938,386.3906 C714.0938,385.9375 713.7031,385.5469 713.2344,385.5469 C713.0156,385.5469 712.8125,385.625 712.625,385.8125 C712.1719,386.2969 712.1719,386.2969 711.9844,386.3906 C711.5625,386.6563 710.875,386.7813 710.1094,386.7813 C708.0625,386.7813 706.7656,385.6875 706.7656,383.9844 L706.7656,382.8906 C706.7656,381.1094 708.0156,379.7969 709.75,379.7969 C710.3281,379.7969 710.9375,379.9531 711.4063,380.2031 C711.8906,380.4844 712.0625,380.7031 712.1563,381.1094 C712.2188,381.5156 712.25,381.6406 712.3906,381.7656 C712.5313,381.9063 712.7656,382.0156 712.9844,382.0156 C713.25,382.0156 713.5156,381.875 713.6875,381.6563 C713.7969,381.5 713.8281,381.3125 713.8281,380.8906 L713.8281,379.4688 C713.8281,379.0313 713.8125,378.9063 713.7188,378.75 C713.5625,378.4844 713.2813,378.3438 712.9844,378.3438 C712.6875,378.3438 712.4844,378.4375 712.2656,378.75 L712.0938,378.6719 Z " fill="#000000"/><text fill="#000000" font-family="sans-serif" font-size="14" lengthAdjust="spacing" textLength="71" x="730.25" y="387.8467">Transport</text><line style="stroke:#181818;stroke-width:0.5;" x1="599.5" x2="899.5" y1="399" y2="399"/><text fill="#000000" font-family="sans-serif" font-size="14" lengthAdjust="spacing" textLength="126" x="604.5" y="415.9951">type : Code [0..1]</text><text fill="#000000" font-family="sans-serif" font-size="14" lengthAdjust="spacing" textLength="290" x="604.5" y="432.292">observationAmenagement : Texte [0..1]</text></g><!--class PermisConduire--><g id="elem_PermisConduire"><rect codeLine="50" fill="#ADD8E6" height="105.1875" id="PermisConduire" rx="2.5" ry="2.5" style="stroke:#181818;stroke-width:0.5;" width="210" x="238.5" y="351"/><ellipse cx="282.75" cy="367" fill="#ADD1B2" rx="11" ry="11" style="stroke:#181818;stroke-width:1.0;"/><path d="M285.0938,362.6719 C284.1563,362.2344 283.5625,362.0938 282.6875,362.0938 C280.0625,362.0938 278.0625,364.1719 278.0625,366.8906 L278.0625,368.0156 C278.0625,370.5938 280.1719,372.4844 283.0625,372.4844 C284.2813,372.4844 285.4375,372.1875 286.1875,371.6406 C286.7656,371.2344 287.0938,370.7813 287.0938,370.3906 C287.0938,369.9375 286.7031,369.5469 286.2344,369.5469 C286.0156,369.5469 285.8125,369.625 285.625,369.8125 C285.1719,370.2969 285.1719,370.2969 284.9844,370.3906 C284.5625,370.6563 283.875,370.7813 283.1094,370.7813 C281.0625,370.7813 279.7656,369.6875 279.7656,367.9844 L279.7656,366.8906 C279.7656,365.1094 281.0156,363.7969 282.75,363.7969 C283.3281,363.7969 283.9375,363.9531 284.4063,364.2031 C284.8906,364.4844 285.0625,364.7031 285.1563,365.1094 C285.2188,365.5156 285.25,365.6406 285.3906,365.7656 C285.5313,365.9063 285.7656,366.0156 285.9844,366.0156 C286.25,366.0156 286.5156,365.875 286.6875,365.6563 C286.7969,365.5 286.8281,365.3125 286.8281,364.8906 L286.8281,363.4688 C286.8281,363.0313 286.8125,362.9063 286.7188,362.75 C286.5625,362.4844 286.2813,362.3438 285.9844,362.3438 C285.6875,362.3438 285.4844,362.4375 285.2656,362.75 L285.0938,362.6719 Z " fill="#000000"/><text fill="#000000" font-family="sans-serif" font-size="14" lengthAdjust="spacing" textLength="113" x="303.25" y="371.8467">PermisConduire</text><line style="stroke:#181818;stroke-width:0.5;" x1="239.5" x2="447.5" y1="383" y2="383"/><text fill="#000000" font-family="sans-serif" font-size="14" lengthAdjust="spacing" textLength="161" x="244.5" y="399.9951">categorie : Code [0..1]</text><text fill="#000000" font-family="sans-serif" font-size="14" lengthAdjust="spacing" textLength="126" x="244.5" y="416.292">type : Code [0..1]</text><text fill="#000000" font-family="sans-serif" font-size="14" lengthAdjust="spacing" textLength="198" x="244.5" y="432.5889">dateObtention : Date [0..1]</text><text fill="#000000" font-family="sans-serif" font-size="14" lengthAdjust="spacing" textLength="178" x="244.5" y="448.8857">dateValidite : Date [0..1]</text></g><!--class Ressource--><g id="elem_Ressource"><rect codeLine="57" fill="#ADD8E6" height="170.375" id="Ressource" rx="2.5" ry="2.5" style="stroke:#181818;stroke-width:0.5;" width="268" x="389.5" y="557"/><ellipse cx="482.75" cy="573" fill="#ADD1B2" rx="11" ry="11" style="stroke:#181818;stroke-width:1.0;"/><path d="M485.0938,568.6719 C484.1563,568.2344 483.5625,568.0938 482.6875,568.0938 C480.0625,568.0938 478.0625,570.1719 478.0625,572.8906 L478.0625,574.0156 C478.0625,576.5938 480.1719,578.4844 483.0625,578.4844 C484.2813,578.4844 485.4375,578.1875 486.1875,577.6406 C486.7656,577.2344 487.0938,576.7813 487.0938,576.3906 C487.0938,575.9375 486.7031,575.5469 486.2344,575.5469 C486.0156,575.5469 485.8125,575.625 485.625,575.8125 C485.1719,576.2969 485.1719,576.2969 484.9844,576.3906 C484.5625,576.6563 483.875,576.7813 483.1094,576.7813 C481.0625,576.7813 479.7656,575.6875 479.7656,573.9844 L479.7656,572.8906 C479.7656,571.1094 481.0156,569.7969 482.75,569.7969 C483.3281,569.7969 483.9375,569.9531 484.4063,570.2031 C484.8906,570.4844 485.0625,570.7031 485.1563,571.1094 C485.2188,571.5156 485.25,571.6406 485.3906,571.7656 C485.5313,571.9063 485.7656,572.0156 485.9844,572.0156 C486.25,572.0156 486.5156,571.875 486.6875,571.6563 C486.7969,571.5 486.8281,571.3125 486.8281,570.8906 L486.8281,569.4688 C486.8281,569.0313 486.8125,568.9063 486.7188,568.75 C486.5625,568.4844 486.2813,568.3438 485.9844,568.3438 C485.6875,568.3438 485.4844,568.4375 485.2656,568.75 L485.0938,568.6719 Z " fill="#000000"/><text fill="#000000" font-family="sans-serif" font-size="14" lengthAdjust="spacing" textLength="73" x="503.25" y="577.8467">Ressource</text><line style="stroke:#181818;stroke-width:0.5;" x1="390.5" x2="656.5" y1="589" y2="589"/><text fill="#000000" font-family="sans-serif" font-size="14" lengthAdjust="spacing" textLength="126" x="395.5" y="605.9951">type : Code [0..1]</text><text fill="#000000" font-family="sans-serif" font-size="14" lengthAdjust="spacing" textLength="254" x="395.5" y="622.292">contactOrganisme :  Contact  [0..1]</text><text fill="#000000" font-family="sans-serif" font-size="14" lengthAdjust="spacing" textLength="179" x="395.5" y="638.5889">montant : Montant [0..1]</text><text fill="#000000" font-family="sans-serif" font-size="14" lengthAdjust="spacing" textLength="179" x="395.5" y="654.8857">frequence : Mesure [0..1]</text><text fill="#000000" font-family="sans-serif" font-size="14" lengthAdjust="spacing" textLength="168" x="395.5" y="671.1826">dateDebut : Date [0..1]</text><text fill="#000000" font-family="sans-serif" font-size="14" lengthAdjust="spacing" textLength="144" x="395.5" y="687.4795">dateFin : Date [0..1]</text><text fill="#000000" font-family="sans-serif" font-size="14" lengthAdjust="spacing" textLength="226" x="395.5" y="703.7764">pieceJointe : ObjetBinaire [0..*]</text><text fill="#000000" font-family="sans-serif" font-size="14" lengthAdjust="spacing" textLength="256" x="395.5" y="720.0732">idDroitPrestation : Identifiant [0..1]</text></g><!--class CompteBancaire--><g id="elem_CompteBancaire"><rect codeLine="68" fill="#ADD8E6" height="251.8594" id="CompteBancaire" rx="2.5" ry="2.5" style="stroke:#181818;stroke-width:0.5;" width="311" x="693" y="516"/><ellipse cx="783.75" cy="532" fill="#ADD1B2" rx="11" ry="11" style="stroke:#181818;stroke-width:1.0;"/><path d="M786.0938,527.6719 C785.1563,527.2344 784.5625,527.0938 783.6875,527.0938 C781.0625,527.0938 779.0625,529.1719 779.0625,531.8906 L779.0625,533.0156 C779.0625,535.5938 781.1719,537.4844 784.0625,537.4844 C785.2813,537.4844 786.4375,537.1875 787.1875,536.6406 C787.7656,536.2344 788.0938,535.7813 788.0938,535.3906 C788.0938,534.9375 787.7031,534.5469 787.2344,534.5469 C787.0156,534.5469 786.8125,534.625 786.625,534.8125 C786.1719,535.2969 786.1719,535.2969 785.9844,535.3906 C785.5625,535.6563 784.875,535.7813 784.1094,535.7813 C782.0625,535.7813 780.7656,534.6875 780.7656,532.9844 L780.7656,531.8906 C780.7656,530.1094 782.0156,528.7969 783.75,528.7969 C784.3281,528.7969 784.9375,528.9531 785.4063,529.2031 C785.8906,529.4844 786.0625,529.7031 786.1563,530.1094 C786.2188,530.5156 786.25,530.6406 786.3906,530.7656 C786.5313,530.9063 786.7656,531.0156 786.9844,531.0156 C787.25,531.0156 787.5156,530.875 787.6875,530.6563 C787.7969,530.5 787.8281,530.3125 787.8281,529.8906 L787.8281,528.4688 C787.8281,528.0313 787.8125,527.9063 787.7188,527.75 C787.5625,527.4844 787.2813,527.3438 786.9844,527.3438 C786.6875,527.3438 786.4844,527.4375 786.2656,527.75 L786.0938,527.6719 Z " fill="#000000"/><text fill="#000000" font-family="sans-serif" font-size="14" lengthAdjust="spacing" textLength="121" x="804.25" y="536.8467">CompteBancaire</text><line style="stroke:#181818;stroke-width:0.5;" x1="694" x2="1003" y1="548" y2="548"/><text fill="#000000" font-family="sans-serif" font-size="14" lengthAdjust="spacing" textLength="224" x="699" y="564.9951">adresseBanque :  Adresse [0..1]</text><text fill="#000000" font-family="sans-serif" font-size="14" lengthAdjust="spacing" textLength="260" x="699" y="581.292">identifiantBanque : Identifiant [0..1]</text><text fill="#000000" font-family="sans-serif" font-size="14" lengthAdjust="spacing" textLength="299" x="699" y="597.5889">identifiantGestionnaire : Identifiant [0..1]</text><text fill="#000000" font-family="sans-serif" font-size="14" lengthAdjust="spacing" textLength="213" x="699" y="613.8857">dateSouscription : Date [0..1]</text><text fill="#000000" font-family="sans-serif" font-size="14" lengthAdjust="spacing" textLength="237" x="699" y="630.1826">dureeSouscription : Mesure [0..1]</text><text fill="#000000" font-family="sans-serif" font-size="14" lengthAdjust="spacing" textLength="195" x="699" y="646.4795">dateOuverture : Date [0..1]</text><text fill="#000000" font-family="sans-serif" font-size="14" lengthAdjust="spacing" textLength="192" x="699" y="662.7764">dateEcheance : Date [0..1]</text><text fill="#000000" font-family="sans-serif" font-size="14" lengthAdjust="spacing" textLength="232" x="699" y="679.0732">dateFinPropagation : Date [0..1]</text><text fill="#000000" font-family="sans-serif" font-size="14" lengthAdjust="spacing" textLength="176" x="699" y="695.3701">dateCloture : Date [0..1]</text><text fill="#000000" font-family="sans-serif" font-size="14" lengthAdjust="spacing" textLength="282" x="699" y="711.667">domiciliationBancaire : Indicateur [0..1]</text><text fill="#000000" font-family="sans-serif" font-size="14" lengthAdjust="spacing" textLength="219" x="699" y="727.9639">echeanceRevenus : Date [0..1]</text><text fill="#000000" font-family="sans-serif" font-size="14" lengthAdjust="spacing" textLength="126" x="699" y="744.2607">type : Code [0..1]</text><text fill="#000000" font-family="sans-serif" font-size="14" lengthAdjust="spacing" textLength="103" x="699" y="760.5576">RIB : RIB [0..1]</text></g><!--link ContactPersonnePhysique to Usager--><g id="link_ContactPersonnePhysique_Usager"><path codeLine="84" d="M439.169,291.015 C466.855,327.616 493.271,362.538 508.938,383.249 " fill="none" id="ContactPersonnePhysique-Usager" style="stroke:#181818;stroke-width:1.0;"/><text fill="#000000" font-family="sans-serif" font-size="13" lengthAdjust="spacing" textLength="7" x="438.1335" y="311.7165">*</text><text fill="#000000" font-family="sans-serif" font-size="13" lengthAdjust="spacing" textLength="8" x="495.7174" y="372.5296">1</text></g><!--link ContactPersonneMorale to Usager--><g id="link_ContactPersonneMorale_Usager"><path codeLine="85" d="M644.463,242.588 C605.496,294.102 560.427,353.682 537.893,383.473 " fill="none" id="ContactPersonneMorale-Usager" style="stroke:#181818;stroke-width:1.0;"/><text fill="#000000" font-family="sans-serif" font-size="13" lengthAdjust="spacing" textLength="7" x="632.0626" y="262.0955">*</text><text fill="#000000" font-family="sans-serif" font-size="13" lengthAdjust="spacing" textLength="8" x="532.9459" y="372.4733">1</text></g><!--link PermisConduire to Usager--><g id="link_PermisConduire_Usager"><path codeLine="86" d="M448.617,403.5 C460.22,403.5 471.823,403.5 483.426,403.5 " fill="none" id="PermisConduire-Usager" style="stroke:#181818;stroke-width:1.0;"/><text fill="#000000" font-family="sans-serif" font-size="13" lengthAdjust="spacing" textLength="7" x="456.5936" y="400.0141">*</text><text fill="#000000" font-family="sans-serif" font-size="13" lengthAdjust="spacing" textLength="8" x="467.5753" y="399.2428">1</text></g><!--link Usager to Transport--><g id="link_Usager_Transport"><path codeLine="87" d="M563.668,403.5 C575.161,403.5 586.655,403.5 598.149,403.5 " fill="none" id="Usager-Transport" style="stroke:#181818;stroke-width:1.0;"/><text fill="#000000" font-family="sans-serif" font-size="13" lengthAdjust="spacing" textLength="8" x="571.5354" y="399.2428">1</text><text fill="#000000" font-family="sans-serif" font-size="13" lengthAdjust="spacing" textLength="7" x="583.6484" y="400.2167">*</text></g><!--link Usager to MesureProtection--><g id="link_Usager_MesureProtection"><path codeLine="88" d="M503.502,423.672 C492.62,433.735 478.715,446.014 465.5,456 C425.957,485.881 413.125,489.096 371.5,516 C347.12,531.758 321.055,548.732 296.264,564.936 " fill="none" id="Usager-MesureProtection" style="stroke:#181818;stroke-width:1.0;"/><text fill="#000000" font-family="sans-serif" font-size="13" lengthAdjust="spacing" textLength="8" x="488.7526" y="443.5403">1</text><text fill="#000000" font-family="sans-serif" font-size="13" lengthAdjust="spacing" textLength="7" x="299.9642" y="553.9455">*</text></g><!--link Usager to CompteBancaire--><g id="link_Usager_CompteBancaire"><path codeLine="89" d="M543.498,423.672 C554.38,433.735 568.285,446.014 581.5,456 C621.043,485.881 634.507,488.142 675.5,516 C681.17,519.853 686.923,523.802 692.719,527.813 " fill="none" id="Usager-CompteBancaire" style="stroke:#181818;stroke-width:1.0;"/><text fill="#000000" font-family="sans-serif" font-size="13" lengthAdjust="spacing" textLength="8" x="539.9974" y="443.5403">1</text><text fill="#000000" font-family="sans-serif" font-size="13" lengthAdjust="spacing" textLength="7" x="678.0038" y="518.9923">*</text></g><!--link Usager to Ressource--><g id="link_Usager_Ressource"><path codeLine="90" d="M523.5,423.854 C523.5,452.757 523.5,508.941 523.5,556.917 " fill="none" id="Usager-Ressource" style="stroke:#181818;stroke-width:1.0;"/><text fill="#000000" font-family="sans-serif" font-size="13" lengthAdjust="spacing" textLength="8" x="514.425" y="443.4245">1</text><text fill="#000000" font-family="sans-serif" font-size="13" lengthAdjust="spacing" textLength="7" x="516.1992" y="546.0171">*</text></g><!--SRC=[lLPDZzCm4BttLqJbjb9Nx7LlxPP5Y-Y7kWiNnC5rfkr0OeUnNL4X_ZlZ96tTn4P50df88y-pv_dDypWxp263ihA7h0IxqxaP36GXZCa-6B45obwzn-tEBb5zFGOUjB92sYMGqKh1SdSm-Cr1YvmK_FfZaF6FbrOMDoYKFSvPPlVPqtau-_JwzlRkSurMkkJW2tot40vN18c8n3qMo6FtJ2c_d2GEPYuiQYMwY9lZide3nZ0YjhH1w-hfZwBa7AA89Sc5XRb0OuIIFZuLbuk8d3Y3ZupRjo1eeG2foz8fb7MccaPtB21CEag2e3XExuOsMaaRR308QM96uwg2WeDpLmBL5Gp5PHvS9e44NO5-9emmq-I5kiO6ixGD2bn3KK2iAiHYQ_MiPLkG7i0UAbZGLYWqPKoi_rAHlwFj38mZM9Asq1In9wlVR0_Lf_F7nyhR-X7LFpVqDIgya52cqcJZsu-flpP0-phPc9Vd5kQJ91EmTqiqRClSUHwzB4mRjfembYh1mEktM5jlRXrJqSS_SblAcyOKXa-qLgokTYJXwdtBvcI5xZ-Upop4bNwi5cJMleKTWu2jsdIpnbfTubDOEvlOLDmq5OA4TnfLlTl5-WlO2Qgwwe4PC9-IHhjaMzcZUo8D8cWzV6N1X3klYDQjjIe3_DbZBIAE3VhI2PTeIW7qBJDaVghrRMA2r-DPEoC9gvGFMDuk9Yxwmks1h2D82Fz6xY1n1xLruGvHYQtuZICV2ftAe4kK_XBqiq-AyyvLxayrE0hHq79PmHwKCv7r4WPUFKrur3_FjKvzQGnlXjbeb0tlXkrNoY1-5VLmsQ1pu6l41Q3vzoEZEdfkGMseHe-QOBV_HY2NJeq0JcVz5m00]--></g></svg>