<?xml version="1.0" encoding="us-ascii" standalone="no"?><svg xmlns="http://www.w3.org/2000/svg" xmlns:xlink="http://www.w3.org/1999/xlink" contentStyleType="text/css" height="168px" preserveAspectRatio="none" style="width:370px;height:168px;background:#FFFFFF;" version="1.1" viewBox="0 0 370 168" width="370px" zoomAndPan="magnify"><defs/><g><!--class Usager--><g id="elem_Usager"><rect codeLine="3" fill="#FFB6C1" height="40" id="Usager" rx="2.5" ry="2.5" style="stroke:#181818;stroke-width:0.5;" width="80" x="7" y="64"/><ellipse cx="22" cy="80" fill="#ADD1B2" rx="11" ry="11" style="stroke:#181818;stroke-width:1.0;"/><path d="M24.3438,75.6719 C23.4063,75.2344 22.8125,75.0938 21.9375,75.0938 C19.3125,75.0938 17.3125,77.1719 17.3125,79.8906 L17.3125,81.0156 C17.3125,83.5938 19.4219,85.4844 22.3125,85.4844 C23.5313,85.4844 24.6875,85.1875 25.4375,84.6406 C26.0156,84.2344 26.3438,83.7813 26.3438,83.3906 C26.3438,82.9375 25.9531,82.5469 25.4844,82.5469 C25.2656,82.5469 25.0625,82.625 24.875,82.8125 C24.4219,83.2969 24.4219,83.2969 24.2344,83.3906 C23.8125,83.6563 23.125,83.7813 22.3594,83.7813 C20.3125,83.7813 19.0156,82.6875 19.0156,80.9844 L19.0156,79.8906 C19.0156,78.1094 20.2656,76.7969 22,76.7969 C22.5781,76.7969 23.1875,76.9531 23.6563,77.2031 C24.1406,77.4844 24.3125,77.7031 24.4063,78.1094 C24.4688,78.5156 24.5,78.6406 24.6406,78.7656 C24.7813,78.9063 25.0156,79.0156 25.2344,79.0156 C25.5,79.0156 25.7656,78.875 25.9375,78.6563 C26.0469,78.5 26.0781,78.3125 26.0781,77.8906 L26.0781,76.4688 C26.0781,76.0313 26.0625,75.9063 25.9688,75.75 C25.8125,75.4844 25.5313,75.3438 25.2344,75.3438 C24.9375,75.3438 24.7344,75.4375 24.5156,75.75 L24.3438,75.6719 Z " fill="#000000"/><text fill="#000000" font-family="sans-serif" font-size="14" lengthAdjust="spacing" textLength="48" x="36" y="84.8467">Usager</text><line style="stroke:#181818;stroke-width:0.5;" x1="8" x2="86" y1="96" y2="96"/></g><!--class AutorisationAdministrative--><g id="elem_AutorisationAdministrative"><rect codeLine="5" fill="#FFDAB9" height="154.0781" id="AutorisationAdministrative" rx="2.5" ry="2.5" style="stroke:#181818;stroke-width:0.5;" width="241" x="122.5" y="7"/><ellipse cx="144.25" cy="23" fill="#ADD1B2" rx="11" ry="11" style="stroke:#181818;stroke-width:1.0;"/><path d="M146.5938,18.6719 C145.6563,18.2344 145.0625,18.0938 144.1875,18.0938 C141.5625,18.0938 139.5625,20.1719 139.5625,22.8906 L139.5625,24.0156 C139.5625,26.5938 141.6719,28.4844 144.5625,28.4844 C145.7813,28.4844 146.9375,28.1875 147.6875,27.6406 C148.2656,27.2344 148.5938,26.7813 148.5938,26.3906 C148.5938,25.9375 148.2031,25.5469 147.7344,25.5469 C147.5156,25.5469 147.3125,25.625 147.125,25.8125 C146.6719,26.2969 146.6719,26.2969 146.4844,26.3906 C146.0625,26.6563 145.375,26.7813 144.6094,26.7813 C142.5625,26.7813 141.2656,25.6875 141.2656,23.9844 L141.2656,22.8906 C141.2656,21.1094 142.5156,19.7969 144.25,19.7969 C144.8281,19.7969 145.4375,19.9531 145.9063,20.2031 C146.3906,20.4844 146.5625,20.7031 146.6563,21.1094 C146.7188,21.5156 146.75,21.6406 146.8906,21.7656 C147.0313,21.9063 147.2656,22.0156 147.4844,22.0156 C147.75,22.0156 148.0156,21.875 148.1875,21.6563 C148.2969,21.5 148.3281,21.3125 148.3281,20.8906 L148.3281,19.4688 C148.3281,19.0313 148.3125,18.9063 148.2188,18.75 C148.0625,18.4844 147.7813,18.3438 147.4844,18.3438 C147.1875,18.3438 146.9844,18.4375 146.7656,18.75 L146.5938,18.6719 Z " fill="#000000"/><text fill="#000000" font-family="sans-serif" font-size="14" lengthAdjust="spacing" textLength="194" x="159.75" y="27.8467">AutorisationAdministrative</text><line style="stroke:#181818;stroke-width:0.5;" x1="123.5" x2="362.5" y1="39" y2="39"/><text fill="#000000" font-family="sans-serif" font-size="14" lengthAdjust="spacing" textLength="126" x="128.5" y="55.9951">type : Code [0..1]</text><text fill="#000000" font-family="sans-serif" font-size="14" lengthAdjust="spacing" textLength="229" x="128.5" y="72.292">auteur : PersonnePhysique [0..*]</text><text fill="#000000" font-family="sans-serif" font-size="14" lengthAdjust="spacing" textLength="192" x="128.5" y="88.5889">dateSignature : Date [0..1]</text><text fill="#000000" font-family="sans-serif" font-size="14" lengthAdjust="spacing" textLength="168" x="128.5" y="104.8857">dateDebut : Date [0..1]</text><text fill="#000000" font-family="sans-serif" font-size="14" lengthAdjust="spacing" textLength="168" x="128.5" y="121.1826">dateDebut : Date [0..1]</text><text fill="#000000" font-family="sans-serif" font-size="14" lengthAdjust="spacing" textLength="226" x="128.5" y="137.4795">pieceJointe : ObjetBinaire [0..*]</text><text fill="#000000" font-family="sans-serif" font-size="14" lengthAdjust="spacing" textLength="194" x="128.5" y="153.7764">commentaire : Texte [0..1]</text></g><!--link Usager to AutorisationAdministrative--><g id="link_Usager_AutorisationAdministrative"><path codeLine="15" d="M87.1953,84 C98.9618,84 110.728,84 122.495,84 " fill="none" id="Usager-AutorisationAdministrative" style="stroke:#181818;stroke-width:1.0;"/><text fill="#000000" font-family="sans-serif" font-size="13" lengthAdjust="spacing" textLength="8" x="95.0676" y="79.7428">1</text><text fill="#000000" font-family="sans-serif" font-size="13" lengthAdjust="spacing" textLength="7" x="107.5509" y="80.5882">*</text></g><!--SRC=[bP11ImCn48Nl-HN3zbQmjDVUgZs9q81w4W_fxkjcr4pMP28kudytsohgHN1kRzxZU_0yTo24GKSAK1-xR4pxv7Acs-nw99fTSU_LiZn-6PkYCN5sob4sNM3XhAcg5z3CmhNUbiE1tWpLqt40hUaYrfQxvMAnkZ- -NL6KL0sBbAC8h1ypFvTJQ7uATKvnpRquBMc2RAl-2PdyBVP5_-aDZ1QNaKKdwcx_03rdSPn-jRSn18WUtskwmUitvDsOpt6QLKDdrCoRFqRv0000]--></g></svg>