<?xml version="1.0" encoding="us-ascii" standalone="no"?><svg xmlns="http://www.w3.org/2000/svg" xmlns:xlink="http://www.w3.org/1999/xlink" contentStyleType="text/css" height="907px" preserveAspectRatio="none" style="width:871px;height:907px;background:#FFFFFF;" version="1.1" viewBox="0 0 871 907" width="871px" zoomAndPan="magnify"><defs/><g><!--class Usager--><g id="elem_Usager"><rect codeLine="3" fill="#FFB6C1" height="40" id="Usager" rx="2.5" ry="2.5" style="stroke:#181818;stroke-width:0.5;" width="80" x="437" y="392.5"/><ellipse cx="452" cy="408.5" fill="#ADD1B2" rx="11" ry="11" style="stroke:#181818;stroke-width:1.0;"/><path d="M454.3438,404.1719 C453.4063,403.7344 452.8125,403.5938 451.9375,403.5938 C449.3125,403.5938 447.3125,405.6719 447.3125,408.3906 L447.3125,409.5156 C447.3125,412.0938 449.4219,413.9844 452.3125,413.9844 C453.5313,413.9844 454.6875,413.6875 455.4375,413.1406 C456.0156,412.7344 456.3438,412.2813 456.3438,411.8906 C456.3438,411.4375 455.9531,411.0469 455.4844,411.0469 C455.2656,411.0469 455.0625,411.125 454.875,411.3125 C454.4219,411.7969 454.4219,411.7969 454.2344,411.8906 C453.8125,412.1563 453.125,412.2813 452.3594,412.2813 C450.3125,412.2813 449.0156,411.1875 449.0156,409.4844 L449.0156,408.3906 C449.0156,406.6094 450.2656,405.2969 452,405.2969 C452.5781,405.2969 453.1875,405.4531 453.6563,405.7031 C454.1406,405.9844 454.3125,406.2031 454.4063,406.6094 C454.4688,407.0156 454.5,407.1406 454.6406,407.2656 C454.7813,407.4063 455.0156,407.5156 455.2344,407.5156 C455.5,407.5156 455.7656,407.375 455.9375,407.1563 C456.0469,407 456.0781,406.8125 456.0781,406.3906 L456.0781,404.9688 C456.0781,404.5313 456.0625,404.4063 455.9688,404.25 C455.8125,403.9844 455.5313,403.8438 455.2344,403.8438 C454.9375,403.8438 454.7344,403.9375 454.5156,404.25 L454.3438,404.1719 Z " fill="#000000"/><text fill="#000000" font-family="sans-serif" font-size="14" lengthAdjust="spacing" textLength="48" x="466" y="413.3467">Usager</text><line style="stroke:#181818;stroke-width:0.5;" x1="438" x2="516" y1="424.5" y2="424.5"/></g><!--class AssuranceMaladieComplementaire--><g id="elem_AssuranceMaladieComplementaire"><rect codeLine="5" fill="#FFFFE0" height="170.375" id="AssuranceMaladieComplementaire" rx="2.5" ry="2.5" style="stroke:#181818;stroke-width:0.5;" width="333" x="310.5" y="582"/><ellipse cx="349.35" cy="598" fill="#ADD1B2" rx="11" ry="11" style="stroke:#181818;stroke-width:1.0;"/><path d="M351.6938,593.6719 C350.7563,593.2344 350.1625,593.0938 349.2875,593.0938 C346.6625,593.0938 344.6625,595.1719 344.6625,597.8906 L344.6625,599.0156 C344.6625,601.5938 346.7719,603.4844 349.6625,603.4844 C350.8813,603.4844 352.0375,603.1875 352.7875,602.6406 C353.3656,602.2344 353.6938,601.7813 353.6938,601.3906 C353.6938,600.9375 353.3031,600.5469 352.8344,600.5469 C352.6156,600.5469 352.4125,600.625 352.225,600.8125 C351.7719,601.2969 351.7719,601.2969 351.5844,601.3906 C351.1625,601.6563 350.475,601.7813 349.7094,601.7813 C347.6625,601.7813 346.3656,600.6875 346.3656,598.9844 L346.3656,597.8906 C346.3656,596.1094 347.6156,594.7969 349.35,594.7969 C349.9281,594.7969 350.5375,594.9531 351.0063,595.2031 C351.4906,595.4844 351.6625,595.7031 351.7563,596.1094 C351.8188,596.5156 351.85,596.6406 351.9906,596.7656 C352.1313,596.9063 352.3656,597.0156 352.5844,597.0156 C352.85,597.0156 353.1156,596.875 353.2875,596.6563 C353.3969,596.5 353.4281,596.3125 353.4281,595.8906 L353.4281,594.4688 C353.4281,594.0313 353.4125,593.9063 353.3188,593.75 C353.1625,593.4844 352.8813,593.3438 352.5844,593.3438 C352.2875,593.3438 352.0844,593.4375 351.8656,593.75 L351.6938,593.6719 Z " fill="#000000"/><text fill="#000000" font-family="sans-serif" font-size="14" lengthAdjust="spacing" textLength="248" x="368.65" y="602.8467">AssuranceMaladieComplementaire</text><line style="stroke:#181818;stroke-width:0.5;" x1="311.5" x2="642.5" y1="614" y2="614"/><text fill="#000000" font-family="sans-serif" font-size="14" lengthAdjust="spacing" textLength="242" x="316.5" y="630.9951">numeroContrat : Identifiant [0..1]</text><text fill="#000000" font-family="sans-serif" font-size="14" lengthAdjust="spacing" textLength="223" x="316.5" y="647.292">ouvrantDroit : Identifiant [0..1]</text><text fill="#000000" font-family="sans-serif" font-size="14" lengthAdjust="spacing" textLength="206" x="316.5" y="663.5889">nomOrganisme : Texte [0..1]</text><text fill="#000000" font-family="sans-serif" font-size="14" lengthAdjust="spacing" textLength="218" x="316.5" y="679.8857">libelleOrganisme : Texte [0..1]</text><text fill="#000000" font-family="sans-serif" font-size="14" lengthAdjust="spacing" textLength="205" x="316.5" y="696.1826">dateDebutDroit : Date [0..1]</text><text fill="#000000" font-family="sans-serif" font-size="14" lengthAdjust="spacing" textLength="181" x="316.5" y="712.4795">dateFinDroit : Date [0..1]</text><text fill="#000000" font-family="sans-serif" font-size="14" lengthAdjust="spacing" textLength="321" x="316.5" y="728.7764">aideComplementaireSante : Indicateur [0..1]</text><text fill="#000000" font-family="sans-serif" font-size="14" lengthAdjust="spacing" textLength="184" x="316.5" y="745.0732">typeFinDroit : Code [0..1]</text></g><!--class AssuranceMaladieObligatoire--><g id="elem_AssuranceMaladieObligatoire"><rect codeLine="17" fill="#FFFFE0" height="219.2656" id="AssuranceMaladieObligatoire" rx="2.5" ry="2.5" style="stroke:#181818;stroke-width:0.5;" width="312" x="552" y="303"/><ellipse cx="600.25" cy="319" fill="#ADD1B2" rx="11" ry="11" style="stroke:#181818;stroke-width:1.0;"/><path d="M602.5938,314.6719 C601.6563,314.2344 601.0625,314.0938 600.1875,314.0938 C597.5625,314.0938 595.5625,316.1719 595.5625,318.8906 L595.5625,320.0156 C595.5625,322.5938 597.6719,324.4844 600.5625,324.4844 C601.7813,324.4844 602.9375,324.1875 603.6875,323.6406 C604.2656,323.2344 604.5938,322.7813 604.5938,322.3906 C604.5938,321.9375 604.2031,321.5469 603.7344,321.5469 C603.5156,321.5469 603.3125,321.625 603.125,321.8125 C602.6719,322.2969 602.6719,322.2969 602.4844,322.3906 C602.0625,322.6563 601.375,322.7813 600.6094,322.7813 C598.5625,322.7813 597.2656,321.6875 597.2656,319.9844 L597.2656,318.8906 C597.2656,317.1094 598.5156,315.7969 600.25,315.7969 C600.8281,315.7969 601.4375,315.9531 601.9063,316.2031 C602.3906,316.4844 602.5625,316.7031 602.6563,317.1094 C602.7188,317.5156 602.75,317.6406 602.8906,317.7656 C603.0313,317.9063 603.2656,318.0156 603.4844,318.0156 C603.75,318.0156 604.0156,317.875 604.1875,317.6563 C604.2969,317.5 604.3281,317.3125 604.3281,316.8906 L604.3281,315.4688 C604.3281,315.0313 604.3125,314.9063 604.2188,314.75 C604.0625,314.4844 603.7813,314.3438 603.4844,314.3438 C603.1875,314.3438 602.9844,314.4375 602.7656,314.75 L602.5938,314.6719 Z " fill="#000000"/><text fill="#000000" font-family="sans-serif" font-size="14" lengthAdjust="spacing" textLength="207" x="620.75" y="323.8467">AssuranceMaladieObligatoire</text><line style="stroke:#181818;stroke-width:0.5;" x1="553" x2="863" y1="335" y2="335"/><text fill="#000000" font-family="sans-serif" font-size="14" lengthAdjust="spacing" textLength="223" x="558" y="351.9951">ouvrantDroit : Identifiant [0..1]</text><text fill="#000000" font-family="sans-serif" font-size="14" lengthAdjust="spacing" textLength="206" x="558" y="368.292">nomOrganisme : Texte [0..1]</text><text fill="#000000" font-family="sans-serif" font-size="14" lengthAdjust="spacing" textLength="300" x="558" y="384.5889">numeroCodeOrganisme : Identifiant [0..1]</text><text fill="#000000" font-family="sans-serif" font-size="14" lengthAdjust="spacing" textLength="244" x="558" y="400.8857">adresseOrganisme : Adresse [0..1]</text><text fill="#000000" font-family="sans-serif" font-size="14" lengthAdjust="spacing" textLength="174" x="558" y="417.1826">codeRisque : Code [0..1]</text><text fill="#000000" font-family="sans-serif" font-size="14" lengthAdjust="spacing" textLength="205" x="558" y="433.4795">dateDebutDroit : Date [0..1]</text><text fill="#000000" font-family="sans-serif" font-size="14" lengthAdjust="spacing" textLength="181" x="558" y="449.7764">dateFinDroit : Date [0..1]</text><text fill="#000000" font-family="sans-serif" font-size="14" lengthAdjust="spacing" textLength="224" x="558" y="466.0732">ticketModerateur : Texte [0..1]</text><text fill="#000000" font-family="sans-serif" font-size="14" lengthAdjust="spacing" textLength="246" x="558" y="482.3701">dateFinCentPourCent : Date [0..1]</text><text fill="#000000" font-family="sans-serif" font-size="14" lengthAdjust="spacing" textLength="219" x="558" y="498.667">dateFinDroitPUMa : Date [0..1]</text><text fill="#000000" font-family="sans-serif" font-size="14" lengthAdjust="spacing" textLength="200" x="558" y="514.9639">droitPUMa : Indicateur [0..1]</text></g><!--class Decision--><g id="elem_Decision"><rect codeLine="31" fill="#FFFFE0" height="170.375" id="Decision" rx="2.5" ry="2.5" style="stroke:#181818;stroke-width:0.5;" width="312" x="321" y="40"/><ellipse cx="442.25" cy="56" fill="#ADD1B2" rx="11" ry="11" style="stroke:#181818;stroke-width:1.0;"/><path d="M444.5938,51.6719 C443.6563,51.2344 443.0625,51.0938 442.1875,51.0938 C439.5625,51.0938 437.5625,53.1719 437.5625,55.8906 L437.5625,57.0156 C437.5625,59.5938 439.6719,61.4844 442.5625,61.4844 C443.7813,61.4844 444.9375,61.1875 445.6875,60.6406 C446.2656,60.2344 446.5938,59.7813 446.5938,59.3906 C446.5938,58.9375 446.2031,58.5469 445.7344,58.5469 C445.5156,58.5469 445.3125,58.625 445.125,58.8125 C444.6719,59.2969 444.6719,59.2969 444.4844,59.3906 C444.0625,59.6563 443.375,59.7813 442.6094,59.7813 C440.5625,59.7813 439.2656,58.6875 439.2656,56.9844 L439.2656,55.8906 C439.2656,54.1094 440.5156,52.7969 442.25,52.7969 C442.8281,52.7969 443.4375,52.9531 443.9063,53.2031 C444.3906,53.4844 444.5625,53.7031 444.6563,54.1094 C444.7188,54.5156 444.75,54.6406 444.8906,54.7656 C445.0313,54.9063 445.2656,55.0156 445.4844,55.0156 C445.75,55.0156 446.0156,54.875 446.1875,54.6563 C446.2969,54.5 446.3281,54.3125 446.3281,53.8906 L446.3281,52.4688 C446.3281,52.0313 446.3125,51.9063 446.2188,51.75 C446.0625,51.4844 445.7813,51.3438 445.4844,51.3438 C445.1875,51.3438 444.9844,51.4375 444.7656,51.75 L444.5938,51.6719 Z " fill="#000000"/><text fill="#000000" font-family="sans-serif" font-size="14" lengthAdjust="spacing" textLength="61" x="462.75" y="60.8467">Decision</text><line style="stroke:#181818;stroke-width:0.5;" x1="322" x2="632" y1="72" y2="72"/><text fill="#000000" font-family="sans-serif" font-size="14" lengthAdjust="spacing" textLength="205" x="327" y="88.9951">idDecision : Identifiant [1..1]</text><text fill="#000000" font-family="sans-serif" font-size="14" lengthAdjust="spacing" textLength="300" x="327" y="105.292">numeroEnregistrement : Identifiant [0..1]</text><text fill="#000000" font-family="sans-serif" font-size="14" lengthAdjust="spacing" textLength="229" x="327" y="121.5889">idDecisionMAJ : Identifiant [0..*]</text><text fill="#000000" font-family="sans-serif" font-size="14" lengthAdjust="spacing" textLength="235" x="327" y="137.8857">idNat_Decision : Identifiant [0..*]</text><text fill="#000000" font-family="sans-serif" font-size="14" lengthAdjust="spacing" textLength="184" x="327" y="154.1826">dateDecision : Date [0..1]</text><text fill="#000000" font-family="sans-serif" font-size="14" lengthAdjust="spacing" textLength="187" x="327" y="170.4795">typeDecision : Code [0..1]</text><text fill="#000000" font-family="sans-serif" font-size="14" lengthAdjust="spacing" textLength="169" x="327" y="186.7764">motivation : Code [0..*]</text><text fill="#000000" font-family="sans-serif" font-size="14" lengthAdjust="spacing" textLength="194" x="327" y="203.0732">commentaire : Texte [0..1]</text></g><!--class DroitPrestation--><g id="elem_DroitPrestation"><rect codeLine="42" fill="#FFFFE0" height="235.5625" id="DroitPrestation" rx="2.5" ry="2.5" style="stroke:#181818;stroke-width:0.5;" width="275" x="10.5" y="7"/><ellipse cx="87.75" cy="23" fill="#ADD1B2" rx="11" ry="11" style="stroke:#181818;stroke-width:1.0;"/><path d="M90.0938,18.6719 C89.1563,18.2344 88.5625,18.0938 87.6875,18.0938 C85.0625,18.0938 83.0625,20.1719 83.0625,22.8906 L83.0625,24.0156 C83.0625,26.5938 85.1719,28.4844 88.0625,28.4844 C89.2813,28.4844 90.4375,28.1875 91.1875,27.6406 C91.7656,27.2344 92.0938,26.7813 92.0938,26.3906 C92.0938,25.9375 91.7031,25.5469 91.2344,25.5469 C91.0156,25.5469 90.8125,25.625 90.625,25.8125 C90.1719,26.2969 90.1719,26.2969 89.9844,26.3906 C89.5625,26.6563 88.875,26.7813 88.1094,26.7813 C86.0625,26.7813 84.7656,25.6875 84.7656,23.9844 L84.7656,22.8906 C84.7656,21.1094 86.0156,19.7969 87.75,19.7969 C88.3281,19.7969 88.9375,19.9531 89.4063,20.2031 C89.8906,20.4844 90.0625,20.7031 90.1563,21.1094 C90.2188,21.5156 90.25,21.6406 90.3906,21.7656 C90.5313,21.9063 90.7656,22.0156 90.9844,22.0156 C91.25,22.0156 91.5156,21.875 91.6875,21.6563 C91.7969,21.5 91.8281,21.3125 91.8281,20.8906 L91.8281,19.4688 C91.8281,19.0313 91.8125,18.9063 91.7188,18.75 C91.5625,18.4844 91.2813,18.3438 90.9844,18.3438 C90.6875,18.3438 90.4844,18.4375 90.2656,18.75 L90.0938,18.6719 Z " fill="#000000"/><text fill="#000000" font-family="sans-serif" font-size="14" lengthAdjust="spacing" textLength="112" x="108.25" y="27.8467">DroitPrestation</text><line style="stroke:#181818;stroke-width:0.5;" x1="11.5" x2="284.5" y1="39" y2="39"/><text fill="#000000" font-family="sans-serif" font-size="14" lengthAdjust="spacing" textLength="256" x="16.5" y="55.9951">idDroitPrestation : Identifiant [1..1]</text><text fill="#000000" font-family="sans-serif" font-size="14" lengthAdjust="spacing" textLength="244" x="16.5" y="72.292">contactOrganisme : Contact [0..*]</text><text fill="#000000" font-family="sans-serif" font-size="14" lengthAdjust="spacing" textLength="263" x="16.5" y="88.5889">numeroAllocataire : Identifiant [0..1]</text><text fill="#000000" font-family="sans-serif" font-size="14" lengthAdjust="spacing" textLength="238" x="16.5" y="104.8857">typeDroitPrestation : Code [1..1]</text><text fill="#000000" font-family="sans-serif" font-size="14" lengthAdjust="spacing" textLength="176" x="16.5" y="121.1826">natureDroit : Code [1..1]</text><text fill="#000000" font-family="sans-serif" font-size="14" lengthAdjust="spacing" textLength="195" x="16.5" y="137.4795">dateOuverture : Date [1..1]</text><text fill="#000000" font-family="sans-serif" font-size="14" lengthAdjust="spacing" textLength="192" x="16.5" y="153.7764">dateEcheance : Date [1..1]</text><text fill="#000000" font-family="sans-serif" font-size="14" lengthAdjust="spacing" textLength="227" x="16.5" y="170.0732">existencePAG : Indicateur [1..1]</text><text fill="#000000" font-family="sans-serif" font-size="14" lengthAdjust="spacing" textLength="175" x="16.5" y="186.3701">creton : Indicateur [0..1]</text><text fill="#000000" font-family="sans-serif" font-size="14" lengthAdjust="spacing" textLength="137" x="16.5" y="202.667">taux : Mesure [0..1]</text><text fill="#000000" font-family="sans-serif" font-size="14" lengthAdjust="spacing" textLength="231" x="16.5" y="218.9639">typeCompensation : Code [0..1]</text><text fill="#000000" font-family="sans-serif" font-size="14" lengthAdjust="spacing" textLength="194" x="16.5" y="235.2607">commentaire : Texte [0..1]</text></g><!--class DetailPrestation--><g id="elem_DetailPrestation"><rect codeLine="57" fill="#FFFFE0" height="121.4844" id="DetailPrestation" rx="2.5" ry="2.5" style="stroke:#181818;stroke-width:0.5;" width="253" x="21.5" y="352"/><ellipse cx="84.75" cy="368" fill="#ADD1B2" rx="11" ry="11" style="stroke:#181818;stroke-width:1.0;"/><path d="M87.0938,363.6719 C86.1563,363.2344 85.5625,363.0938 84.6875,363.0938 C82.0625,363.0938 80.0625,365.1719 80.0625,367.8906 L80.0625,369.0156 C80.0625,371.5938 82.1719,373.4844 85.0625,373.4844 C86.2813,373.4844 87.4375,373.1875 88.1875,372.6406 C88.7656,372.2344 89.0938,371.7813 89.0938,371.3906 C89.0938,370.9375 88.7031,370.5469 88.2344,370.5469 C88.0156,370.5469 87.8125,370.625 87.625,370.8125 C87.1719,371.2969 87.1719,371.2969 86.9844,371.3906 C86.5625,371.6563 85.875,371.7813 85.1094,371.7813 C83.0625,371.7813 81.7656,370.6875 81.7656,368.9844 L81.7656,367.8906 C81.7656,366.1094 83.0156,364.7969 84.75,364.7969 C85.3281,364.7969 85.9375,364.9531 86.4063,365.2031 C86.8906,365.4844 87.0625,365.7031 87.1563,366.1094 C87.2188,366.5156 87.25,366.6406 87.3906,366.7656 C87.5313,366.9063 87.7656,367.0156 87.9844,367.0156 C88.25,367.0156 88.5156,366.875 88.6875,366.6563 C88.7969,366.5 88.8281,366.3125 88.8281,365.8906 L88.8281,364.4688 C88.8281,364.0313 88.8125,363.9063 88.7188,363.75 C88.5625,363.4844 88.2813,363.3438 87.9844,363.3438 C87.6875,363.3438 87.4844,363.4375 87.2656,363.75 L87.0938,363.6719 Z " fill="#000000"/><text fill="#000000" font-family="sans-serif" font-size="14" lengthAdjust="spacing" textLength="118" x="105.25" y="372.8467">DetailPrestation</text><line style="stroke:#181818;stroke-width:0.5;" x1="22.5" x2="273.5" y1="384" y2="384"/><text fill="#000000" font-family="sans-serif" font-size="14" lengthAdjust="spacing" textLength="240" x="27.5" y="400.9951">montantAttribue : Montant [0..1]</text><text fill="#000000" font-family="sans-serif" font-size="14" lengthAdjust="spacing" textLength="179" x="27.5" y="417.292">frequence : Mesure [0..1]</text><text fill="#000000" font-family="sans-serif" font-size="14" lengthAdjust="spacing" textLength="230" x="27.5" y="433.5889">temporaliteAccueil : Code [0..1]</text><text fill="#000000" font-family="sans-serif" font-size="14" lengthAdjust="spacing" textLength="180" x="27.5" y="449.8857">qualification : Code [1..1]</text><text fill="#000000" font-family="sans-serif" font-size="14" lengthAdjust="spacing" textLength="241" x="27.5" y="466.1826">precisionOrientation : Code [0..1]</text></g><!--class PriseCharge--><g id="elem_PriseCharge"><rect codeLine="65" fill="#FFFFE0" height="56.2969" id="PriseCharge" rx="2.5" ry="2.5" style="stroke:#181818;stroke-width:0.5;" width="231" x="32.5" y="639"/><ellipse cx="100.75" cy="655" fill="#ADD1B2" rx="11" ry="11" style="stroke:#181818;stroke-width:1.0;"/><path d="M103.0938,650.6719 C102.1563,650.2344 101.5625,650.0938 100.6875,650.0938 C98.0625,650.0938 96.0625,652.1719 96.0625,654.8906 L96.0625,656.0156 C96.0625,658.5938 98.1719,660.4844 101.0625,660.4844 C102.2813,660.4844 103.4375,660.1875 104.1875,659.6406 C104.7656,659.2344 105.0938,658.7813 105.0938,658.3906 C105.0938,657.9375 104.7031,657.5469 104.2344,657.5469 C104.0156,657.5469 103.8125,657.625 103.625,657.8125 C103.1719,658.2969 103.1719,658.2969 102.9844,658.3906 C102.5625,658.6563 101.875,658.7813 101.1094,658.7813 C99.0625,658.7813 97.7656,657.6875 97.7656,655.9844 L97.7656,654.8906 C97.7656,653.1094 99.0156,651.7969 100.75,651.7969 C101.3281,651.7969 101.9375,651.9531 102.4063,652.2031 C102.8906,652.4844 103.0625,652.7031 103.1563,653.1094 C103.2188,653.5156 103.25,653.6406 103.3906,653.7656 C103.5313,653.9063 103.7656,654.0156 103.9844,654.0156 C104.25,654.0156 104.5156,653.875 104.6875,653.6563 C104.7969,653.5 104.8281,653.3125 104.8281,652.8906 L104.8281,651.4688 C104.8281,651.0313 104.8125,650.9063 104.7188,650.75 C104.5625,650.4844 104.2813,650.3438 103.9844,650.3438 C103.6875,650.3438 103.4844,650.4375 103.2656,650.75 L103.0938,650.6719 Z " fill="#000000"/><text fill="#000000" font-family="sans-serif" font-size="14" lengthAdjust="spacing" textLength="86" x="121.25" y="659.8467">PriseCharge</text><line style="stroke:#181818;stroke-width:0.5;" x1="33.5" x2="262.5" y1="671" y2="671"/><text fill="#000000" font-family="sans-serif" font-size="14" lengthAdjust="spacing" textLength="219" x="38.5" y="687.9951">modePriseCharge : Code [0..1]</text></g><!--class Quantification--><g id="elem_Quantification"><rect codeLine="69" fill="#FFFFE0" height="88.8906" id="Quantification" rx="2.5" ry="2.5" style="stroke:#181818;stroke-width:0.5;" width="282" x="7" y="812"/><ellipse cx="92.75" cy="828" fill="#ADD1B2" rx="11" ry="11" style="stroke:#181818;stroke-width:1.0;"/><path d="M95.0938,823.6719 C94.1563,823.2344 93.5625,823.0938 92.6875,823.0938 C90.0625,823.0938 88.0625,825.1719 88.0625,827.8906 L88.0625,829.0156 C88.0625,831.5938 90.1719,833.4844 93.0625,833.4844 C94.2813,833.4844 95.4375,833.1875 96.1875,832.6406 C96.7656,832.2344 97.0938,831.7813 97.0938,831.3906 C97.0938,830.9375 96.7031,830.5469 96.2344,830.5469 C96.0156,830.5469 95.8125,830.625 95.625,830.8125 C95.1719,831.2969 95.1719,831.2969 94.9844,831.3906 C94.5625,831.6563 93.875,831.7813 93.1094,831.7813 C91.0625,831.7813 89.7656,830.6875 89.7656,828.9844 L89.7656,827.8906 C89.7656,826.1094 91.0156,824.7969 92.75,824.7969 C93.3281,824.7969 93.9375,824.9531 94.4063,825.2031 C94.8906,825.4844 95.0625,825.7031 95.1563,826.1094 C95.2188,826.5156 95.25,826.6406 95.3906,826.7656 C95.5313,826.9063 95.7656,827.0156 95.9844,827.0156 C96.25,827.0156 96.5156,826.875 96.6875,826.6563 C96.7969,826.5 96.8281,826.3125 96.8281,825.8906 L96.8281,824.4688 C96.8281,824.0313 96.8125,823.9063 96.7188,823.75 C96.5625,823.4844 96.2813,823.3438 95.9844,823.3438 C95.6875,823.3438 95.4844,823.4375 95.2656,823.75 L95.0938,823.6719 Z " fill="#000000"/><text fill="#000000" font-family="sans-serif" font-size="14" lengthAdjust="spacing" textLength="102" x="113.25" y="832.8467">Quantification</text><line style="stroke:#181818;stroke-width:0.5;" x1="8" x2="288" y1="844" y2="844"/><text fill="#000000" font-family="sans-serif" font-size="14" lengthAdjust="spacing" textLength="255" x="13" y="860.9951">quantificationNombre : Texte [0..1]</text><text fill="#000000" font-family="sans-serif" font-size="14" lengthAdjust="spacing" textLength="235" x="13" y="877.292">quantificationUnite : Texte [0..1]</text><text fill="#000000" font-family="sans-serif" font-size="14" lengthAdjust="spacing" textLength="270" x="13" y="893.5889">quantificationPeriodicite : Code [0..1]</text></g><!--link Usager to AssuranceMaladieComplementaire--><g id="link_Usager_AssuranceMaladieComplementaire"><path codeLine="75" d="M477,432.894 C477,464.478 477,528.835 477,581.94 " fill="none" id="Usager-AssuranceMaladieComplementaire" style="stroke:#181818;stroke-width:1.0;"/><text fill="#000000" font-family="sans-serif" font-size="13" lengthAdjust="spacing" textLength="8" x="467.925" y="452.4753">1</text><text fill="#000000" font-family="sans-serif" font-size="13" lengthAdjust="spacing" textLength="7" x="469.6992" y="571.0421">*</text></g><!--link Usager to AssuranceMaladieObligatoire--><g id="link_Usager_AssuranceMaladieObligatoire"><path codeLine="76" d="M517.154,412.5 C528.709,412.5 540.265,412.5 551.82,412.5 " fill="none" id="Usager-AssuranceMaladieObligatoire" style="stroke:#181818;stroke-width:1.0;"/><text fill="#000000" font-family="sans-serif" font-size="13" lengthAdjust="spacing" textLength="8" x="525.0189" y="408.2428">1</text><text fill="#000000" font-family="sans-serif" font-size="13" lengthAdjust="spacing" textLength="8" x="536.0613" y="409.2004">1</text></g><!--link Decision to Usager--><g id="link_Decision_Usager"><path codeLine="77" d="M477,210.115 C477,273.606 477,355.826 477,392.449 " fill="none" id="Decision-Usager" style="stroke:#181818;stroke-width:1.0;"/><text fill="#000000" font-family="sans-serif" font-size="13" lengthAdjust="spacing" textLength="7" x="469.6883" y="230.4196">*</text><text fill="#000000" font-family="sans-serif" font-size="13" lengthAdjust="spacing" textLength="8" x="467.825" y="381.4423">1</text></g><!--link DroitPrestation to Decision--><g id="link_DroitPrestation_Decision"><path codeLine="78" d="M285.512,125 C297.23,125 308.949,125 320.668,125 " fill="none" id="DroitPrestation-Decision" style="stroke:#181818;stroke-width:1.0;"/><text fill="#000000" font-family="sans-serif" font-size="13" lengthAdjust="spacing" textLength="24" x="293.6884" y="121.6723">0..1</text><text fill="#000000" font-family="sans-serif" font-size="13" lengthAdjust="spacing" textLength="8" x="304.9019" y="121.6977">1</text></g><!--link DroitPrestation to DetailPrestation--><g id="link_DroitPrestation_DetailPrestation"><path codeLine="79" d="M148,243.36 C148,280.733 148,320.505 148,351.98 " fill="none" id="DroitPrestation-DetailPrestation" style="stroke:#181818;stroke-width:1.0;"/><text fill="#000000" font-family="sans-serif" font-size="13" lengthAdjust="spacing" textLength="8" x="139.7688" y="262.7197">1</text><text fill="#000000" font-family="sans-serif" font-size="13" lengthAdjust="spacing" textLength="24" x="122.5375" y="340.7355">0..1</text></g><!--link DetailPrestation to PriseCharge--><g id="link_DetailPrestation_PriseCharge"><path codeLine="80" d="M148,473.019 C148,525.508 148,599.591 148,638.952 " fill="none" id="DetailPrestation-PriseCharge" style="stroke:#181818;stroke-width:1.0;"/><text fill="#000000" font-family="sans-serif" font-size="13" lengthAdjust="spacing" textLength="8" x="139.5125" y="493.3543">1</text><text fill="#000000" font-family="sans-serif" font-size="13" lengthAdjust="spacing" textLength="7" x="140.1906" y="627.7794">*</text></g><!--link PriseCharge to Quantification--><g id="link_PriseCharge_Quantification"><path codeLine="81" d="M148,695.264 C148,725.836 148,775.842 148,811.8658 " fill="none" id="PriseCharge-Quantification" style="stroke:#181818;stroke-width:1.0;"/><text fill="#000000" font-family="sans-serif" font-size="13" lengthAdjust="spacing" textLength="8" x="139.075" y="715.5823">1</text><text fill="#000000" font-family="sans-serif" font-size="13" lengthAdjust="spacing" textLength="24" x="122.1625" y="800.9684">0..1</text></g><!--SRC=[hLLDRzim3BtxLmZPhK27vRgRaNH3XwN9FdeOXc5GR3OXQaifHNKjXlttqLRiob_f1ZG71n2V7ydtQ6gFEIWe3_oeIk2zpLsIP8LsJbqxlGDIhpxYRiyRDBTD87NEapOPh7IXSuI5BGy5b61O8y7nXMzG5FQN-fqe-HbV0jc5DKoQrLjrcGiORr0RLj_Vl7uz_r73hByNNbwInHCeOyirxRH1LuAWli83GnmlS2kvuIGcrmnBsFesrr8F0U_GJ8MrgDPj-ujKMQMwD3bcWlOKu_dn4DCjRDxI9N-cT5rl2znfjXEYlenQZJLvHx09CfqJEDT1fk4eHcL2zXdTdOTUgo-XF6Ds2xmILWegJxWh50lfOMCzLV_F9DfSh_GO98eDZMsDMqA63gqPSmdpDjgJTTxpuC8GxD0nrJCrRS8JuohzC08xQs1NcdzE9N_21KDQr41lcTmetBUpj8ptcdl1isOGodOhz6nwqgwMM6Q80ykuX3tGf9APh1YTSJoWYt0KrnNqJYM567giRaBiklr1zj1ePA1cJz3zkkUTGLlxUw0Ar4hSZLzaUwW-_P4mFCXGWCGswVlU74QD4t0GPdp_QFyWmHMugeGGK6s3rIO3umOspl_3Hf1uSTh7idB2SCfCkAsNmogSnCbk26Hn12KwvOPgvQQof0jaIBFC0nOZzTvv0TnKAeoxTQ3ZFAy9gxv6scxxsX0wMEmrxM2yfHnYo0JB9w_huSecjRdh8AvikQNHTTt5NHlaVu1jWD3AM0HmhyBZDJ-RpzJvkPgTpTGp5tpdZVfvuk9AsjrHCPy7V218-j-LcbL5DQJDYmDOKsa0zmSl6KnYr5baLHBRrgNiklKN]--></g></svg>