<?xml version="1.0" encoding="us-ascii" standalone="no"?><svg xmlns="http://www.w3.org/2000/svg" xmlns:xlink="http://www.w3.org/1999/xlink" contentStyleType="text/css" height="698px" preserveAspectRatio="none" style="width:843px;height:698px;background:#FFFFFF;" version="1.1" viewBox="0 0 843 698" width="843px" zoomAndPan="magnify"><defs/><g><!--class Usager--><g id="elem_Usager"><rect codeLine="3" fill="#FFB6C1" height="40" id="Usager" rx="2.5" ry="2.5" style="stroke:#181818;stroke-width:0.5;" width="80" x="428.5" y="39.5"/><ellipse cx="443.5" cy="55.5" fill="#ADD1B2" rx="11" ry="11" style="stroke:#181818;stroke-width:1.0;"/><path d="M445.8438,51.1719 C444.9063,50.7344 444.3125,50.5938 443.4375,50.5938 C440.8125,50.5938 438.8125,52.6719 438.8125,55.3906 L438.8125,56.5156 C438.8125,59.0938 440.9219,60.9844 443.8125,60.9844 C445.0313,60.9844 446.1875,60.6875 446.9375,60.1406 C447.5156,59.7344 447.8438,59.2813 447.8438,58.8906 C447.8438,58.4375 447.4531,58.0469 446.9844,58.0469 C446.7656,58.0469 446.5625,58.125 446.375,58.3125 C445.9219,58.7969 445.9219,58.7969 445.7344,58.8906 C445.3125,59.1563 444.625,59.2813 443.8594,59.2813 C441.8125,59.2813 440.5156,58.1875 440.5156,56.4844 L440.5156,55.3906 C440.5156,53.6094 441.7656,52.2969 443.5,52.2969 C444.0781,52.2969 444.6875,52.4531 445.1563,52.7031 C445.6406,52.9844 445.8125,53.2031 445.9063,53.6094 C445.9688,54.0156 446,54.1406 446.1406,54.2656 C446.2813,54.4063 446.5156,54.5156 446.7344,54.5156 C447,54.5156 447.2656,54.375 447.4375,54.1563 C447.5469,54 447.5781,53.8125 447.5781,53.3906 L447.5781,51.9688 C447.5781,51.5313 447.5625,51.4063 447.4688,51.25 C447.3125,50.9844 447.0313,50.8438 446.7344,50.8438 C446.4375,50.8438 446.2344,50.9375 446.0156,51.25 L445.8438,51.1719 Z " fill="#000000"/><text fill="#000000" font-family="sans-serif" font-size="14" lengthAdjust="spacing" textLength="48" x="457.5" y="60.3467">Usager</text><line style="stroke:#181818;stroke-width:0.5;" x1="429.5" x2="507.5" y1="71.5" y2="71.5"/></g><!--class Decision--><g id="elem_Decision"><rect codeLine="5" fill="#FFFFE0" height="40" id="Decision" rx="2.5" ry="2.5" style="stroke:#181818;stroke-width:0.5;" width="93" x="320" y="172"/><ellipse cx="335" cy="188" fill="#ADD1B2" rx="11" ry="11" style="stroke:#181818;stroke-width:1.0;"/><path d="M337.3438,183.6719 C336.4063,183.2344 335.8125,183.0938 334.9375,183.0938 C332.3125,183.0938 330.3125,185.1719 330.3125,187.8906 L330.3125,189.0156 C330.3125,191.5938 332.4219,193.4844 335.3125,193.4844 C336.5313,193.4844 337.6875,193.1875 338.4375,192.6406 C339.0156,192.2344 339.3438,191.7813 339.3438,191.3906 C339.3438,190.9375 338.9531,190.5469 338.4844,190.5469 C338.2656,190.5469 338.0625,190.625 337.875,190.8125 C337.4219,191.2969 337.4219,191.2969 337.2344,191.3906 C336.8125,191.6563 336.125,191.7813 335.3594,191.7813 C333.3125,191.7813 332.0156,190.6875 332.0156,188.9844 L332.0156,187.8906 C332.0156,186.1094 333.2656,184.7969 335,184.7969 C335.5781,184.7969 336.1875,184.9531 336.6563,185.2031 C337.1406,185.4844 337.3125,185.7031 337.4063,186.1094 C337.4688,186.5156 337.5,186.6406 337.6406,186.7656 C337.7813,186.9063 338.0156,187.0156 338.2344,187.0156 C338.5,187.0156 338.7656,186.875 338.9375,186.6563 C339.0469,186.5 339.0781,186.3125 339.0781,185.8906 L339.0781,184.4688 C339.0781,184.0313 339.0625,183.9063 338.9688,183.75 C338.8125,183.4844 338.5313,183.3438 338.2344,183.3438 C337.9375,183.3438 337.7344,183.4375 337.5156,183.75 L337.3438,183.6719 Z " fill="#000000"/><text fill="#000000" font-family="sans-serif" font-size="14" lengthAdjust="spacing" textLength="61" x="349" y="192.8467">Decision</text><line style="stroke:#181818;stroke-width:0.5;" x1="321" x2="412" y1="204" y2="204"/></g><!--class DroitPrestation--><g id="elem_DroitPrestation"><rect codeLine="7" fill="#FFFFE0" height="40" id="DroitPrestation" rx="2.5" ry="2.5" style="stroke:#181818;stroke-width:0.5;" width="144" x="271.5" y="272"/><ellipse cx="286.5" cy="288" fill="#ADD1B2" rx="11" ry="11" style="stroke:#181818;stroke-width:1.0;"/><path d="M288.8438,283.6719 C287.9063,283.2344 287.3125,283.0938 286.4375,283.0938 C283.8125,283.0938 281.8125,285.1719 281.8125,287.8906 L281.8125,289.0156 C281.8125,291.5938 283.9219,293.4844 286.8125,293.4844 C288.0313,293.4844 289.1875,293.1875 289.9375,292.6406 C290.5156,292.2344 290.8438,291.7813 290.8438,291.3906 C290.8438,290.9375 290.4531,290.5469 289.9844,290.5469 C289.7656,290.5469 289.5625,290.625 289.375,290.8125 C288.9219,291.2969 288.9219,291.2969 288.7344,291.3906 C288.3125,291.6563 287.625,291.7813 286.8594,291.7813 C284.8125,291.7813 283.5156,290.6875 283.5156,288.9844 L283.5156,287.8906 C283.5156,286.1094 284.7656,284.7969 286.5,284.7969 C287.0781,284.7969 287.6875,284.9531 288.1563,285.2031 C288.6406,285.4844 288.8125,285.7031 288.9063,286.1094 C288.9688,286.5156 289,286.6406 289.1406,286.7656 C289.2813,286.9063 289.5156,287.0156 289.7344,287.0156 C290,287.0156 290.2656,286.875 290.4375,286.6563 C290.5469,286.5 290.5781,286.3125 290.5781,285.8906 L290.5781,284.4688 C290.5781,284.0313 290.5625,283.9063 290.4688,283.75 C290.3125,283.4844 290.0313,283.3438 289.7344,283.3438 C289.4375,283.3438 289.2344,283.4375 289.0156,283.75 L288.8438,283.6719 Z " fill="#000000"/><text fill="#000000" font-family="sans-serif" font-size="14" lengthAdjust="spacing" textLength="112" x="300.5" y="292.8467">DroitPrestation</text><line style="stroke:#181818;stroke-width:0.5;" x1="272.5" x2="414.5" y1="304" y2="304"/></g><!--class Reservation--><g id="elem_Reservation"><rect codeLine="9" fill="#D8BFD8" height="105.1875" id="Reservation" rx="2.5" ry="2.5" style="stroke:#181818;stroke-width:0.5;" width="257" x="136" y="7"/><ellipse cx="217.25" cy="23" fill="#ADD1B2" rx="11" ry="11" style="stroke:#181818;stroke-width:1.0;"/><path d="M219.5938,18.6719 C218.6563,18.2344 218.0625,18.0938 217.1875,18.0938 C214.5625,18.0938 212.5625,20.1719 212.5625,22.8906 L212.5625,24.0156 C212.5625,26.5938 214.6719,28.4844 217.5625,28.4844 C218.7813,28.4844 219.9375,28.1875 220.6875,27.6406 C221.2656,27.2344 221.5938,26.7813 221.5938,26.3906 C221.5938,25.9375 221.2031,25.5469 220.7344,25.5469 C220.5156,25.5469 220.3125,25.625 220.125,25.8125 C219.6719,26.2969 219.6719,26.2969 219.4844,26.3906 C219.0625,26.6563 218.375,26.7813 217.6094,26.7813 C215.5625,26.7813 214.2656,25.6875 214.2656,23.9844 L214.2656,22.8906 C214.2656,21.1094 215.5156,19.7969 217.25,19.7969 C217.8281,19.7969 218.4375,19.9531 218.9063,20.2031 C219.3906,20.4844 219.5625,20.7031 219.6563,21.1094 C219.7188,21.5156 219.75,21.6406 219.8906,21.7656 C220.0313,21.9063 220.2656,22.0156 220.4844,22.0156 C220.75,22.0156 221.0156,21.875 221.1875,21.6563 C221.2969,21.5 221.3281,21.3125 221.3281,20.8906 L221.3281,19.4688 C221.3281,19.0313 221.3125,18.9063 221.2188,18.75 C221.0625,18.4844 220.7813,18.3438 220.4844,18.3438 C220.1875,18.3438 219.9844,18.4375 219.7656,18.75 L219.5938,18.6719 Z " fill="#000000"/><text fill="#000000" font-family="sans-serif" font-size="14" lengthAdjust="spacing" textLength="86" x="237.75" y="27.8467">Reservation</text><line style="stroke:#181818;stroke-width:0.5;" x1="137" x2="392" y1="39" y2="39"/><text fill="#000000" font-family="sans-serif" font-size="14" lengthAdjust="spacing" textLength="126" x="142" y="55.9951">type : Code [0..1]</text><text fill="#000000" font-family="sans-serif" font-size="14" lengthAdjust="spacing" textLength="169" x="142" y="72.292">dateDepot : Date [0..1]</text><text fill="#000000" font-family="sans-serif" font-size="14" lengthAdjust="spacing" textLength="245" x="142" y="88.5889">dateAdmissionPrevue : Date [0..1]</text><text fill="#000000" font-family="sans-serif" font-size="14" lengthAdjust="spacing" textLength="216" x="142" y="104.8857">etablissementSouhaite : [0..*]</text></g><!--class Sejour--><g id="elem_Sejour"><rect codeLine="16" fill="#D8BFD8" height="137.7813" id="Sejour" rx="2.5" ry="2.5" style="stroke:#181818;stroke-width:0.5;" width="263" x="275" y="372"/><ellipse cx="379.75" cy="388" fill="#ADD1B2" rx="11" ry="11" style="stroke:#181818;stroke-width:1.0;"/><path d="M382.0938,383.6719 C381.1563,383.2344 380.5625,383.0938 379.6875,383.0938 C377.0625,383.0938 375.0625,385.1719 375.0625,387.8906 L375.0625,389.0156 C375.0625,391.5938 377.1719,393.4844 380.0625,393.4844 C381.2813,393.4844 382.4375,393.1875 383.1875,392.6406 C383.7656,392.2344 384.0938,391.7813 384.0938,391.3906 C384.0938,390.9375 383.7031,390.5469 383.2344,390.5469 C383.0156,390.5469 382.8125,390.625 382.625,390.8125 C382.1719,391.2969 382.1719,391.2969 381.9844,391.3906 C381.5625,391.6563 380.875,391.7813 380.1094,391.7813 C378.0625,391.7813 376.7656,390.6875 376.7656,388.9844 L376.7656,387.8906 C376.7656,386.1094 378.0156,384.7969 379.75,384.7969 C380.3281,384.7969 380.9375,384.9531 381.4063,385.2031 C381.8906,385.4844 382.0625,385.7031 382.1563,386.1094 C382.2188,386.5156 382.25,386.6406 382.3906,386.7656 C382.5313,386.9063 382.7656,387.0156 382.9844,387.0156 C383.25,387.0156 383.5156,386.875 383.6875,386.6563 C383.7969,386.5 383.8281,386.3125 383.8281,385.8906 L383.8281,384.4688 C383.8281,384.0313 383.8125,383.9063 383.7188,383.75 C383.5625,383.4844 383.2813,383.3438 382.9844,383.3438 C382.6875,383.3438 382.4844,383.4375 382.2656,383.75 L382.0938,383.6719 Z " fill="#000000"/><text fill="#000000" font-family="sans-serif" font-size="14" lengthAdjust="spacing" textLength="45" x="400.25" y="392.8467">Sejour</text><line style="stroke:#181818;stroke-width:0.5;" x1="276" x2="537" y1="404" y2="404"/><text fill="#000000" font-family="sans-serif" font-size="14" lengthAdjust="spacing" textLength="196" x="281" y="420.9951">dateSoldeFinal : Date [0..1]</text><text fill="#000000" font-family="sans-serif" font-size="14" lengthAdjust="spacing" textLength="251" x="281" y="437.292">soldeFinalDepense : Montant [0..1]</text><text fill="#000000" font-family="sans-serif" font-size="14" lengthAdjust="spacing" textLength="251" x="281" y="453.5889">soldeFinalDepense : Montant [0..1]</text><text fill="#000000" font-family="sans-serif" font-size="14" lengthAdjust="spacing" textLength="190" x="281" y="469.8857">dateSoldeJour : Date [0..1]</text><text fill="#000000" font-family="sans-serif" font-size="14" lengthAdjust="spacing" textLength="246" x="281" y="486.1826">soldeFinalRecette : Montant [0..1]</text><text fill="#000000" font-family="sans-serif" font-size="14" lengthAdjust="spacing" textLength="246" x="281" y="502.4795">soldeFinalRecette : Montant [0..1]</text></g><!--class ESSMS--><g id="elem_ESSMS"><rect codeLine="25" fill="#D8BFD8" height="56.2969" id="ESSMS" rx="2.5" ry="2.5" style="stroke:#181818;stroke-width:0.5;" width="233" x="7" y="413"/><ellipse cx="95.25" cy="429" fill="#ADD1B2" rx="11" ry="11" style="stroke:#181818;stroke-width:1.0;"/><path d="M97.5938,424.6719 C96.6563,424.2344 96.0625,424.0938 95.1875,424.0938 C92.5625,424.0938 90.5625,426.1719 90.5625,428.8906 L90.5625,430.0156 C90.5625,432.5938 92.6719,434.4844 95.5625,434.4844 C96.7813,434.4844 97.9375,434.1875 98.6875,433.6406 C99.2656,433.2344 99.5938,432.7813 99.5938,432.3906 C99.5938,431.9375 99.2031,431.5469 98.7344,431.5469 C98.5156,431.5469 98.3125,431.625 98.125,431.8125 C97.6719,432.2969 97.6719,432.2969 97.4844,432.3906 C97.0625,432.6563 96.375,432.7813 95.6094,432.7813 C93.5625,432.7813 92.2656,431.6875 92.2656,429.9844 L92.2656,428.8906 C92.2656,427.1094 93.5156,425.7969 95.25,425.7969 C95.8281,425.7969 96.4375,425.9531 96.9063,426.2031 C97.3906,426.4844 97.5625,426.7031 97.6563,427.1094 C97.7188,427.5156 97.75,427.6406 97.8906,427.7656 C98.0313,427.9063 98.2656,428.0156 98.4844,428.0156 C98.75,428.0156 99.0156,427.875 99.1875,427.6563 C99.2969,427.5 99.3281,427.3125 99.3281,426.8906 L99.3281,425.4688 C99.3281,425.0313 99.3125,424.9063 99.2188,424.75 C99.0625,424.4844 98.7813,424.3438 98.4844,424.3438 C98.1875,424.3438 97.9844,424.4375 97.7656,424.75 L97.5938,424.6719 Z " fill="#000000"/><text fill="#000000" font-family="sans-serif" font-size="14" lengthAdjust="spacing" textLength="48" x="115.75" y="433.8467">ESSMS</text><line style="stroke:#181818;stroke-width:0.5;" x1="8" x2="239" y1="445" y2="445"/><text fill="#000000" font-family="sans-serif" font-size="14" lengthAdjust="spacing" textLength="221" x="13" y="461.9951">idNat_Struct : Identifiant [1..1]</text></g><!--class Inventaire--><g id="elem_Inventaire"><rect codeLine="29" fill="#D8BFD8" height="56.2969" id="Inventaire" rx="2.5" ry="2.5" style="stroke:#181818;stroke-width:0.5;" width="176" x="192.5" y="602.5"/><ellipse cx="239.75" cy="618.5" fill="#ADD1B2" rx="11" ry="11" style="stroke:#181818;stroke-width:1.0;"/><path d="M242.0938,614.1719 C241.1563,613.7344 240.5625,613.5938 239.6875,613.5938 C237.0625,613.5938 235.0625,615.6719 235.0625,618.3906 L235.0625,619.5156 C235.0625,622.0938 237.1719,623.9844 240.0625,623.9844 C241.2813,623.9844 242.4375,623.6875 243.1875,623.1406 C243.7656,622.7344 244.0938,622.2813 244.0938,621.8906 C244.0938,621.4375 243.7031,621.0469 243.2344,621.0469 C243.0156,621.0469 242.8125,621.125 242.625,621.3125 C242.1719,621.7969 242.1719,621.7969 241.9844,621.8906 C241.5625,622.1563 240.875,622.2813 240.1094,622.2813 C238.0625,622.2813 236.7656,621.1875 236.7656,619.4844 L236.7656,618.3906 C236.7656,616.6094 238.0156,615.2969 239.75,615.2969 C240.3281,615.2969 240.9375,615.4531 241.4063,615.7031 C241.8906,615.9844 242.0625,616.2031 242.1563,616.6094 C242.2188,617.0156 242.25,617.1406 242.3906,617.2656 C242.5313,617.4063 242.7656,617.5156 242.9844,617.5156 C243.25,617.5156 243.5156,617.375 243.6875,617.1563 C243.7969,617 243.8281,616.8125 243.8281,616.3906 L243.8281,614.9688 C243.8281,614.5313 243.8125,614.4063 243.7188,614.25 C243.5625,613.9844 243.2813,613.8438 242.9844,613.8438 C242.6875,613.8438 242.4844,613.9375 242.2656,614.25 L242.0938,614.1719 Z " fill="#000000"/><text fill="#000000" font-family="sans-serif" font-size="14" lengthAdjust="spacing" textLength="73" x="260.25" y="623.3467">Inventaire</text><line style="stroke:#181818;stroke-width:0.5;" x1="193.5" x2="367.5" y1="634.5" y2="634.5"/><text fill="#000000" font-family="sans-serif" font-size="14" lengthAdjust="spacing" textLength="164" x="198.5" y="651.4951">trousseau : texte [0..1]</text></g><!--class Solde--><g id="elem_Solde"><rect codeLine="33" fill="#D8BFD8" height="137.7813" id="Solde" rx="2.5" ry="2.5" style="stroke:#181818;stroke-width:0.5;" width="263" x="573" y="372"/><ellipse cx="680.25" cy="388" fill="#ADD1B2" rx="11" ry="11" style="stroke:#181818;stroke-width:1.0;"/><path d="M682.5938,383.6719 C681.6563,383.2344 681.0625,383.0938 680.1875,383.0938 C677.5625,383.0938 675.5625,385.1719 675.5625,387.8906 L675.5625,389.0156 C675.5625,391.5938 677.6719,393.4844 680.5625,393.4844 C681.7813,393.4844 682.9375,393.1875 683.6875,392.6406 C684.2656,392.2344 684.5938,391.7813 684.5938,391.3906 C684.5938,390.9375 684.2031,390.5469 683.7344,390.5469 C683.5156,390.5469 683.3125,390.625 683.125,390.8125 C682.6719,391.2969 682.6719,391.2969 682.4844,391.3906 C682.0625,391.6563 681.375,391.7813 680.6094,391.7813 C678.5625,391.7813 677.2656,390.6875 677.2656,388.9844 L677.2656,387.8906 C677.2656,386.1094 678.5156,384.7969 680.25,384.7969 C680.8281,384.7969 681.4375,384.9531 681.9063,385.2031 C682.3906,385.4844 682.5625,385.7031 682.6563,386.1094 C682.7188,386.5156 682.75,386.6406 682.8906,386.7656 C683.0313,386.9063 683.2656,387.0156 683.4844,387.0156 C683.75,387.0156 684.0156,386.875 684.1875,386.6563 C684.2969,386.5 684.3281,386.3125 684.3281,385.8906 L684.3281,384.4688 C684.3281,384.0313 684.3125,383.9063 684.2188,383.75 C684.0625,383.4844 683.7813,383.3438 683.4844,383.3438 C683.1875,383.3438 682.9844,383.4375 682.7656,383.75 L682.5938,383.6719 Z " fill="#000000"/><text fill="#000000" font-family="sans-serif" font-size="14" lengthAdjust="spacing" textLength="40" x="700.75" y="392.8467">Solde</text><line style="stroke:#181818;stroke-width:0.5;" x1="574" x2="835" y1="404" y2="404"/><text fill="#000000" font-family="sans-serif" font-size="14" lengthAdjust="spacing" textLength="196" x="579" y="420.9951">dateSoldeFinal : Date [0..1]</text><text fill="#000000" font-family="sans-serif" font-size="14" lengthAdjust="spacing" textLength="251" x="579" y="437.292">soldeFinalDepense : Montant [0..1]</text><text fill="#000000" font-family="sans-serif" font-size="14" lengthAdjust="spacing" textLength="251" x="579" y="453.5889">soldeFinalDepense : Montant [0..1]</text><text fill="#000000" font-family="sans-serif" font-size="14" lengthAdjust="spacing" textLength="190" x="579" y="469.8857">dateSoldeJour : Date [0..1]</text><text fill="#000000" font-family="sans-serif" font-size="14" lengthAdjust="spacing" textLength="246" x="579" y="486.1826">soldeFinalRecette : Montant [0..1]</text><text fill="#000000" font-family="sans-serif" font-size="14" lengthAdjust="spacing" textLength="246" x="579" y="502.4795">soldeFinalRecette : Montant [0..1]</text></g><!--class Contrat--><g id="elem_Contrat"><rect codeLine="42" fill="#D8BFD8" height="121.4844" id="Contrat" rx="2.5" ry="2.5" style="stroke:#181818;stroke-width:0.5;" width="257" x="404" y="570"/><ellipse cx="500.25" cy="586" fill="#ADD1B2" rx="11" ry="11" style="stroke:#181818;stroke-width:1.0;"/><path d="M502.5938,581.6719 C501.6563,581.2344 501.0625,581.0938 500.1875,581.0938 C497.5625,581.0938 495.5625,583.1719 495.5625,585.8906 L495.5625,587.0156 C495.5625,589.5938 497.6719,591.4844 500.5625,591.4844 C501.7813,591.4844 502.9375,591.1875 503.6875,590.6406 C504.2656,590.2344 504.5938,589.7813 504.5938,589.3906 C504.5938,588.9375 504.2031,588.5469 503.7344,588.5469 C503.5156,588.5469 503.3125,588.625 503.125,588.8125 C502.6719,589.2969 502.6719,589.2969 502.4844,589.3906 C502.0625,589.6563 501.375,589.7813 500.6094,589.7813 C498.5625,589.7813 497.2656,588.6875 497.2656,586.9844 L497.2656,585.8906 C497.2656,584.1094 498.5156,582.7969 500.25,582.7969 C500.8281,582.7969 501.4375,582.9531 501.9063,583.2031 C502.3906,583.4844 502.5625,583.7031 502.6563,584.1094 C502.7188,584.5156 502.75,584.6406 502.8906,584.7656 C503.0313,584.9063 503.2656,585.0156 503.4844,585.0156 C503.75,585.0156 504.0156,584.875 504.1875,584.6563 C504.2969,584.5 504.3281,584.3125 504.3281,583.8906 L504.3281,582.4688 C504.3281,582.0313 504.3125,581.9063 504.2188,581.75 C504.0625,581.4844 503.7813,581.3438 503.4844,581.3438 C503.1875,581.3438 502.9844,581.4375 502.7656,581.75 L502.5938,581.6719 Z " fill="#000000"/><text fill="#000000" font-family="sans-serif" font-size="14" lengthAdjust="spacing" textLength="56" x="520.75" y="590.8467">Contrat</text><line style="stroke:#181818;stroke-width:0.5;" x1="405" x2="660" y1="602" y2="602"/><text fill="#000000" font-family="sans-serif" font-size="14" lengthAdjust="spacing" textLength="216" x="410" y="618.9951">libellePrestation : Texte [0..1]</text><text fill="#000000" font-family="sans-serif" font-size="14" lengthAdjust="spacing" textLength="200" x="410" y="635.292">prixUnitaire : Montant [0..1]</text><text fill="#000000" font-family="sans-serif" font-size="14" lengthAdjust="spacing" textLength="166" x="410" y="651.5889">tauxTVA : Mesure [0..1]</text><text fill="#000000" font-family="sans-serif" font-size="14" lengthAdjust="spacing" textLength="160" x="410" y="667.8857">dateEffet : Date [0..1]</text><text fill="#000000" font-family="sans-serif" font-size="14" lengthAdjust="spacing" textLength="245" x="410" y="684.1826">termePaiement : Indicateur  [0..1]</text></g><!--link Usager to Decision--><g id="link_Usager_Decision"><path codeLine="50" d="M453.45,79.756 C434.165,104.429 400.927,146.954 381.612,171.665 " fill="none" id="Usager-Decision" style="stroke:#181818;stroke-width:1.0;"/><text fill="#000000" font-family="sans-serif" font-size="13" lengthAdjust="spacing" textLength="8" x="440.0922" y="99.6479">1</text><text fill="#000000" font-family="sans-serif" font-size="13" lengthAdjust="spacing" textLength="7" x="377.8779" y="160.922">*</text></g><!--link Decision to DroitPrestation--><g id="link_Decision_DroitPrestation"><path codeLine="51" d="M361.956,212.362 C357.924,229.542 352.064,254.51 348.035,271.679 " fill="none" id="Decision-DroitPrestation" style="stroke:#181818;stroke-width:1.0;"/><text fill="#000000" font-family="sans-serif" font-size="13" lengthAdjust="spacing" textLength="8" x="351.6598" y="231.9347">1</text><text fill="#000000" font-family="sans-serif" font-size="13" lengthAdjust="spacing" textLength="24" x="352.6855" y="260.9399">0..1</text></g><!--link Reservation to DroitPrestation--><g id="link_Reservation_DroitPrestation"><path codeLine="52" d="M274.35,112.256 C280.774,141.964 290.248,179.67 302.5,212 C310.549,233.241 322.873,256.136 331.909,271.783 " fill="none" id="Reservation-DroitPrestation" style="stroke:#181818;stroke-width:1.0;"/><text fill="#000000" font-family="sans-serif" font-size="13" lengthAdjust="spacing" textLength="7" x="268.2033" y="132.4161">*</text><text fill="#000000" font-family="sans-serif" font-size="13" lengthAdjust="spacing" textLength="8" x="319.524" y="261.0732">1</text></g><!--link Reservation to Usager--><g id="link_Reservation_Usager"><path codeLine="53" d="M393.195,59.5 C404.962,59.5 416.728,59.5 428.494,59.5 " fill="none" id="Reservation-Usager" style="stroke:#181818;stroke-width:1.0;"/><text fill="#000000" font-family="sans-serif" font-size="13" lengthAdjust="spacing" textLength="8" x="400.8664" y="56.1317">1</text><text fill="#000000" font-family="sans-serif" font-size="13" lengthAdjust="spacing" textLength="7" x="413.4726" y="55.1963">*</text></g><!--link DroitPrestation to Sejour--><g id="link_DroitPrestation_Sejour"><path codeLine="54" d="M351.736,312.218 C358.307,327.549 367.929,350 377.281,371.822 " fill="none" id="DroitPrestation-Sejour" style="stroke:#181818;stroke-width:1.0;"/><text fill="#000000" font-family="sans-serif" font-size="13" lengthAdjust="spacing" textLength="8" x="344.9274" y="332.0993">1</text><text fill="#000000" font-family="sans-serif" font-size="13" lengthAdjust="spacing" textLength="7" x="366.9069" y="360.9996">*</text></g><!--link ESSMS to Sejour--><g id="link_ESSMS_Sejour"><path codeLine="55" d="M240.127,441 C251.717,441 263.307,441 274.896,441 " fill="none" id="ESSMS-Sejour" style="stroke:#181818;stroke-width:1.0;"/><text fill="#000000" font-family="sans-serif" font-size="13" lengthAdjust="spacing" textLength="8" x="247.8547" y="437.5812">1</text><text fill="#000000" font-family="sans-serif" font-size="13" lengthAdjust="spacing" textLength="7" x="260.0853" y="437.6435">*</text></g><!--link Sejour to Inventaire--><g id="link_Sejour_Inventaire"><path codeLine="56" d="M360.655,510.222 C339.264,542.054 315.017,578.135 298.847,602.1983 " fill="none" id="Sejour-Inventaire" style="stroke:#181818;stroke-width:1.0;"/><text fill="#000000" font-family="sans-serif" font-size="13" lengthAdjust="spacing" textLength="8" x="347.7484" y="529.8585">1</text><text fill="#000000" font-family="sans-serif" font-size="13" lengthAdjust="spacing" textLength="24" x="276.2354" y="591.4153">0..1</text></g><!--link Sejour to Solde--><g id="link_Sejour_Solde"><path codeLine="57" d="M538.039,441 C549.635,441 561.231,441 572.827,441 " fill="none" id="Sejour-Solde" style="stroke:#181818;stroke-width:1.0;"/><text fill="#000000" font-family="sans-serif" font-size="13" lengthAdjust="spacing" textLength="8" x="545.8748" y="437.6435">1</text><text fill="#000000" font-family="sans-serif" font-size="13" lengthAdjust="spacing" textLength="7" x="558.0123" y="437.6435">*</text></g><!--link Sejour to Contrat--><g id="link_Sejour_Contrat"><path codeLine="58" d="M452.345,510.222 C465.433,529.698 479.59,550.765 492.312,569.697 " fill="none" id="Sejour-Contrat" style="stroke:#181818;stroke-width:1.0;"/><text fill="#000000" font-family="sans-serif" font-size="13" lengthAdjust="spacing" textLength="7" x="449.5133" y="529.8585">*</text><text fill="#000000" font-family="sans-serif" font-size="13" lengthAdjust="spacing" textLength="7" x="480.2606" y="558.846">*</text></g><!--link Usager to Sejour--><g id="link_Usager_Sejour"><path codeLine="59" d="M466.126,79.807 C460.848,122.035 447.424,225.726 432.5,312 C429.137,331.439 425.057,352.449 421.136,371.717 " fill="none" id="Usager-Sejour" style="stroke:#181818;stroke-width:1.0;"/></g><!--SRC=[vLJ1Qi904BtlLopfJL3grPke1KijOhHGYfGr6SsqoQxiJgnI-k_TJMACQRJGQtD9sFTcvitRp4GO0eTaImUU04KgD8m5iJ26BupOWEOt3xY9Q8ho_GWC8K23IXRGCyIn-YX1hP2c6Wm9kiIPWG6zA_1vX8PYu9-CsuSEM-0zFb1MrSjjfzDTPiUX81Z2Lf75XlQxZlN318tJP2llKcXW0ObLR3cGW2HVfP50SZn7QItPrr6R3sygrNLPheQluX3kK8gu8RqfGIiJf76f9qgIaFG7MbdktccvLcq60H3zMkqYhUnxvFiJlzusXe-2NdtIQU2S7uVMErnZ5jyzZn_BdGK5QgWauVcTQfLQuqLgKn3iJwsSJ7T2_v_d0tkk1TKRZt5bnmKgGzJZywflZhJLk5z8p1rlL48YtS-V-Wu4a-eVCpDQhw5fdWXq0bE1sQIuMvSX1fPZNQbqK6m7h-lnTfjxBQzS2wpS3qVG1NdrpS2gMy35jpF-LLOtOrbkNftLbqr5JJx7BF-jJu75UBFYVQxmz0-VuNcWkzVok5NMAUxmw4UxgF0D]--></g></svg>