<?xml version="1.0" encoding="us-ascii" standalone="no"?><svg xmlns="http://www.w3.org/2000/svg" xmlns:xlink="http://www.w3.org/1999/xlink" contentStyleType="text/css" height="578px" preserveAspectRatio="none" style="width:922px;height:578px;background:#FFFFFF;" version="1.1" viewBox="0 0 922 578" width="922px" zoomAndPan="magnify"><defs/><g><!--class Usager--><g id="elem_Usager"><rect codeLine="3" fill="#FFB6C1" height="398.5313" id="Usager" rx="2.5" ry="2.5" style="stroke:#181818;stroke-width:0.5;" width="271" x="383" y="7"/><ellipse cx="490.25" cy="23" fill="#ADD1B2" rx="11" ry="11" style="stroke:#181818;stroke-width:1.0;"/><path d="M492.5938,18.6719 C491.6563,18.2344 491.0625,18.0938 490.1875,18.0938 C487.5625,18.0938 485.5625,20.1719 485.5625,22.8906 L485.5625,24.0156 C485.5625,26.5938 487.6719,28.4844 490.5625,28.4844 C491.7813,28.4844 492.9375,28.1875 493.6875,27.6406 C494.2656,27.2344 494.5938,26.7813 494.5938,26.3906 C494.5938,25.9375 494.2031,25.5469 493.7344,25.5469 C493.5156,25.5469 493.3125,25.625 493.125,25.8125 C492.6719,26.2969 492.6719,26.2969 492.4844,26.3906 C492.0625,26.6563 491.375,26.7813 490.6094,26.7813 C488.5625,26.7813 487.2656,25.6875 487.2656,23.9844 L487.2656,22.8906 C487.2656,21.1094 488.5156,19.7969 490.25,19.7969 C490.8281,19.7969 491.4375,19.9531 491.9063,20.2031 C492.3906,20.4844 492.5625,20.7031 492.6563,21.1094 C492.7188,21.5156 492.75,21.6406 492.8906,21.7656 C493.0313,21.9063 493.2656,22.0156 493.4844,22.0156 C493.75,22.0156 494.0156,21.875 494.1875,21.6563 C494.2969,21.5 494.3281,21.3125 494.3281,20.8906 L494.3281,19.4688 C494.3281,19.0313 494.3125,18.9063 494.2188,18.75 C494.0625,18.4844 493.7813,18.3438 493.4844,18.3438 C493.1875,18.3438 492.9844,18.4375 492.7656,18.75 L492.5938,18.6719 Z " fill="#000000"/><text fill="#000000" font-family="sans-serif" font-size="14" lengthAdjust="spacing" textLength="48" x="510.75" y="27.8467">Usager</text><line style="stroke:#181818;stroke-width:0.5;" x1="384" x2="653" y1="39" y2="39"/><text fill="#000000" font-family="sans-serif" font-size="14" lengthAdjust="spacing" textLength="241" x="389" y="55.9951">numeroIndividu : Identifiant [0..1]</text><text fill="#000000" font-family="sans-serif" font-size="14" lengthAdjust="spacing" textLength="101" x="389" y="72.292">INS : INS [0..1]</text><text fill="#000000" font-family="sans-serif" font-size="14" lengthAdjust="spacing" textLength="199" x="389" y="88.5889">nomNaissance : Texte [0..1]</text><text fill="#000000" font-family="sans-serif" font-size="14" lengthAdjust="spacing" textLength="171" x="389" y="104.8857">nomUsage : Texte [0..1]</text><text fill="#000000" font-family="sans-serif" font-size="14" lengthAdjust="spacing" textLength="152" x="389" y="121.1826">prenom : Texte [0..*]</text><text fill="#000000" font-family="sans-serif" font-size="14" lengthAdjust="spacing" textLength="125" x="389" y="137.4795">sexe : Code [0..1]</text><text fill="#000000" font-family="sans-serif" font-size="14" lengthAdjust="spacing" textLength="140" x="389" y="153.7764">civilite : Code [0..1]</text><text fill="#000000" font-family="sans-serif" font-size="14" lengthAdjust="spacing" textLength="218" x="389" y="170.0732">situationFamiliale : Code [0..1]</text><text fill="#000000" font-family="sans-serif" font-size="14" lengthAdjust="spacing" textLength="202" x="389" y="186.3701">paysNationalite : Code [0..*]</text><text fill="#000000" font-family="sans-serif" font-size="14" lengthAdjust="spacing" textLength="182" x="389" y="202.667">langueParlee : Code [0..*]</text><text fill="#000000" font-family="sans-serif" font-size="14" lengthAdjust="spacing" textLength="193" x="389" y="218.9639">dateNaissance : Date [0..1]</text><text fill="#000000" font-family="sans-serif" font-size="14" lengthAdjust="spacing" textLength="201" x="389" y="235.2607">rangTotal : Numerique [0..1]</text><text fill="#000000" font-family="sans-serif" font-size="14" lengthAdjust="spacing" textLength="233" x="389" y="251.5576">communeNaissance : Code [0..1]</text><text fill="#000000" font-family="sans-serif" font-size="14" lengthAdjust="spacing" textLength="259" x="389" y="267.8545">departementNaissance : Code [0..1]</text><text fill="#000000" font-family="sans-serif" font-size="14" lengthAdjust="spacing" textLength="195" x="389" y="284.1514">paysNaissance : Code [0..1]</text><text fill="#000000" font-family="sans-serif" font-size="14" lengthAdjust="spacing" textLength="167" x="389" y="300.4482">dateDeces : Date [0..1]</text><text fill="#000000" font-family="sans-serif" font-size="14" lengthAdjust="spacing" textLength="196" x="389" y="316.7451">causeMortalite : Code [0..*]</text><text fill="#000000" font-family="sans-serif" font-size="14" lengthAdjust="spacing" textLength="207" x="389" y="333.042">communeDeces : Code [0..1]</text><text fill="#000000" font-family="sans-serif" font-size="14" lengthAdjust="spacing" textLength="233" x="389" y="349.3389">departementDeces : Code [0..1]</text><text fill="#000000" font-family="sans-serif" font-size="14" lengthAdjust="spacing" textLength="169" x="389" y="365.6357">paysDeces : Code [0..1]</text><text fill="#000000" font-family="sans-serif" font-size="14" lengthAdjust="spacing" textLength="188" x="389" y="381.9326">photo : ObjetBinaire [0..*]</text><text fill="#000000" font-family="sans-serif" font-size="14" lengthAdjust="spacing" textLength="194" x="389" y="398.2295">commentaire : Texte [0..1]</text></g><!--class Adresse--><g id="elem_Adresse"><rect codeLine="28" fill="#98FB98" height="202.9688" id="Adresse" rx="2.5" ry="2.5" style="stroke:#181818;stroke-width:0.5;" width="341" x="7" y="105"/><ellipse cx="144.75" cy="121" fill="#ADD1B2" rx="11" ry="11" style="stroke:#181818;stroke-width:1.0;"/><path d="M147.0938,116.6719 C146.1563,116.2344 145.5625,116.0938 144.6875,116.0938 C142.0625,116.0938 140.0625,118.1719 140.0625,120.8906 L140.0625,122.0156 C140.0625,124.5938 142.1719,126.4844 145.0625,126.4844 C146.2813,126.4844 147.4375,126.1875 148.1875,125.6406 C148.7656,125.2344 149.0938,124.7813 149.0938,124.3906 C149.0938,123.9375 148.7031,123.5469 148.2344,123.5469 C148.0156,123.5469 147.8125,123.625 147.625,123.8125 C147.1719,124.2969 147.1719,124.2969 146.9844,124.3906 C146.5625,124.6563 145.875,124.7813 145.1094,124.7813 C143.0625,124.7813 141.7656,123.6875 141.7656,121.9844 L141.7656,120.8906 C141.7656,119.1094 143.0156,117.7969 144.75,117.7969 C145.3281,117.7969 145.9375,117.9531 146.4063,118.2031 C146.8906,118.4844 147.0625,118.7031 147.1563,119.1094 C147.2188,119.5156 147.25,119.6406 147.3906,119.7656 C147.5313,119.9063 147.7656,120.0156 147.9844,120.0156 C148.25,120.0156 148.5156,119.875 148.6875,119.6563 C148.7969,119.5 148.8281,119.3125 148.8281,118.8906 L148.8281,117.4688 C148.8281,117.0313 148.8125,116.9063 148.7188,116.75 C148.5625,116.4844 148.2813,116.3438 147.9844,116.3438 C147.6875,116.3438 147.4844,116.4375 147.2656,116.75 L147.0938,116.6719 Z " fill="#000000"/><text fill="#000000" font-family="sans-serif" font-size="14" lengthAdjust="spacing" textLength="57" x="165.25" y="125.8467">Adresse</text><line style="stroke:#181818;stroke-width:0.5;" x1="8" x2="347" y1="137" y2="137"/><text fill="#000000" font-family="sans-serif" font-size="14" lengthAdjust="spacing" textLength="201" x="13" y="153.9951">idAdresse : Identifiant [1..1]</text><text fill="#000000" font-family="sans-serif" font-size="14" lengthAdjust="spacing" textLength="126" x="13" y="170.292">type : Code [0..1]</text><text fill="#000000" font-family="sans-serif" font-size="14" lengthAdjust="spacing" textLength="184" x="13" y="186.5889">numeroVoie : Texte [0..1]</text><text fill="#000000" font-family="sans-serif" font-size="14" lengthAdjust="spacing" textLength="173" x="13" y="202.8857">libelleVoie : Texte [0..1]</text><text fill="#000000" font-family="sans-serif" font-size="14" lengthAdjust="spacing" textLength="329" x="13" y="219.1826">complementPointGeographique : Texte [0..1]</text><text fill="#000000" font-family="sans-serif" font-size="14" lengthAdjust="spacing" textLength="244" x="13" y="235.4795">mentionDistribution : Texte [0..1]</text><text fill="#000000" font-family="sans-serif" font-size="14" lengthAdjust="spacing" textLength="171" x="13" y="251.7764">codePostal : Code [0..1]</text><text fill="#000000" font-family="sans-serif" font-size="14" lengthAdjust="spacing" textLength="150" x="13" y="268.0732">localite : Texte [0..1]</text><text fill="#000000" font-family="sans-serif" font-size="14" lengthAdjust="spacing" textLength="125" x="13" y="284.3701">pays : Code [0..1]</text><text fill="#000000" font-family="sans-serif" font-size="14" lengthAdjust="spacing" textLength="194" x="13" y="300.667">commentaire : Texte [0..1]</text></g><!--class Telecommunication--><g id="elem_Telecommunication"><rect codeLine="41" fill="#98FB98" height="88.8906" id="Telecommunication" rx="2.5" ry="2.5" style="stroke:#181818;stroke-width:0.5;" width="226" x="689.5" y="162"/><ellipse cx="727.9" cy="178" fill="#ADD1B2" rx="11" ry="11" style="stroke:#181818;stroke-width:1.0;"/><path d="M730.2438,173.6719 C729.3063,173.2344 728.7125,173.0938 727.8375,173.0938 C725.2125,173.0938 723.2125,175.1719 723.2125,177.8906 L723.2125,179.0156 C723.2125,181.5938 725.3219,183.4844 728.2125,183.4844 C729.4313,183.4844 730.5875,183.1875 731.3375,182.6406 C731.9156,182.2344 732.2438,181.7813 732.2438,181.3906 C732.2438,180.9375 731.8531,180.5469 731.3844,180.5469 C731.1656,180.5469 730.9625,180.625 730.775,180.8125 C730.3219,181.2969 730.3219,181.2969 730.1344,181.3906 C729.7125,181.6563 729.025,181.7813 728.2594,181.7813 C726.2125,181.7813 724.9156,180.6875 724.9156,178.9844 L724.9156,177.8906 C724.9156,176.1094 726.1656,174.7969 727.9,174.7969 C728.4781,174.7969 729.0875,174.9531 729.5563,175.2031 C730.0406,175.4844 730.2125,175.7031 730.3063,176.1094 C730.3688,176.5156 730.4,176.6406 730.5406,176.7656 C730.6813,176.9063 730.9156,177.0156 731.1344,177.0156 C731.4,177.0156 731.6656,176.875 731.8375,176.6563 C731.9469,176.5 731.9781,176.3125 731.9781,175.8906 L731.9781,174.4688 C731.9781,174.0313 731.9625,173.9063 731.8688,173.75 C731.7125,173.4844 731.4313,173.3438 731.1344,173.3438 C730.8375,173.3438 730.6344,173.4375 730.4156,173.75 L730.2438,173.6719 Z " fill="#000000"/><text fill="#000000" font-family="sans-serif" font-size="14" lengthAdjust="spacing" textLength="142" x="747.1" y="182.8467">Telecommunication</text><line style="stroke:#181818;stroke-width:0.5;" x1="690.5" x2="914.5" y1="194" y2="194"/><text fill="#000000" font-family="sans-serif" font-size="14" lengthAdjust="spacing" textLength="129" x="695.5" y="210.9951">canal : Code [0..1]</text><text fill="#000000" font-family="sans-serif" font-size="14" lengthAdjust="spacing" textLength="214" x="695.5" y="227.292">adresseTelecom : Texte [0..1]</text><text fill="#000000" font-family="sans-serif" font-size="14" lengthAdjust="spacing" textLength="168" x="695.5" y="243.5889">utilisation : Texte [0..1]</text></g><!--class Courrier--><g id="elem_Courrier"><rect codeLine="47" fill="#98FB98" height="105.1875" id="Courrier" rx="2.5" ry="2.5" style="stroke:#181818;stroke-width:0.5;" width="279" x="379" y="466"/><ellipse cx="485.25" cy="482" fill="#ADD1B2" rx="11" ry="11" style="stroke:#181818;stroke-width:1.0;"/><path d="M487.5938,477.6719 C486.6563,477.2344 486.0625,477.0938 485.1875,477.0938 C482.5625,477.0938 480.5625,479.1719 480.5625,481.8906 L480.5625,483.0156 C480.5625,485.5938 482.6719,487.4844 485.5625,487.4844 C486.7813,487.4844 487.9375,487.1875 488.6875,486.6406 C489.2656,486.2344 489.5938,485.7813 489.5938,485.3906 C489.5938,484.9375 489.2031,484.5469 488.7344,484.5469 C488.5156,484.5469 488.3125,484.625 488.125,484.8125 C487.6719,485.2969 487.6719,485.2969 487.4844,485.3906 C487.0625,485.6563 486.375,485.7813 485.6094,485.7813 C483.5625,485.7813 482.2656,484.6875 482.2656,482.9844 L482.2656,481.8906 C482.2656,480.1094 483.5156,478.7969 485.25,478.7969 C485.8281,478.7969 486.4375,478.9531 486.9063,479.2031 C487.3906,479.4844 487.5625,479.7031 487.6563,480.1094 C487.7188,480.5156 487.75,480.6406 487.8906,480.7656 C488.0313,480.9063 488.2656,481.0156 488.4844,481.0156 C488.75,481.0156 489.0156,480.875 489.1875,480.6563 C489.2969,480.5 489.3281,480.3125 489.3281,479.8906 L489.3281,478.4688 C489.3281,478.0313 489.3125,477.9063 489.2188,477.75 C489.0625,477.4844 488.7813,477.3438 488.4844,477.3438 C488.1875,477.3438 487.9844,477.4375 487.7656,477.75 L487.5938,477.6719 Z " fill="#000000"/><text fill="#000000" font-family="sans-serif" font-size="14" lengthAdjust="spacing" textLength="58" x="505.75" y="486.8467">Courrier</text><line style="stroke:#181818;stroke-width:0.5;" x1="380" x2="657" y1="498" y2="498"/><text fill="#000000" font-family="sans-serif" font-size="14" lengthAdjust="spacing" textLength="184" x="385" y="514.9951">typeCourrier : Code [0..1]</text><text fill="#000000" font-family="sans-serif" font-size="14" lengthAdjust="spacing" textLength="201" x="385" y="531.292">idAdresse : Identifiant [0..1]</text><text fill="#000000" font-family="sans-serif" font-size="14" lengthAdjust="spacing" textLength="230" x="385" y="547.5889">libelleDestinataire : Texte [0..1]</text><text fill="#000000" font-family="sans-serif" font-size="14" lengthAdjust="spacing" textLength="267" x="385" y="563.8857">organismeDomiciliation : Texte [0..1]</text></g><!--link Adresse to Usager--><g id="link_Adresse_Usager"><path codeLine="54" d="M348.333,206.5 C359.855,206.5 371.376,206.5 382.898,206.5 " fill="none" id="Adresse-Usager" style="stroke:#181818;stroke-width:1.0;"/><text fill="#000000" font-family="sans-serif" font-size="13" lengthAdjust="spacing" textLength="7" x="356.2325" y="203.2308">*</text><text fill="#000000" font-family="sans-serif" font-size="13" lengthAdjust="spacing" textLength="8" x="366.8273" y="203.1507">1</text></g><!--link Usager to Telecommunication--><g id="link_Usager_Telecommunication"><path codeLine="55" d="M654.121,206.5 C665.906,206.5 677.692,206.5 689.477,206.5 " fill="none" id="Usager-Telecommunication" style="stroke:#181818;stroke-width:1.0;"/><text fill="#000000" font-family="sans-serif" font-size="13" lengthAdjust="spacing" textLength="8" x="662.1928" y="203.1507">1</text><text fill="#000000" font-family="sans-serif" font-size="13" lengthAdjust="spacing" textLength="7" x="674.6481" y="203.0711">*</text></g><!--link Usager to Courrier--><g id="link_Usager_Courrier"><path codeLine="56" d="M518.5,406.021 C518.5,427.904 518.5,448.527 518.5,465.945 " fill="none" id="Usager-Courrier" style="stroke:#181818;stroke-width:1.0;"/><text fill="#000000" font-family="sans-serif" font-size="13" lengthAdjust="spacing" textLength="8" x="510.3563" y="425.5385">1</text><text fill="#000000" font-family="sans-serif" font-size="13" lengthAdjust="spacing" textLength="7" x="511.0297" y="454.9383">*</text></g><!--SRC=[ZLHDRzim3BtdLmZfhK2BvRhRLcD5W2qpi6oNOGT6ucos-l0aUcWmxBzFyaTGstAm78n0xubyVAHOaqA1fk6pCCYrKs6paHf245y3LEZ5pKUgQYx9Fei_6n5_jZNetTug-asg5M_5Ng5b-abWMNn_St-_-z7nzeSl2OpVLuVMcGDG260bHlI8BumplCkRmngF4PuWjpqIy2NTU71gSa56XPeu1mNY5fYS_G0cSa3dI0sSmw5ZmJpCa5Y3hLeimMlCmGeONvTRmBGY7wyV7OEEs27PIh_QQGNEcDPEOin5Acp0CvhOWskqlfOhOQAq0YM6Z4m9RS1FplEQ3OFCyVuLYMkK96yLgnsxUFxvz8JydYoGNsIFeRlZsTZy7OVvdV8O0egRChRwqIFQOPf9ZT1ia7UN_7nkSexrx-2Re-omQZgXrhW6HysDxXmf7Lb-H5TvQEgk_nbw8iOnB2YmfrER_kUZAYnTw0TghbSxEVPl-RIY_Ra7z1_E7b5Ztt-ItLjPUYp1PXL1x_mG8QShLgefGAxUYu07rtfFQLFDywR6NT1b-jNMBxfOOE0uTraZ4itv2Ym5WuKp9DC-ML4y9jpURiMTsEwsmvRT3CisdTnrwCBM2QNdZBNz0m00]--></g></svg>