<?xml version="1.0" encoding="us-ascii" standalone="no"?><svg xmlns="http://www.w3.org/2000/svg" xmlns:xlink="http://www.w3.org/1999/xlink" contentStyleType="text/css" height="446px" preserveAspectRatio="none" style="width:984px;height:446px;background:#FFFFFF;" version="1.1" viewBox="0 0 984 446" width="984px" zoomAndPan="magnify"><defs/><g><!--cluster <<GroupProcessus>>\nTransf?rer des donn?es DUI--><g id="cluster_&lt;&lt;GroupProcessus&gt;&gt;\nTransf&#233;rer des donn&#233;es DUI"><path d="M8.5,6 L232.5,6 A3.75,3.75 0 0 1 235,8.5 L242,44.5938 L670.5,44.5938 A2.5,2.5 0 0 1 673,47.0938 L673,436.5 A2.5,2.5 0 0 1 670.5,439 L8.5,439 A2.5,2.5 0 0 1 6,436.5 L6,8.5 A2.5,2.5 0 0 1 8.5,6 " fill="#FFFAF0" style="stroke:#000000;stroke-width:1.5;"/><line style="stroke:#000000;stroke-width:1.5;" x1="6" x2="242" y1="44.5938" y2="44.5938"/><text fill="#000000" font-family="sans-serif" font-size="14" font-weight="bold" lengthAdjust="spacing" textLength="149" x="47" y="20.9951">&#171;GroupProcessus&#187;</text><text fill="#000000" font-family="sans-serif" font-size="14" font-weight="bold" lengthAdjust="spacing" textLength="223" x="10" y="37.292">Transf&#233;rer des donn&#233;es DUI</text></g><!--cluster transfertSI--><g id="cluster_transfertSI"><path d="M40.5,252 L386.5,252 A3.75,3.75 0 0 1 389,254.5 L396,290.5938 L638.5,290.5938 A2.5,2.5 0 0 1 641,293.0938 L641,404.5 A2.5,2.5 0 0 1 638.5,407 L40.5,407 A2.5,2.5 0 0 1 38,404.5 L38,254.5 A2.5,2.5 0 0 1 40.5,252 " fill="#FFE4B5" style="stroke:#000000;stroke-width:1.5;"/><line style="stroke:#000000;stroke-width:1.5;" x1="38" x2="396" y1="290.5938" y2="290.5938"/><text fill="#000000" font-family="sans-serif" font-size="14" font-weight="bold" lengthAdjust="spacing" textLength="149" x="140" y="266.9951">&#171;GroupProcessus&#187;</text><text fill="#000000" font-family="sans-serif" font-size="14" font-weight="bold" lengthAdjust="spacing" textLength="345" x="42" y="283.292">Transf&#233;rer les donn&#233;es DUI vers un SI tiers</text></g><!--cluster portabilite--><g id="cluster_portabilite"><path d="M40.5,73 L256.5,73 A3.75,3.75 0 0 1 259,75.5 L266,111.5938 L561.5,111.5938 A2.5,2.5 0 0 1 564,114.0938 L564,209.5 A2.5,2.5 0 0 1 561.5,212 L40.5,212 A2.5,2.5 0 0 1 38,209.5 L38,75.5 A2.5,2.5 0 0 1 40.5,73 " fill="#FFE4B5" style="stroke:#000000;stroke-width:1.5;"/><line style="stroke:#000000;stroke-width:1.5;" x1="38" x2="266" y1="111.5938" y2="111.5938"/><text fill="#000000" font-family="sans-serif" font-size="14" font-weight="bold" lengthAdjust="spacing" textLength="149" x="75" y="87.9951">&#171;GroupProcessus&#187;</text><text fill="#000000" font-family="sans-serif" font-size="14" font-weight="bold" lengthAdjust="spacing" textLength="215" x="42" y="104.292">Portabilit&#233; de donn&#233;es DUI</text></g><!--cluster <<GroupProcessus>>\nSuivi des d?cisions d'orientation--><g id="cluster_&lt;&lt;GroupProcessus&gt;&gt;\nSuivi des d&#233;cisions d'orientation"><path d="M699.5,81 L964.5,81 A3.75,3.75 0 0 1 967,83.5 L974,119.5938 L974.5,119.5938 A2.5,2.5 0 0 1 977,122.0938 L977,388.5 A2.5,2.5 0 0 1 974.5,391 L699.5,391 A2.5,2.5 0 0 1 697,388.5 L697,83.5 A2.5,2.5 0 0 1 699.5,81 " fill="#FFFAF0" style="stroke:#000000;stroke-width:1.5;"/><line style="stroke:#000000;stroke-width:1.5;" x1="697" x2="974" y1="119.5938" y2="119.5938"/><text fill="#000000" font-family="sans-serif" font-size="14" font-weight="bold" lengthAdjust="spacing" textLength="149" x="758.5" y="95.9951">&#171;GroupProcessus&#187;</text><text fill="#000000" font-family="sans-serif" font-size="14" font-weight="bold" lengthAdjust="spacing" textLength="264" x="701" y="112.292">Suivi des d&#233;cisions d'orientation</text></g><!--entity <<GroupProcessus>>\nTransf?rer des donn?es\nDUI vers d'autres SI--><g id="elem_&lt;&lt;GroupProcessus&gt;&gt;\nTransf&#233;rer des donn&#233;es\nDUI vers d'autres SI"><path d="M386,311 L590,311 A3.75,3.75 0 0 1 592.5,313.5 L599.5,365.8906 L614,365.8906 A2.5,2.5 0 0 1 616.5,368.3906 L616.5,380.3906 A2.5,2.5 0 0 1 614,382.8906 L386,382.8906 A2.5,2.5 0 0 1 383.5,380.3906 L383.5,313.5 A2.5,2.5 0 0 1 386,311 " fill="#FFE4B5" style="stroke:#181818;stroke-width:0.5;"/><line style="stroke:#181818;stroke-width:0.5;" x1="383.5" x2="599.5" y1="365.8906" y2="365.8906"/><text fill="#000000" font-family="sans-serif" font-size="14" font-weight="bold" lengthAdjust="spacing" textLength="149" x="414.5" y="326.9951">&#171;GroupProcessus&#187;</text><text fill="#000000" font-family="sans-serif" font-size="14" font-weight="bold" lengthAdjust="spacing" textLength="191" x="393.5" y="343.292">Transf&#233;rer des donn&#233;es</text><text fill="#000000" font-family="sans-serif" font-size="14" font-weight="bold" lengthAdjust="spacing" textLength="158" x="410" y="359.5889">DUI vers d'autres SI</text></g><!--entity <<Processus>>\nTransf?rer les donn?es d'un\nlogiciel DUI vers SIDOBA--><g id="elem_&lt;&lt;Processus&gt;&gt;\nTransf&#233;rer les donn&#233;es d'un\nlogiciel DUI vers SIDOBA"><path d="M84,311 L322,311 A3.75,3.75 0 0 1 324.5,313.5 L331.5,365.8906 L346,365.8906 A2.5,2.5 0 0 1 348.5,368.3906 L348.5,380.3906 A2.5,2.5 0 0 1 346,382.8906 L84,382.8906 A2.5,2.5 0 0 1 81.5,380.3906 L81.5,313.5 A2.5,2.5 0 0 1 84,311 " fill="#ADD8E6" style="stroke:#181818;stroke-width:0.5;"/><line style="stroke:#181818;stroke-width:0.5;" x1="81.5" x2="331.5" y1="365.8906" y2="365.8906"/><text fill="#000000" font-family="sans-serif" font-size="14" font-weight="bold" lengthAdjust="spacing" textLength="100" x="154" y="326.9951">&#171;Processus&#187;</text><text fill="#000000" font-family="sans-serif" font-size="14" font-weight="bold" lengthAdjust="spacing" textLength="225" x="91.5" y="343.292">Transf&#233;rer les donn&#233;es d'un</text><text fill="#000000" font-family="sans-serif" font-size="14" font-weight="bold" lengthAdjust="spacing" textLength="194" x="107" y="359.5889">logiciel DUI vers SIDOBA</text></g><!--entity <<Processus>>\nChanger d'ESMS--><g id="elem_&lt;&lt;Processus&gt;&gt;\nChanger d'ESMS"><path d="M372.5,132 L513.5,132 A3.75,3.75 0 0 1 516,134.5 L523,170.5938 L537.5,170.5938 A2.5,2.5 0 0 1 540,173.0938 L540,185.0938 A2.5,2.5 0 0 1 537.5,187.5938 L372.5,187.5938 A2.5,2.5 0 0 1 370,185.0938 L370,134.5 A2.5,2.5 0 0 1 372.5,132 " fill="#ADD8E6" style="stroke:#181818;stroke-width:0.5;"/><line style="stroke:#181818;stroke-width:0.5;" x1="370" x2="523" y1="170.5938" y2="170.5938"/><text fill="#000000" font-family="sans-serif" font-size="14" font-weight="bold" lengthAdjust="spacing" textLength="100" x="394" y="147.9951">&#171;Processus&#187;</text><text fill="#000000" font-family="sans-serif" font-size="14" font-weight="bold" lengthAdjust="spacing" textLength="128" x="380" y="164.292">Changer d'ESMS</text></g><!--entity <<Processus>>\nChanger de logiciel m?tier--><g id="elem_&lt;&lt;Processus&gt;&gt;\nChanger de logiciel m&#233;tier"><path d="M84,132 L308,132 A3.75,3.75 0 0 1 310.5,134.5 L317.5,170.5938 L332,170.5938 A2.5,2.5 0 0 1 334.5,173.0938 L334.5,185.0938 A2.5,2.5 0 0 1 332,187.5938 L84,187.5938 A2.5,2.5 0 0 1 81.5,185.0938 L81.5,134.5 A2.5,2.5 0 0 1 84,132 " fill="#ADD8E6" style="stroke:#181818;stroke-width:0.5;"/><line style="stroke:#181818;stroke-width:0.5;" x1="81.5" x2="317.5" y1="170.5938" y2="170.5938"/><text fill="#000000" font-family="sans-serif" font-size="14" font-weight="bold" lengthAdjust="spacing" textLength="100" x="147" y="147.9951">&#171;Processus&#187;</text><text fill="#000000" font-family="sans-serif" font-size="14" font-weight="bold" lengthAdjust="spacing" textLength="211" x="91.5" y="164.292">Changer de logiciel m&#233;tier</text></g><!--entity <<GroupProcessus>>\nSI-ESMS--><g id="elem_&lt;&lt;GroupProcessus&gt;&gt;\nSI-ESMS"><path d="M744,319 L906,319 A3.75,3.75 0 0 1 908.5,321.5 L915.5,357.5938 L930,357.5938 A2.5,2.5 0 0 1 932.5,360.0938 L932.5,372.0938 A2.5,2.5 0 0 1 930,374.5938 L744,374.5938 A2.5,2.5 0 0 1 741.5,372.0938 L741.5,321.5 A2.5,2.5 0 0 1 744,319 " fill="#FFFAF0" style="stroke:#181818;stroke-width:0.5;"/><line style="stroke:#181818;stroke-width:0.5;" x1="741.5" x2="915.5" y1="357.5938" y2="357.5938"/><text fill="#000000" font-family="sans-serif" font-size="14" font-weight="bold" lengthAdjust="spacing" textLength="149" x="751.5" y="334.9951">&#171;GroupProcessus&#187;</text><text fill="#000000" font-family="sans-serif" font-size="14" font-weight="bold" lengthAdjust="spacing" textLength="64" x="794" y="351.292">SI-ESMS</text></g><!--entity <<GroupProcessus>>\nSI-SdO--><g id="elem_&lt;&lt;GroupProcessus&gt;&gt;\nSI-SdO"><path d="M744,132 L906,132 A3.75,3.75 0 0 1 908.5,134.5 L915.5,170.5938 L930,170.5938 A2.5,2.5 0 0 1 932.5,173.0938 L932.5,185.0938 A2.5,2.5 0 0 1 930,187.5938 L744,187.5938 A2.5,2.5 0 0 1 741.5,185.0938 L741.5,134.5 A2.5,2.5 0 0 1 744,132 " fill="#FFFAF0" style="stroke:#181818;stroke-width:0.5;"/><line style="stroke:#181818;stroke-width:0.5;" x1="741.5" x2="915.5" y1="170.5938" y2="170.5938"/><text fill="#000000" font-family="sans-serif" font-size="14" font-weight="bold" lengthAdjust="spacing" textLength="149" x="751.5" y="147.9951">&#171;GroupProcessus&#187;</text><text fill="#000000" font-family="sans-serif" font-size="14" font-weight="bold" lengthAdjust="spacing" textLength="53" x="799.5" y="164.292">SI-SdO</text></g><!--link portabilite to transfertSI--><!--link <<GroupProcessus>>\nSI-SdO to <<GroupProcessus>>\nSI-ESMS--><!--SRC=[bLBBJW914BplLtJWm8a_C2GYQZQHG38Q3y1Xt6btEuuzctbmCNpGViV-cBE8k2B2CgUUHrLrLKyfipUP8_Ikhkwj2UNScWoT2suqMlAZbUnUwygY1OKEb66kgrXCdj8UzE-qiL8_5-GHFXA8g-pAfW_OO8tMGM0GANYATG-a0xz5eFNnj3yrMIOTyKxg8hbsyqlUwwc13Dx6Ez7O-HOuHj_DY1e4Nh8sEMM4-iUNI2UpyNMKUA2yy6CTSAknEP_Pt5WlNqYJhwleuc02CQ9o_m3FHVIB-AQGd3V936x5LFnfhHCKOM_rlQwQiHsnk4cIamv5e3Lz3QYkCd9ak0dIM4BsqiVjvJzDfCETgnQm4qoesG6gwR-LyN1Ha5B8gs7xToQB__bMRSpYHBkhJm00]--></g></svg>