<?xml version="1.0" encoding="us-ascii" standalone="no"?><svg xmlns="http://www.w3.org/2000/svg" xmlns:xlink="http://www.w3.org/1999/xlink" contentStyleType="text/css" height="620px" preserveAspectRatio="none" style="width:1238px;height:620px;background:#FFFFFF;" version="1.1" viewBox="0 0 1238 620" width="1238px" zoomAndPan="magnify"><defs/><g><!--cluster id--><g id="cluster_id"><path d="M255.5,109.5 L497.5,109.5 A3.75,3.75 0 0 1 500,112 L507,131.7969 L687.5,131.7969 A2.5,2.5 0 0 1 690,134.2969 L690,210 A2.5,2.5 0 0 1 687.5,212.5 L255.5,212.5 A2.5,2.5 0 0 1 253,210 L253,112 A2.5,2.5 0 0 1 255.5,109.5 " fill="#98FB98" style="stroke:#000000;stroke-width:1.5;"/><line style="stroke:#000000;stroke-width:1.5;" x1="253" x2="507" y1="131.7969" y2="131.7969"/><text fill="#000000" font-family="sans-serif" font-size="14" font-weight="bold" lengthAdjust="spacing" textLength="241" x="257" y="124.4951">Identification et coordonn&#233;es</text></g><!--cluster Auto--><g id="cluster_Auto"><path d="M724.5,93 L854.5,93 A3.75,3.75 0 0 1 857,95.5 L864,131.5938 L869.5,131.5938 A2.5,2.5 0 0 1 872,134.0938 L872,210.5 A2.5,2.5 0 0 1 869.5,213 L724.5,213 A2.5,2.5 0 0 1 722,210.5 L722,95.5 A2.5,2.5 0 0 1 724.5,93 " fill="#FFDAB9" style="stroke:#000000;stroke-width:1.5;"/><line style="stroke:#000000;stroke-width:1.5;" x1="722" x2="864" y1="131.5938" y2="131.5938"/><text fill="#000000" font-family="sans-serif" font-size="14" font-weight="bold" lengthAdjust="spacing" textLength="112" x="734.5" y="107.9951">Autorisations</text><text fill="#000000" font-family="sans-serif" font-size="14" font-weight="bold" lengthAdjust="spacing" textLength="129" x="726" y="124.292">administratives</text></g><!--cluster Droit--><g id="cluster_Droit"><path d="M642.5,396 L857.5,396 A3.75,3.75 0 0 1 860,398.5 L867,418.2969 L1228.5,418.2969 A2.5,2.5 0 0 1 1231,420.7969 L1231,610.5 A2.5,2.5 0 0 1 1228.5,613 L642.5,613 A2.5,2.5 0 0 1 640,610.5 L640,398.5 A2.5,2.5 0 0 1 642.5,396 " fill="#FFFFE0" style="stroke:#000000;stroke-width:1.5;"/><line style="stroke:#000000;stroke-width:1.5;" x1="640" x2="867" y1="418.2969" y2="418.2969"/><text fill="#000000" font-family="sans-serif" font-size="14" font-weight="bold" lengthAdjust="spacing" textLength="214" x="644" y="410.9951">Droits sociaux et de sant&#233;</text></g><!--cluster S?jours--><g id="cluster_S&#233;jours"><path d="M898.5,6 L959.5,6 A3.75,3.75 0 0 1 962,8.5 L969,28.2969 L1215.5,28.2969 A2.5,2.5 0 0 1 1218,30.7969 L1218,369.5 A2.5,2.5 0 0 1 1215.5,372 L898.5,372 A2.5,2.5 0 0 1 896,369.5 L896,8.5 A2.5,2.5 0 0 1 898.5,6 " fill="#D8BFD8" style="stroke:#000000;stroke-width:1.5;"/><line style="stroke:#000000;stroke-width:1.5;" x1="896" x2="969" y1="28.2969" y2="28.2969"/><text fill="#000000" font-family="sans-serif" font-size="14" font-weight="bold" lengthAdjust="spacing" textLength="60" x="900" y="20.9951">S&#233;jours</text></g><!--cluster Env--><g id="cluster_Env"><path d="M8.5,252.5 L130.5,252.5 A3.75,3.75 0 0 1 133,255 L140,291.0938 L605.5,291.0938 A2.5,2.5 0 0 1 608,293.5938 L608,497 A2.5,2.5 0 0 1 605.5,499.5 L8.5,499.5 A2.5,2.5 0 0 1 6,497 L6,255 A2.5,2.5 0 0 1 8.5,252.5 " fill="#ADD8E6" style="stroke:#000000;stroke-width:1.5;"/><line style="stroke:#000000;stroke-width:1.5;" x1="6" x2="140" y1="291.0938" y2="291.0938"/><text fill="#000000" font-family="sans-serif" font-size="14" font-weight="bold" lengthAdjust="spacing" textLength="121" x="10" y="267.4951">Environnement</text><text fill="#000000" font-family="sans-serif" font-size="14" font-weight="bold" lengthAdjust="spacing" textLength="110" x="15.5" y="283.792">et ressources</text></g><g id="elem_Courrier"><rect fill="#98FB98" height="36.2969" style="stroke:#181818;stroke-width:0.5;" width="72" x="487" y="152.5"/><text fill="#000000" font-family="sans-serif" font-size="14" lengthAdjust="spacing" textLength="58" x="494" y="167.4951">Courrier</text><line style="stroke:#181818;stroke-width:0.5;" x1="488" x2="558" y1="172.7969" y2="172.7969"/></g><g id="elem_Adresse"><rect fill="#98FB98" height="36.2969" style="stroke:#181818;stroke-width:0.5;" width="71" x="594.5" y="152.5"/><text fill="#000000" font-family="sans-serif" font-size="14" lengthAdjust="spacing" textLength="57" x="601.5" y="167.4951">Adresse</text><line style="stroke:#181818;stroke-width:0.5;" x1="595.5" x2="664.5" y1="172.7969" y2="172.7969"/></g><g id="elem_T&#233;l&#233;communication"><rect fill="#98FB98" height="36.2969" style="stroke:#181818;stroke-width:0.5;" width="156" x="296" y="152.5"/><text fill="#000000" font-family="sans-serif" font-size="14" lengthAdjust="spacing" textLength="142" x="303" y="167.4951">T&#233;l&#233;communication</text><line style="stroke:#181818;stroke-width:0.5;" x1="297" x2="451" y1="172.7969" y2="172.7969"/></g><g id="elem_auto"><rect fill="#FFDAB9" height="52.5938" style="stroke:#181818;stroke-width:0.5;" width="118" x="738" y="144"/><text fill="#000000" font-family="sans-serif" font-size="14" lengthAdjust="spacing" textLength="88" x="753" y="158.9951">Autorisation</text><text fill="#000000" font-family="sans-serif" font-size="14" lengthAdjust="spacing" textLength="104" x="745" y="175.292">administrative</text><line style="stroke:#181818;stroke-width:0.5;" x1="739" x2="855" y1="180.5938" y2="180.5938"/></g><g id="elem_assC"><rect fill="#FFFFE0" height="52.5938" style="stroke:#181818;stroke-width:0.5;" width="146" x="656" y="544"/><text fill="#000000" font-family="sans-serif" font-size="14" lengthAdjust="spacing" textLength="132" x="663" y="558.9951">Assurance maladie</text><text fill="#000000" font-family="sans-serif" font-size="14" lengthAdjust="spacing" textLength="120" x="669" y="575.292">compl&#233;mentaire</text><line style="stroke:#181818;stroke-width:0.5;" x1="657" x2="801" y1="580.5938" y2="580.5938"/></g><g id="elem_assO"><rect fill="#FFFFE0" height="36.2969" style="stroke:#181818;stroke-width:0.5;" width="229" x="703.5" y="439.5"/><text fill="#000000" font-family="sans-serif" font-size="14" lengthAdjust="spacing" textLength="215" x="710.5" y="454.4951">Assurance maladie obligatoire</text><line style="stroke:#181818;stroke-width:0.5;" x1="704.5" x2="931.5" y1="459.7969" y2="459.7969"/></g><g id="elem_D&#233;cision"><rect fill="#FFFFE0" height="36.2969" style="stroke:#181818;stroke-width:0.5;" width="75" x="967.5" y="439.5"/><text fill="#000000" font-family="sans-serif" font-size="14" lengthAdjust="spacing" textLength="61" x="974.5" y="454.4951">D&#233;cision</text><line style="stroke:#181818;stroke-width:0.5;" x1="968.5" x2="1041.5" y1="459.7969" y2="459.7969"/></g><g id="elem_presta"><rect fill="#FFFFE0" height="52.5938" style="stroke:#181818;stroke-width:0.5;" width="90" x="1078" y="431"/><text fill="#000000" font-family="sans-serif" font-size="14" lengthAdjust="spacing" textLength="37" x="1104.5" y="445.9951">Droit</text><text fill="#000000" font-family="sans-serif" font-size="14" lengthAdjust="spacing" textLength="76" x="1085" y="462.292">prestation</text><line style="stroke:#181818;stroke-width:0.5;" x1="1079" x2="1167" y1="467.5938" y2="467.5938"/></g><g id="elem_detail"><rect fill="#FFFFE0" height="52.5938" style="stroke:#181818;stroke-width:0.5;" width="90" x="1125" y="544"/><text fill="#000000" font-family="sans-serif" font-size="14" lengthAdjust="spacing" textLength="43" x="1148.5" y="558.9951">D&#233;tail</text><text fill="#000000" font-family="sans-serif" font-size="14" lengthAdjust="spacing" textLength="76" x="1132" y="575.292">prestation</text><line style="stroke:#181818;stroke-width:0.5;" x1="1126" x2="1214" y1="580.5938" y2="580.5938"/></g><g id="elem_pc"><rect fill="#FFFFE0" height="36.2969" style="stroke:#181818;stroke-width:0.5;" width="102" x="988" y="552.5"/><text fill="#000000" font-family="sans-serif" font-size="14" lengthAdjust="spacing" textLength="88" x="995" y="567.4951">Prise charge</text><line style="stroke:#181818;stroke-width:0.5;" x1="989" x2="1089" y1="572.7969" y2="572.7969"/></g><g id="elem_Quantification"><rect fill="#FFFFE0" height="36.2969" style="stroke:#181818;stroke-width:0.5;" width="116" x="837" y="552.5"/><text fill="#000000" font-family="sans-serif" font-size="14" lengthAdjust="spacing" textLength="102" x="844" y="567.4951">Quantification</text><line style="stroke:#181818;stroke-width:0.5;" x1="838" x2="952" y1="572.7969" y2="572.7969"/></g><g id="elem_S&#233;jour"><rect fill="#D8BFD8" height="36.2969" style="stroke:#181818;stroke-width:0.5;" width="59" x="1010.5" y="152.5"/><text fill="#000000" font-family="sans-serif" font-size="14" lengthAdjust="spacing" textLength="45" x="1017.5" y="167.4951">S&#233;jour</text><line style="stroke:#181818;stroke-width:0.5;" x1="1011.5" x2="1068.5" y1="172.7969" y2="172.7969"/></g><g id="elem_Solde"><rect fill="#D8BFD8" height="36.2969" style="stroke:#181818;stroke-width:0.5;" width="54" x="921" y="152.5"/><text fill="#000000" font-family="sans-serif" font-size="14" lengthAdjust="spacing" textLength="40" x="928" y="167.4951">Solde</text><line style="stroke:#181818;stroke-width:0.5;" x1="922" x2="974" y1="172.7969" y2="172.7969"/></g><g id="elem_R&#233;servation"><rect fill="#D8BFD8" height="36.2969" style="stroke:#181818;stroke-width:0.5;" width="100" x="970" y="320"/><text fill="#000000" font-family="sans-serif" font-size="14" lengthAdjust="spacing" textLength="86" x="977" y="334.9951">R&#233;servation</text><line style="stroke:#181818;stroke-width:0.5;" x1="971" x2="1069" y1="340.2969" y2="340.2969"/></g><g id="elem_Inventaire"><rect fill="#D8BFD8" height="36.2969" style="stroke:#181818;stroke-width:0.5;" width="87" x="1114.5" y="41"/><text fill="#000000" font-family="sans-serif" font-size="14" lengthAdjust="spacing" textLength="73" x="1121.5" y="55.9951">Inventaire</text><line style="stroke:#181818;stroke-width:0.5;" x1="1115.5" x2="1200.5" y1="61.2969" y2="61.2969"/></g><g id="elem_ESSMS"><rect fill="#D8BFD8" height="36.2969" style="stroke:#181818;stroke-width:0.5;" width="62" x="1017" y="41"/><text fill="#000000" font-family="sans-serif" font-size="14" lengthAdjust="spacing" textLength="48" x="1024" y="55.9951">ESSMS</text><line style="stroke:#181818;stroke-width:0.5;" x1="1018" x2="1078" y1="61.2969" y2="61.2969"/></g><g id="elem_Contrat"><rect fill="#D8BFD8" height="36.2969" style="stroke:#181818;stroke-width:0.5;" width="70" x="912" y="41"/><text fill="#000000" font-family="sans-serif" font-size="14" lengthAdjust="spacing" textLength="56" x="919" y="55.9951">Contrat</text><line style="stroke:#181818;stroke-width:0.5;" x1="913" x2="981" y1="61.2969" y2="61.2969"/></g><g id="elem_contactM"><rect fill="#ADD8E6" height="52.5938" style="stroke:#181818;stroke-width:0.5;" width="144" x="440" y="311.5"/><text fill="#000000" font-family="sans-serif" font-size="14" lengthAdjust="spacing" textLength="130" x="447" y="326.4951">Contact personne</text><text fill="#000000" font-family="sans-serif" font-size="14" lengthAdjust="spacing" textLength="50" x="487" y="342.792">morale</text><line style="stroke:#181818;stroke-width:0.5;" x1="441" x2="583" y1="348.0938" y2="348.0938"/></g><g id="elem_contactP"><rect fill="#ADD8E6" height="52.5938" style="stroke:#181818;stroke-width:0.5;" width="144" x="261" y="311.5"/><text fill="#000000" font-family="sans-serif" font-size="14" lengthAdjust="spacing" textLength="130" x="268" y="326.4951">Contact personne</text><text fill="#000000" font-family="sans-serif" font-size="14" lengthAdjust="spacing" textLength="64" x="301" y="342.792">physique</text><line style="stroke:#181818;stroke-width:0.5;" x1="262" x2="404" y1="348.0938" y2="348.0938"/></g><g id="elem_permis"><rect fill="#ADD8E6" height="36.2969" style="stroke:#181818;stroke-width:0.5;" width="129" x="38.5" y="439.5"/><text fill="#000000" font-family="sans-serif" font-size="14" lengthAdjust="spacing" textLength="115" x="45.5" y="454.4951">Permis conduire</text><line style="stroke:#181818;stroke-width:0.5;" x1="39.5" x2="166.5" y1="459.7969" y2="459.7969"/></g><g id="elem_Transport"><rect fill="#ADD8E6" height="36.2969" style="stroke:#181818;stroke-width:0.5;" width="85" x="202.5" y="439.5"/><text fill="#000000" font-family="sans-serif" font-size="14" lengthAdjust="spacing" textLength="71" x="209.5" y="454.4951">Transport</text><line style="stroke:#181818;stroke-width:0.5;" x1="203.5" x2="286.5" y1="459.7969" y2="459.7969"/></g><g id="elem_cb"><rect fill="#ADD8E6" height="36.2969" style="stroke:#181818;stroke-width:0.5;" width="139" x="444.5" y="439.5"/><text fill="#000000" font-family="sans-serif" font-size="14" lengthAdjust="spacing" textLength="125" x="451.5" y="454.4951">Compte bancaire</text><line style="stroke:#181818;stroke-width:0.5;" x1="445.5" x2="582.5" y1="459.7969" y2="459.7969"/></g><g id="elem_Ressource"><rect fill="#ADD8E6" height="36.2969" style="stroke:#181818;stroke-width:0.5;" width="87" x="322.5" y="439.5"/><text fill="#000000" font-family="sans-serif" font-size="14" lengthAdjust="spacing" textLength="73" x="329.5" y="454.4951">Ressource</text><line style="stroke:#181818;stroke-width:0.5;" x1="323.5" x2="408.5" y1="459.7969" y2="459.7969"/></g><g id="elem_mp"><rect fill="#ADD8E6" height="36.2969" style="stroke:#181818;stroke-width:0.5;" width="147" x="78.5" y="320"/><text fill="#000000" font-family="sans-serif" font-size="14" lengthAdjust="spacing" textLength="133" x="85.5" y="334.9951">Mesure protection</text><line style="stroke:#181818;stroke-width:0.5;" x1="79.5" x2="224.5" y1="340.2969" y2="340.2969"/></g><g id="elem_Usager"><rect fill="#FFB6C1" height="36.2969" style="stroke:#181818;stroke-width:0.5;" width="62" x="632" y="320"/><text fill="#000000" font-family="sans-serif" font-size="14" lengthAdjust="spacing" textLength="48" x="639" y="334.9951">Usager</text><line style="stroke:#181818;stroke-width:0.5;" x1="633" x2="693" y1="340.2969" y2="340.2969"/></g><!--link T?l?communication to Usager--><g id="link_T&#233;l&#233;communication_Usager"><path codeLine="10" d="M395.57,188.6 C413.936,202.095 441.627,220.011 469,228.5 C496.857,237.139 574.924,221.607 600,236.5 C631.516,255.217 649.663,296.494 657.796,319.909 " fill="none" id="T&#233;l&#233;communication-Usager" style="stroke:#181818;stroke-width:1.0;"/><text fill="#000000" font-family="sans-serif" font-size="13" lengthAdjust="spacing" textLength="7" x="394.3298" y="208.8007">*</text><text fill="#000000" font-family="sans-serif" font-size="13" lengthAdjust="spacing" textLength="8" x="628.3122" y="308.7926">1</text></g><!--link Adresse to Usager--><g id="link_Adresse_Usager"><path codeLine="11" d="M633.407,188.588 C639.731,220.302 653.215,287.927 659.562,319.757 " fill="none" id="Adresse-Usager" style="stroke:#181818;stroke-width:1.0;"/><text fill="#000000" font-family="sans-serif" font-size="13" lengthAdjust="spacing" textLength="7" x="626.3774" y="208.7849">*</text></g><!--link Courrier to Usager--><g id="link_Courrier_Usager"><path codeLine="12" d="M535.496,188.568 C545.487,201.145 560.512,217.848 577,228.5 C586.091,234.373 591.536,229.755 600,236.5 C628.184,258.958 647.275,297.675 656.535,319.928 " fill="none" id="Courrier-Usager" style="stroke:#181818;stroke-width:1.0;"/><text fill="#000000" font-family="sans-serif" font-size="13" lengthAdjust="spacing" textLength="7" x="531.3635" y="208.7585">*</text></g><!--link auto to Usager--><g id="link_auto_Usager"><path codeLine="19" d="M776.062,197.359 C748.386,231.542 700.384,290.828 676.836,319.912 " fill="none" id="auto-Usager" style="stroke:#181818;stroke-width:1.0;"/><text fill="#000000" font-family="sans-serif" font-size="13" lengthAdjust="spacing" textLength="7" x="750.3717" y="216.568">*</text><text fill="#000000" font-family="sans-serif" font-size="13" lengthAdjust="spacing" textLength="8" x="671.9712" y="308.7966">1</text></g><!--link Usager to assC--><g id="link_Usager_assC"><path codeLine="34" d="M662.251,356.336 C661.482,388.907 662.839,460.877 686,515.5 C690.304,525.651 697.068,535.4797 703.968,543.9073 " fill="none" id="Usager-assC" style="stroke:#181818;stroke-width:1.0;"/><text fill="#000000" font-family="sans-serif" font-size="13" lengthAdjust="spacing" textLength="8" x="652.7966" y="376.29">1</text><text fill="#000000" font-family="sans-serif" font-size="13" lengthAdjust="spacing" textLength="7" x="680.5508" y="532.7294">*</text></g><!--link Usager to assO--><g id="link_Usager_assO"><path codeLine="35" d="M685.538,356.086 C714.925,378.363 766.034,417.107 795.434,439.394 " fill="none" id="Usager-assO" style="stroke:#181818;stroke-width:1.0;"/><text fill="#000000" font-family="sans-serif" font-size="13" lengthAdjust="spacing" textLength="8" x="683.447" y="376.2823">1</text><text fill="#000000" font-family="sans-serif" font-size="13" lengthAdjust="spacing" textLength="24" x="760.8482" y="428.5939">0..1</text></g><!--link Usager to D?cision--><g id="link_Usager_D&#233;cision"><path codeLine="36" d="M694.235,344.774 C738.902,352.967 823.629,368.274 896,380 C919.95,383.88 928.953,375.93 950,388 C970.904,399.988 986.96,423.271 996.18,439.341 " fill="none" id="Usager-D&#233;cision" style="stroke:#181818;stroke-width:1.0;"/><text fill="#000000" font-family="sans-serif" font-size="13" lengthAdjust="spacing" textLength="8" x="701.9427" y="341.6641">1</text><text fill="#000000" font-family="sans-serif" font-size="13" lengthAdjust="spacing" textLength="7" x="975.5708" y="428.5247">*</text></g><!--link D?cision to presta--><g id="link_D&#233;cision_presta"><path codeLine="37" d="M1042.8,457.5 C1054.49,457.5 1066.19,457.5 1077.89,457.5 " fill="none" id="D&#233;cision-presta" style="stroke:#181818;stroke-width:1.0;"/><text fill="#000000" font-family="sans-serif" font-size="13" lengthAdjust="spacing" textLength="8" x="1050.5069" y="453.169">1</text><text fill="#000000" font-family="sans-serif" font-size="13" lengthAdjust="spacing" textLength="24" x="1045.9469" y="470.8011">0..1</text></g><!--link presta to detail--><g id="link_presta_detail"><path codeLine="38" d="M1133.9,484.245 C1141.49,502.177 1151.58,525.993 1159.16,543.895 " fill="none" id="presta-detail" style="stroke:#181818;stroke-width:1.0;"/><text fill="#000000" font-family="sans-serif" font-size="13" lengthAdjust="spacing" textLength="8" x="1127.4094" y="503.8619">1</text><text fill="#000000" font-family="sans-serif" font-size="13" lengthAdjust="spacing" textLength="24" x="1116.4908" y="533.1374">0..1</text></g><!--link pc to detail--><g id="link_pc_detail"><path codeLine="39" d="M1090.17,570.5 C1101.71,570.5 1113.25,570.5 1124.78,570.5 " fill="none" id="pc-detail" style="stroke:#181818;stroke-width:1.0;"/><text fill="#000000" font-family="sans-serif" font-size="13" lengthAdjust="spacing" textLength="7" x="1097.858" y="566.5007">*</text><text fill="#000000" font-family="sans-serif" font-size="13" lengthAdjust="spacing" textLength="8" x="1108.9356" y="566.4145">1</text></g><!--link Quantification to pc--><g id="link_Quantification_pc"><path codeLine="40" d="M953.219,570.5 C964.723,570.5 976.228,570.5 987.73,570.5 " fill="none" id="Quantification-pc" style="stroke:#181818;stroke-width:1.0;"/><text fill="#000000" font-family="sans-serif" font-size="13" lengthAdjust="spacing" textLength="24" x="960.8992" y="566.7376">0..1</text><text fill="#000000" font-family="sans-serif" font-size="13" lengthAdjust="spacing" textLength="8" x="972.0366" y="583.5637">1</text></g><!--link assO to assC--><!--link Usager to S?jour--><g id="link_Usager_S&#233;jour"><path codeLine="53" d="M693.524,319.997 C736.998,296.687 819.929,255.534 896,236.5 C916.767,231.304 972.983,238.329 992,228.5 C1009.01,219.709 1022.39,202.031 1030.66,188.681 " fill="none" id="Usager-S&#233;jour" style="stroke:#181818;stroke-width:1.0;"/><text fill="#000000" font-family="sans-serif" font-size="13" lengthAdjust="spacing" textLength="8" x="693.9785" y="308.9087">1</text><text fill="#000000" font-family="sans-serif" font-size="13" lengthAdjust="spacing" textLength="7" x="1009.0173" y="208.9076">*</text></g><!--link Solde to S?jour--><g id="link_Solde_S&#233;jour"><path codeLine="54" d="M975.312,170.5 C987.02,170.5 998.73,170.5 1010.44,170.5 " fill="none" id="Solde-S&#233;jour" style="stroke:#181818;stroke-width:1.0;"/><text fill="#000000" font-family="sans-serif" font-size="13" lengthAdjust="spacing" textLength="7" x="982.8224" y="165.7188">*</text><text fill="#000000" font-family="sans-serif" font-size="13" lengthAdjust="spacing" textLength="8" x="994.6793" y="165.8135">1</text></g><!--link Inventaire to S?jour--><g id="link_Inventaire_S&#233;jour"><path codeLine="55" d="M1139.56,77.109 C1117.52,97.56 1080.85,131.592 1058.7,152.149 " fill="none" id="Inventaire-S&#233;jour" style="stroke:#181818;stroke-width:1.0;"/><text fill="#000000" font-family="sans-serif" font-size="13" lengthAdjust="spacing" textLength="24" x="1091.9447" y="97.3126">0..1</text><text fill="#000000" font-family="sans-serif" font-size="13" lengthAdjust="spacing" textLength="8" x="1055.2019" y="141.2739">1</text></g><!--link ESSMS to S?jour--><g id="link_ESSMS_S&#233;jour"><path codeLine="56" d="M1046.75,77.109 C1045.26,97.56 1042.77,131.592 1041.27,152.149 " fill="none" id="ESSMS-S&#233;jour" style="stroke:#181818;stroke-width:1.0;"/><text fill="#000000" font-family="sans-serif" font-size="13" lengthAdjust="spacing" textLength="8" x="1037.0766" y="97.3126">1</text><text fill="#000000" font-family="sans-serif" font-size="13" lengthAdjust="spacing" textLength="7" x="1033.5871" y="141.2739">*</text></g><!--link Contrat to S?jour--><g id="link_Contrat_S&#233;jour"><path codeLine="57" d="M982.27,77.028 C985.76,79.446 989.08,82.107 992,85 C1011.78,104.591 1026,134.031 1033.61,152.486 " fill="none" id="Contrat-S&#233;jour" style="stroke:#181818;stroke-width:1.0;"/><text fill="#000000" font-family="sans-serif" font-size="13" lengthAdjust="spacing" textLength="7" x="985.3927" y="97.2058">*</text><text fill="#000000" font-family="sans-serif" font-size="13" lengthAdjust="spacing" textLength="8" x="1013.0232" y="141.3942">1</text></g><!--link R?servation to Usager--><g id="link_R&#233;servation_Usager"><path codeLine="58" d="M969.704,338 C877.812,338 785.92,338 694.028,338 " fill="none" id="R&#233;servation-Usager" style="stroke:#181818;stroke-width:1.0;"/><text fill="#000000" font-family="sans-serif" font-size="13" lengthAdjust="spacing" textLength="7" x="955.1389" y="334.0007">*</text><text fill="#000000" font-family="sans-serif" font-size="13" lengthAdjust="spacing" textLength="8" x="702.1282" y="351.7823">1</text></g><!--link R?servation to presta--><g id="link_R&#233;servation_presta"><path codeLine="59" d="M1034.98,356.086 C1052.16,375.689 1080.52,408.045 1100.4,430.716 " fill="none" id="R&#233;servation-presta" style="stroke:#181818;stroke-width:1.0;"/><text fill="#000000" font-family="sans-serif" font-size="13" lengthAdjust="spacing" textLength="7" x="1031.6393" y="376.2823">*</text><text fill="#000000" font-family="sans-serif" font-size="13" lengthAdjust="spacing" textLength="8" x="1072.8613" y="419.917">1</text></g><!--link S?jour to presta--><g id="link_S&#233;jour_presta"><path codeLine="60" d="M1055.82,188.621 C1066.35,201 1079.57,218.627 1087,236.5 C1114.57,302.789 1121.09,388.524 1122.59,430.717 " fill="none" id="S&#233;jour-presta" style="stroke:#181818;stroke-width:1.0;"/><text fill="#000000" font-family="sans-serif" font-size="13" lengthAdjust="spacing" textLength="7" x="1052.747" y="208.8284">*</text><text fill="#000000" font-family="sans-serif" font-size="13" lengthAdjust="spacing" textLength="8" x="1109.1077" y="419.9183">1</text></g><!--link S?jour to R?servation--><!--link Usager to contactM--><g id="link_Usager_contactM"><path codeLine="75" d="M631.933,338 C616.041,338 600.148,338 584.256,338 " fill="none" id="Usager-contactM" style="stroke:#181818;stroke-width:1.0;"/><text fill="#000000" font-family="sans-serif" font-size="13" lengthAdjust="spacing" textLength="8" x="615.8238" y="333.3135">1</text><text fill="#000000" font-family="sans-serif" font-size="13" lengthAdjust="spacing" textLength="7" x="592.0683" y="334.3213">*</text></g><!--link Usager to contactP--><g id="link_Usager_contactP"><path codeLine="76" d="M656.79,319.884 C647.92,296.823 629.371,257.468 600,236.5 C585.481,226.135 457.226,230.5 439.5,232.5 C431.572,233.395 428.852,232.413 422,236.5 C391.003,254.989 365.092,287.964 349.365,311.306 " fill="none" id="Usager-contactP" style="stroke:#181818;stroke-width:1.0;"/><text fill="#000000" font-family="sans-serif" font-size="13" lengthAdjust="spacing" textLength="7" x="344.8978" y="285.2305">*</text><text fill="#000000" font-family="sans-serif" font-size="13" lengthAdjust="spacing" textLength="4" x="346.3978" y="300.3633">&#160;</text></g><!--link Usager to permis--><g id="link_Usager_permis"><path codeLine="77" d="M643.199,356.032 C631.471,365.004 615.842,375.132 600,380 C555.914,393.546 228.202,371.857 185,388 C157.198,398.389 132.117,422.549 117.216,439.209 " fill="none" id="Usager-permis" style="stroke:#181818;stroke-width:1.0;"/><text fill="#000000" font-family="sans-serif" font-size="13" lengthAdjust="spacing" textLength="7" x="113.4978" y="428.3523">*</text></g><!--link Usager to Transport--><g id="link_Usager_Transport"><path codeLine="78" d="M642.906,356.197 C631.205,365.1 615.698,375.109 600,380 C568.694,389.753 334.677,374.055 305,388 C282.107,398.758 264.392,422.826 254.326,439.365 " fill="none" id="Usager-Transport" style="stroke:#181818;stroke-width:1.0;"/><text fill="#000000" font-family="sans-serif" font-size="13" lengthAdjust="spacing" textLength="7" x="249.1102" y="428.5561">*</text></g><!--link Usager to cb--><g id="link_Usager_cb"><path codeLine="79" d="M641.334,356.086 C613.085,378.363 563.954,417.107 535.692,439.394 " fill="none" id="Usager-cb" style="stroke:#181818;stroke-width:1.0;"/><text fill="#000000" font-family="sans-serif" font-size="13" lengthAdjust="spacing" textLength="8" x="625.153" y="376.2823">1</text><text fill="#000000" font-family="sans-serif" font-size="13" lengthAdjust="spacing" textLength="7" x="533.6508" y="428.5939">*</text></g><!--link Usager to Ressource--><g id="link_Usager_Ressource"><path codeLine="80" d="M642.87,356.081 C631.157,364.948 615.651,374.959 600,380 C563.367,391.798 461.742,371.443 427,388 C404,398.961 385.922,422.979 375.597,439.45 " fill="none" id="Usager-Ressource" style="stroke:#181818;stroke-width:1.0;"/><text fill="#000000" font-family="sans-serif" font-size="13" lengthAdjust="spacing" textLength="7" x="370.5404" y="428.3467">*</text></g><!--link Usager to mp--><g id="link_Usager_mp"><path codeLine="81" d="M656.79,319.884 C647.92,296.823 629.371,257.468 600,236.5 C593.507,231.864 590.428,233.395 582.5,232.5 C546.948,228.489 296.052,228.489 260.5,232.5 C252.572,233.395 249.874,232.451 243,236.5 C207.517,257.4 178.229,296.779 163.107,319.863 " fill="none" id="Usager-mp" style="stroke:#181818;stroke-width:1.0;"/><text fill="#000000" font-family="sans-serif" font-size="13" lengthAdjust="spacing" textLength="7" x="158.4366" y="309.0534">*</text></g><!--link contactP to Ressource--><!--link contactM to cb--><!--link mp to Transport--><!--link mp to permis--><!--link id to Env--><!--SRC=[XLRRJjmm47ttLrZPDwH5vGzA0LL8HTsozA7gzi7hc5r3OgUsisrLyK7vZlnOnvSuTaWeJp1dPZBddF48kNzYrE2lcXoOmgjF_70q6owU4K8DeSyGnSLjoOJXZvmImwN0p60gfIgb47t7T869nhp4gmsfs4V5cC1_4OOVwLjVoLOfRfl7X1I-B1NJcYsW3trNzHsLTTsAuVj9vWj2Snd5MO7NkBYmZOh03GqVyc08nk6oQCBziZLISUtwwfqWPSq5rqP1u1IusnGOYX5wtBIFZpdxhC6qtfMJlDnoSg42dxdnrvP9CJFQjPBSQAmbvQJzRMqf6TP4cBvpZHqUBFt6gah-cewcTQk8e0pNf28bPpi1EZOWPms64wx2W5fVPMtURW98nG_4oAJ-ysBzDNZ7jRDrwGkEnquqO9znChgk_iytgleEA5Ilwafcmyjr6p2BONeawk37R-XYyfUMf0yZImCRZnmCUT-A2juJAn4AZyowQKsr_XROoJk5tfsVNnHEkFcYg1eQzNCPWFbQpne5bTA-Rgcy2WYu3MybnYQamYosisrBOJkjd-llm0xkme-r9n3NSjjtJ_2eD5uz767HAvOlNO0Zcc6o0i7caFk-qqoTWimp2RVY55Ps5hxPRk-siyYL5FOnZjXBxfDro4aU1aT-o56r8PvC46LUvob-Yi6Bin4OXd1T_U4QmOnxp8W7OHvs9eST62GVmGX5BB4pRPYUcnjnuWfkFhF7OIVWtDXx2iKqt45824_WGzLER2yiHGA_D4nfssGdQgdWZhjAwi6xfFm_nStnZ-O_swnyirI-OQhcBgriXwFK-DXynGCSDDr8PPO7gXl3y1xkNZoJTB-GVJ_8jDJjZi49PU29DF3tSAZg9ir_jPPWvY3RWDZeJXIZ7YbG39Jpu4XrklRs0_iyEJB9mtM3KFnckaanFHgSeD0SA2Q1ECeaxkU6LOH_Cf8mhDi_]--></g></svg>