<?xml version="1.0" encoding="us-ascii" standalone="no"?><svg xmlns="http://www.w3.org/2000/svg" xmlns:xlink="http://www.w3.org/1999/xlink" contentStyleType="text/css" height="256px" preserveAspectRatio="none" style="width:432px;height:256px;background:#FFFFFF;" version="1.1" viewBox="0 0 432 256" width="432px" zoomAndPan="magnify"><defs/><g><!--entity P--><g id="elem_P"><ellipse cx="47.5" cy="14" fill="#FFE4B5" rx="8" ry="8" style="stroke:#181818;stroke-width:0.5;"/><path d="M47.5,22 L47.5,49 M34.5,30 L60.5,30 M47.5,49 L34.5,64 M47.5,49 L60.5,64 " fill="none" style="stroke:#181818;stroke-width:0.5;"/><text fill="#000000" font-family="sans-serif" font-size="14" lengthAdjust="spacing" textLength="46" x="8" y="78.4951">"R&#244;le"</text><text fill="#000000" font-family="sans-serif" font-size="14" lengthAdjust="spacing" textLength="79" x="8" y="94.792">Producteur</text></g><!--entity C--><g id="elem_C"><ellipse cx="370.5" cy="14" fill="#FFE4B5" rx="8" ry="8" style="stroke:#181818;stroke-width:0.5;"/><path d="M370.5,22 L370.5,49 M357.5,30 L383.5,30 M370.5,49 L357.5,64 M370.5,49 L383.5,64 " fill="none" style="stroke:#181818;stroke-width:0.5;"/><text fill="#000000" font-family="sans-serif" font-size="14" lengthAdjust="spacing" textLength="46" x="315.5" y="78.4951">"R&#244;le"</text><text fill="#000000" font-family="sans-serif" font-size="14" lengthAdjust="spacing" textLength="110" x="315.5" y="94.792">Consommateur</text></g><!--entity L1--><g id="elem_L1"><ellipse cx="47.5" cy="167" fill="#FFE4B5" rx="8" ry="8" style="stroke:#181818;stroke-width:0.5;"/><path d="M47.5,175 L47.5,202 M34.5,183 L60.5,183 M47.5,202 L34.5,217 M47.5,202 L60.5,217 " fill="none" style="stroke:#181818;stroke-width:0.5;"/><text fill="#000000" font-family="sans-serif" font-size="14" lengthAdjust="spacing" textLength="77" x="6" y="231.4951">"Syst&#232;me"</text><text fill="#000000" font-family="sans-serif" font-size="14" lengthAdjust="spacing" textLength="83" x="6" y="247.792">Logiciel DUI</text></g><!--entity L2--><g id="elem_L2"><ellipse cx="370.5" cy="167" fill="#FFE4B5" rx="8" ry="8" style="stroke:#181818;stroke-width:0.5;"/><path d="M370.5,175 L370.5,202 M357.5,183 L383.5,183 M370.5,202 L357.5,217 M370.5,202 L383.5,217 " fill="none" style="stroke:#181818;stroke-width:0.5;"/><text fill="#000000" font-family="sans-serif" font-size="14" lengthAdjust="spacing" textLength="77" x="329" y="231.4951">"Syst&#232;me"</text><text fill="#000000" font-family="sans-serif" font-size="14" lengthAdjust="spacing" textLength="83" x="329" y="247.792">Logiciel DUI</text></g><g id="elem_c"><ellipse cx="201.4652" cy="52.193" fill="#FFE4B5" rx="78.9652" ry="18.193" style="stroke:#181818;stroke-width:0.5;"/><text fill="#000000" font-family="sans-serif" font-size="14" lengthAdjust="spacing" textLength="116" x="141.4" y="55.6886">Changer d'ESMS</text></g><!--link c to C--><g id="link_c_C"><path d="M280.719,52 C292.292,52 303.865,52 315.439,52 " fill="none" id="c-C" style="stroke:#181818;stroke-width:1.0;"/></g><!--link P to c--><g id="link_P_c"><path d="M87.2031,52 C98.9602,52 110.717,52 122.474,52 " fill="none" id="P-c" style="stroke:#181818;stroke-width:1.0;"/></g><!--link P to L1--><g id="link_P_L1"><path d="M47.5,98.715 C47.5,117.638 47.5,139.534 47.5,158.4406 " fill="none" id="P-L1" style="stroke:#181818;stroke-width:1.0;"/></g><!--link C to L2--><g id="link_C_L2"><path d="M370.5,98.715 C370.5,117.638 370.5,139.534 370.5,158.4406 " fill="none" id="C-L2" style="stroke:#181818;stroke-width:1.0;"/></g><!--SRC=[ir8AEhmb9rKf9Y-WA3-bDBaajRJ8IY6nM250GTatFpaviJWpZyiAhiWvFwyuFpSt4QxC6KLPS6LnoU4LkI2LFldfcScPgJaABg6UO9K-XiGhDK9IogNXd96ObvvQf92YxXhi6wm9Kf6Ch21PGLV1cIi0I2Q3I5sWLLpEODe80000]--></g></svg>