<?xml version="1.0" encoding="us-ascii" standalone="no"?><svg xmlns="http://www.w3.org/2000/svg" xmlns:xlink="http://www.w3.org/1999/xlink" contentStyleType="text/css" height="256px" preserveAspectRatio="none" style="width:524px;height:256px;background:#FFFFFF;" version="1.1" viewBox="0 0 524 256" width="524px" zoomAndPan="magnify"><defs/><g><!--entity P--><g id="elem_P"><ellipse cx="47.5" cy="14" fill="#FFE4B5" rx="8" ry="8" style="stroke:#181818;stroke-width:0.5;"/><path d="M47.5,22 L47.5,49 M34.5,30 L60.5,30 M47.5,49 L34.5,64 M47.5,49 L60.5,64 " fill="none" style="stroke:#181818;stroke-width:0.5;"/><text fill="#000000" font-family="sans-serif" font-size="14" lengthAdjust="spacing" textLength="46" x="8" y="78.4951">"R&#244;le"</text><text fill="#000000" font-family="sans-serif" font-size="14" lengthAdjust="spacing" textLength="79" x="8" y="94.792">Producteur</text></g><!--entity C--><g id="elem_C"><ellipse cx="462.5" cy="14" fill="#FFE4B5" rx="8" ry="8" style="stroke:#181818;stroke-width:0.5;"/><path d="M462.5,22 L462.5,49 M449.5,30 L475.5,30 M462.5,49 L449.5,64 M462.5,49 L475.5,64 " fill="none" style="stroke:#181818;stroke-width:0.5;"/><text fill="#000000" font-family="sans-serif" font-size="14" lengthAdjust="spacing" textLength="46" x="407.5" y="78.4951">"R&#244;le"</text><text fill="#000000" font-family="sans-serif" font-size="14" lengthAdjust="spacing" textLength="110" x="407.5" y="94.792">Consommateur</text></g><!--entity L1--><g id="elem_L1"><ellipse cx="47.5" cy="167" fill="#FFE4B5" rx="8" ry="8" style="stroke:#181818;stroke-width:0.5;"/><path d="M47.5,175 L47.5,202 M34.5,183 L60.5,183 M47.5,202 L34.5,217 M47.5,202 L60.5,217 " fill="none" style="stroke:#181818;stroke-width:0.5;"/><text fill="#000000" font-family="sans-serif" font-size="14" lengthAdjust="spacing" textLength="77" x="6" y="231.4951">"Syst&#232;me"</text><text fill="#000000" font-family="sans-serif" font-size="14" lengthAdjust="spacing" textLength="83" x="6" y="247.792">Logiciel DUI</text></g><!--entity L2--><g id="elem_L2"><ellipse cx="462.5" cy="167" fill="#FFE4B5" rx="8" ry="8" style="stroke:#181818;stroke-width:0.5;"/><path d="M462.5,175 L462.5,202 M449.5,183 L475.5,183 M462.5,202 L449.5,217 M462.5,202 L475.5,217 " fill="none" style="stroke:#181818;stroke-width:0.5;"/><text fill="#000000" font-family="sans-serif" font-size="14" lengthAdjust="spacing" textLength="77" x="421" y="231.4951">"Syst&#232;me"</text><text fill="#000000" font-family="sans-serif" font-size="14" lengthAdjust="spacing" textLength="83" x="421" y="247.792">Logiciel DUI</text></g><g id="elem_c"><ellipse cx="247.5038" cy="51.9008" fill="#FFE4B5" rx="125.0038" ry="27.4008" style="stroke:#181818;stroke-width:0.5;"/><text fill="#000000" font-family="sans-serif" font-size="14" lengthAdjust="spacing" textLength="218" x="138.5038" y="54.7474">Changer de logiciel m&#233;tier DUI</text></g><!--link c to C--><g id="link_c_C"><path d="M372.637,52 C384.221,52 395.805,52 407.389,52 " fill="none" id="c-C" style="stroke:#181818;stroke-width:1.0;"/></g><!--link P to c--><g id="link_P_c"><path d="M87.3438,52 C99.0218,52 110.7,52 122.378,52 " fill="none" id="P-c" style="stroke:#181818;stroke-width:1.0;"/></g><!--link P to L1--><g id="link_P_L1"><path d="M47.5,98.715 C47.5,117.638 47.5,139.534 47.5,158.4406 " fill="none" id="P-L1" style="stroke:#181818;stroke-width:1.0;"/></g><!--link C to L2--><g id="link_C_L2"><path d="M462.5,98.715 C462.5,117.638 462.5,139.534 462.5,158.4406 " fill="none" id="C-L2" style="stroke:#181818;stroke-width:1.0;"/></g><!--SRC=[ir8AEhmb9rKf9Y-WA3-bDBaajRJ8IY6nM250GTatFpaviJWpZyiAhiWvFwyuFpSt4QxC6KLPS6LnoU4LkI2LFldfcScPgJaABg6UO9K-XiGhDK9IogNXd96ObvvQf92Igf03KvfxU6L99b0Cg4KJf2KPMKUoWgw2CrS0a4m6aRf0kxcSmRGH0000]--></g></svg>