<?xml version="1.0" encoding="us-ascii" standalone="no"?><svg xmlns="http://www.w3.org/2000/svg" xmlns:xlink="http://www.w3.org/1999/xlink" contentStyleType="text/css" height="657px" preserveAspectRatio="none" style="width:1500px;height:657px;background:#FFFFFF;" version="1.1" viewBox="0 0 1500 657" width="1500px" zoomAndPan="magnify"><defs/><g><!--cluster Admin--><g id="cluster_Admin"><path d="M8.5,67 L119.5,67 A3.75,3.75 0 0 1 122,69.5 L129,89.2969 L287.5,89.2969 A2.5,2.5 0 0 1 290,91.7969 L290,551.5 A2.5,2.5 0 0 1 287.5,554 L8.5,554 A2.5,2.5 0 0 1 6,551.5 L6,69.5 A2.5,2.5 0 0 1 8.5,67 " fill="#FFB6C1" style="stroke:#000000;stroke-width:1.5;"/><line style="stroke:#000000;stroke-width:1.5;" x1="6" x2="129" y1="89.2969" y2="89.2969"/><text fill="#000000" font-family="sans-serif" font-size="14" font-weight="bold" lengthAdjust="spacing" textLength="110" x="10" y="81.9951">Administratif</text></g><!--cluster Coord--><g id="cluster_Coord"><path d="M332.5,67 L538.5,67 A3.75,3.75 0 0 1 541,69.5 L548,89.2969 L586.5,89.2969 A2.5,2.5 0 0 1 589,91.7969 L589,455.5 A2.5,2.5 0 0 1 586.5,458 L332.5,458 A2.5,2.5 0 0 1 330,455.5 L330,69.5 A2.5,2.5 0 0 1 332.5,67 " fill="#98FB98" style="stroke:#000000;stroke-width:1.5;"/><line style="stroke:#000000;stroke-width:1.5;" x1="330" x2="548" y1="89.2969" y2="89.2969"/><text fill="#000000" font-family="sans-serif" font-size="14" font-weight="bold" lengthAdjust="spacing" textLength="205" x="334" y="81.9951">Coordination des acteurs</text></g><!--cluster Acc--><g id="cluster_Acc"><path d="M631.5,67 L777.5,67 A3.75,3.75 0 0 1 780,69.5 L787,89.2969 L836.5,89.2969 A2.5,2.5 0 0 1 839,91.7969 L839,455.5 A2.5,2.5 0 0 1 836.5,458 L631.5,458 A2.5,2.5 0 0 1 629,455.5 L629,69.5 A2.5,2.5 0 0 1 631.5,67 " fill="#FFFFE0" style="stroke:#000000;stroke-width:1.5;"/><line style="stroke:#000000;stroke-width:1.5;" x1="629" x2="787" y1="89.2969" y2="89.2969"/><text fill="#000000" font-family="sans-serif" font-size="14" font-weight="bold" lengthAdjust="spacing" textLength="145" x="633" y="81.9951">Accompagnement</text></g><!--cluster Soin--><g id="cluster_Soin"><path d="M881.5,67 L926.5,67 A3.75,3.75 0 0 1 929,69.5 L936,89.2969 L1490.5,89.2969 A2.5,2.5 0 0 1 1493,91.7969 L1493,647.5 A2.5,2.5 0 0 1 1490.5,650 L881.5,650 A2.5,2.5 0 0 1 879,647.5 L879,69.5 A2.5,2.5 0 0 1 881.5,67 " fill="#D8BFD8" style="stroke:#000000;stroke-width:1.5;"/><line style="stroke:#000000;stroke-width:1.5;" x1="879" x2="936" y1="89.2969" y2="89.2969"/><text fill="#000000" font-family="sans-serif" font-size="14" font-weight="bold" lengthAdjust="spacing" textLength="44" x="883" y="81.9951">Soins</text></g><g id="elem_droit"><rect fill="#FFB6C1" height="36.2969" style="stroke:#181818;stroke-width:0.5;" width="193" x="55.5" y="110"/><text fill="#000000" font-family="sans-serif" font-size="14" lengthAdjust="spacing" textLength="179" x="62.5" y="124.9951">Droit sociaux et de sant&#233;</text><line style="stroke:#181818;stroke-width:0.5;" x1="56.5" x2="247.5" y1="130.2969" y2="130.2969"/></g><g id="elem_autorisation"><rect fill="#FFB6C1" height="36.2969" style="stroke:#181818;stroke-width:0.5;" width="224" x="40" y="206"/><text fill="#000000" font-family="sans-serif" font-size="14" lengthAdjust="spacing" textLength="210" x="47" y="220.9951">Autorisations administratives</text><line style="stroke:#181818;stroke-width:0.5;" x1="41" x2="263" y1="226.2969" y2="226.2969"/></g><g id="elem_id"><rect fill="#FFB6C1" height="36.2969" style="stroke:#181818;stroke-width:0.5;" width="228" x="38" y="302"/><text fill="#000000" font-family="sans-serif" font-size="14" lengthAdjust="spacing" textLength="214" x="45" y="316.9951">Identification et coordonn&#233;es</text><line style="stroke:#181818;stroke-width:0.5;" x1="39" x2="265" y1="322.2969" y2="322.2969"/></g><g id="elem_env"><rect fill="#FFB6C1" height="36.2969" style="stroke:#181818;stroke-width:0.5;" width="225" x="39.5" y="398"/><text fill="#000000" font-family="sans-serif" font-size="14" lengthAdjust="spacing" textLength="211" x="46.5" y="412.9951">Environnement et ressources</text><line style="stroke:#181818;stroke-width:0.5;" x1="40.5" x2="263.5" y1="418.2969" y2="418.2969"/></g><g id="elem_sejour"><rect fill="#FFB6C1" height="36.2969" style="stroke:#181818;stroke-width:0.5;" width="59" x="122.5" y="494"/><text fill="#000000" font-family="sans-serif" font-size="14" lengthAdjust="spacing" textLength="45" x="129.5" y="508.9951">S&#233;jour</text><line style="stroke:#181818;stroke-width:0.5;" x1="123.5" x2="180.5" y1="514.2969" y2="514.2969"/></g><g id="elem_traca"><rect fill="#98FB98" height="36.2969" style="stroke:#181818;stroke-width:0.5;" width="192" x="373" y="110"/><text fill="#000000" font-family="sans-serif" font-size="14" lengthAdjust="spacing" textLength="178" x="380" y="124.9951">Tra&#231;abilit&#233; des &#233;changes</text><line style="stroke:#181818;stroke-width:0.5;" x1="374" x2="564" y1="130.2969" y2="130.2969"/></g><g id="elem_agenda"><rect fill="#98FB98" height="36.2969" style="stroke:#181818;stroke-width:0.5;" width="68" x="435" y="206"/><text fill="#000000" font-family="sans-serif" font-size="14" lengthAdjust="spacing" textLength="54" x="442" y="220.9951">Agenda</text><line style="stroke:#181818;stroke-width:0.5;" x1="436" x2="502" y1="226.2969" y2="226.2969"/></g><g id="elem_pres"><rect fill="#98FB98" height="36.2969" style="stroke:#181818;stroke-width:0.5;" width="155" x="391.5" y="302"/><text fill="#000000" font-family="sans-serif" font-size="14" lengthAdjust="spacing" textLength="141" x="398.5" y="316.9951">Pr&#233;sence / Absence</text><line style="stroke:#181818;stroke-width:0.5;" x1="392.5" x2="545.5" y1="322.2969" y2="322.2969"/></g><g id="elem_ged"><rect fill="#98FB98" height="36.2969" style="stroke:#181818;stroke-width:0.5;" width="45" x="446.5" y="398"/><text fill="#000000" font-family="sans-serif" font-size="14" lengthAdjust="spacing" textLength="31" x="453.5" y="412.9951">GED</text><line style="stroke:#181818;stroke-width:0.5;" x1="447.5" x2="490.5" y1="418.2969" y2="418.2969"/></g><g id="elem_cahier"><rect fill="#FFFFE0" height="36.2969" style="stroke:#181818;stroke-width:0.5;" width="131" x="672.5" y="110"/><text fill="#000000" font-family="sans-serif" font-size="14" lengthAdjust="spacing" textLength="117" x="679.5" y="124.9951">Cahier de liaison</text><line style="stroke:#181818;stroke-width:0.5;" x1="673.5" x2="802.5" y1="130.2969" y2="130.2969"/></g><g id="elem_eval"><rect fill="#FFFFE0" height="36.2969" style="stroke:#181818;stroke-width:0.5;" width="88" x="694" y="206"/><text fill="#000000" font-family="sans-serif" font-size="14" lengthAdjust="spacing" textLength="74" x="701" y="220.9951">Evaluation</text><line style="stroke:#181818;stroke-width:0.5;" x1="695" x2="781" y1="226.2969" y2="226.2969"/></g><g id="elem_parc"><rect fill="#FFFFE0" height="36.2969" style="stroke:#181818;stroke-width:0.5;" width="75" x="700.5" y="302"/><text fill="#000000" font-family="sans-serif" font-size="14" lengthAdjust="spacing" textLength="61" x="707.5" y="316.9951">Parcours</text><line style="stroke:#181818;stroke-width:0.5;" x1="701.5" x2="774.5" y1="322.2969" y2="322.2969"/></g><g id="elem_projP"><rect fill="#FFFFE0" height="36.2969" style="stroke:#181818;stroke-width:0.5;" width="153" x="661.5" y="398"/><text fill="#000000" font-family="sans-serif" font-size="14" lengthAdjust="spacing" textLength="139" x="668.5" y="412.9951">Projet presonnalis&#233;</text><line style="stroke:#181818;stroke-width:0.5;" x1="662.5" x2="813.5" y1="418.2969" y2="418.2969"/></g><g id="elem_mal"><rect fill="#D8BFD8" height="36.2969" style="stroke:#181818;stroke-width:0.5;" width="207" x="1251.5" y="398"/><text fill="#000000" font-family="sans-serif" font-size="14" lengthAdjust="spacing" textLength="193" x="1258.5" y="412.9951">Maladies et sujets de sant&#233;</text><line style="stroke:#181818;stroke-width:0.5;" x1="1252.5" x2="1457.5" y1="418.2969" y2="418.2969"/></g><g id="elem_autonomie"><rect fill="#D8BFD8" height="36.2969" style="stroke:#181818;stroke-width:0.5;" width="164" x="911" y="206"/><text fill="#000000" font-family="sans-serif" font-size="14" lengthAdjust="spacing" textLength="150" x="918" y="220.9951">Autonomie/invalidit&#233;</text><line style="stroke:#181818;stroke-width:0.5;" x1="912" x2="1074" y1="226.2969" y2="226.2969"/></g><g id="elem_antG"><rect fill="#D8BFD8" height="36.2969" style="stroke:#181818;stroke-width:0.5;" width="203" x="1253.5" y="494"/><text fill="#000000" font-family="sans-serif" font-size="14" lengthAdjust="spacing" textLength="189" x="1260.5" y="508.9951">Ant&#233;cedents de grossesse</text><line style="stroke:#181818;stroke-width:0.5;" x1="1254.5" x2="1455.5" y1="514.2969" y2="514.2969"/></g><g id="elem_trait"><rect fill="#D8BFD8" height="36.2969" style="stroke:#181818;stroke-width:0.5;" width="96" x="1110" y="206"/><text fill="#000000" font-family="sans-serif" font-size="14" lengthAdjust="spacing" textLength="82" x="1117" y="220.9951">Traitement</text><line style="stroke:#181818;stroke-width:0.5;" x1="1111" x2="1205" y1="226.2969" y2="226.2969"/></g><g id="elem_hospi"><rect fill="#D8BFD8" height="36.2969" style="stroke:#181818;stroke-width:0.5;" width="215" x="1247.5" y="110"/><text fill="#000000" font-family="sans-serif" font-size="14" lengthAdjust="spacing" textLength="201" x="1254.5" y="124.9951">Hospitalisation et chirurgies</text><line style="stroke:#181818;stroke-width:0.5;" x1="1248.5" x2="1461.5" y1="130.2969" y2="130.2969"/></g><g id="elem_antF"><rect fill="#D8BFD8" height="36.2969" style="stroke:#181818;stroke-width:0.5;" width="175" x="1267.5" y="590"/><text fill="#000000" font-family="sans-serif" font-size="14" lengthAdjust="spacing" textLength="161" x="1274.5" y="604.9951">Ant&#233;c&#233;dents familiaux</text><line style="stroke:#181818;stroke-width:0.5;" x1="1268.5" x2="1441.5" y1="610.2969" y2="610.2969"/></g><g id="elem_vac"><rect fill="#D8BFD8" height="36.2969" style="stroke:#181818;stroke-width:0.5;" width="98" x="1113" y="110"/><text fill="#000000" font-family="sans-serif" font-size="14" lengthAdjust="spacing" textLength="84" x="1120" y="124.9951">Vaccination</text><line style="stroke:#181818;stroke-width:0.5;" x1="1114" x2="1210" y1="130.2969" y2="130.2969"/></g><g id="elem_mes"><rect fill="#D8BFD8" height="36.2969" style="stroke:#181818;stroke-width:0.5;" width="72" x="1122" y="398"/><text fill="#000000" font-family="sans-serif" font-size="14" lengthAdjust="spacing" textLength="58" x="1129" y="412.9951">Mesures</text><line style="stroke:#181818;stroke-width:0.5;" x1="1123" x2="1193" y1="418.2969" y2="418.2969"/></g><g id="elem_hab"><rect fill="#D8BFD8" height="36.2969" style="stroke:#181818;stroke-width:0.5;" width="133" x="926.5" y="494"/><text fill="#000000" font-family="sans-serif" font-size="14" lengthAdjust="spacing" textLength="119" x="933.5" y="508.9951">Habitudes de vie</text><line style="stroke:#181818;stroke-width:0.5;" x1="927.5" x2="1058.5" y1="514.2969" y2="514.2969"/></g><g id="elem_vol"><rect fill="#D8BFD8" height="36.2969" style="stroke:#181818;stroke-width:0.5;" width="150" x="918" y="398"/><text fill="#000000" font-family="sans-serif" font-size="14" lengthAdjust="spacing" textLength="136" x="925" y="412.9951">Derni&#232;res volont&#233;s</text><line style="stroke:#181818;stroke-width:0.5;" x1="919" x2="1067" y1="418.2969" y2="418.2969"/></g><g id="elem_histo"><rect fill="#D8BFD8" height="36.2969" style="stroke:#181818;stroke-width:0.5;" width="156" x="922" y="110"/><text fill="#000000" font-family="sans-serif" font-size="14" lengthAdjust="spacing" textLength="142" x="929" y="124.9951">Historique des soins</text><line style="stroke:#181818;stroke-width:0.5;" x1="923" x2="1077" y1="130.2969" y2="130.2969"/></g><g id="elem_ord"><rect fill="#D8BFD8" height="36.2969" style="stroke:#181818;stroke-width:0.5;" width="228" x="1241" y="206"/><text fill="#000000" font-family="sans-serif" font-size="14" lengthAdjust="spacing" textLength="214" x="1248" y="220.9951">Ordonnances et prescriptions</text><line style="stroke:#181818;stroke-width:0.5;" x1="1242" x2="1468" y1="226.2969" y2="226.2969"/></g><g id="elem_projS"><rect fill="#D8BFD8" height="36.2969" style="stroke:#181818;stroke-width:0.5;" width="215" x="1247.5" y="302"/><text fill="#000000" font-family="sans-serif" font-size="14" lengthAdjust="spacing" textLength="201" x="1254.5" y="316.9951">Projet de soins personnalis&#233;</text><line style="stroke:#181818;stroke-width:0.5;" x1="1248.5" x2="1461.5" y1="322.2969" y2="322.2969"/></g><g id="elem_plan"><rect fill="#D8BFD8" height="36.2969" style="stroke:#181818;stroke-width:0.5;" width="99" x="943.5" y="590"/><text fill="#000000" font-family="sans-serif" font-size="14" lengthAdjust="spacing" textLength="85" x="950.5" y="604.9951">Plan de soin</text><line style="stroke:#181818;stroke-width:0.5;" x1="944.5" x2="1041.5" y1="610.2969" y2="610.2969"/></g><g id="elem_alerte"><rect fill="#D8BFD8" height="36.2969" style="stroke:#181818;stroke-width:0.5;" width="66" x="1125" y="494"/><text fill="#000000" font-family="sans-serif" font-size="14" lengthAdjust="spacing" textLength="52" x="1132" y="508.9951">Alertes</text><line style="stroke:#181818;stroke-width:0.5;" x1="1126" x2="1190" y1="514.2969" y2="514.2969"/></g><g id="elem_allergie"><rect fill="#D8BFD8" height="36.2969" style="stroke:#181818;stroke-width:0.5;" width="76" x="1120" y="302"/><text fill="#000000" font-family="sans-serif" font-size="14" lengthAdjust="spacing" textLength="62" x="1127" y="316.9951">Allergies</text><line style="stroke:#181818;stroke-width:0.5;" x1="1121" x2="1195" y1="322.2969" y2="322.2969"/></g><g id="elem_obs"><rect fill="#D8BFD8" height="36.2969" style="stroke:#181818;stroke-width:0.5;" width="149" x="918.5" y="302"/><text fill="#000000" font-family="sans-serif" font-size="14" lengthAdjust="spacing" textLength="135" x="925.5" y="316.9951">Observations soins</text><line style="stroke:#181818;stroke-width:0.5;" x1="919.5" x2="1066.5" y1="322.2969" y2="322.2969"/></g><g id="elem_Usager"><rect fill="#ADD8E6" height="36.2969" style="stroke:#181818;stroke-width:0.5;" width="62" x="456" y="7"/><text fill="#000000" font-family="sans-serif" font-size="14" lengthAdjust="spacing" textLength="48" x="463" y="21.9951">Usager</text><line style="stroke:#181818;stroke-width:0.5;" x1="457" x2="517" y1="27.2969" y2="27.2969"/></g><!--link droit to autorisation--><!--link autorisation to id--><!--link id to env--><!--link env to sejour--><!--link traca to agenda--><!--link agenda to pres--><!--link pres to ged--><!--link cahier to eval--><!--link eval to parc--><!--link parc to projP--><!--link hospi to ord--><!--link ord to projS--><!--link projS to mal--><!--link mal to antG--><!--link antG to antF--><!--link histo to autonomie--><!--link autonomie to obs--><!--link obs to vol--><!--link vol to hab--><!--link hab to plan--><!--link vac to trait--><!--link trait to allergie--><!--link allergie to mes--><!--link mes to alerte--><!--link Usager to Admin--><g id="link_Usager_Admin"><path codeLine="80" d="M455.897,26.574 C354.29,28.59 37.7332,36.052 22,51 C19.0183,53.8329 16.6414,57.0941 14.7666,60.6384 C13.8292,62.4106 13.0173,64.2535 12.3181,66.149 C12.2307,66.386 12.1451,66.6237 12.0612,66.8623 " fill="none" id="Usager-Admin" style="stroke:#181818;stroke-width:1.0;"/></g><!--link Usager to Coord--><g id="link_Usager_Coord"><path codeLine="81" d="M455.842,28.181 C422.013,31.189 370.938,37.808 357,51 C353.9379,53.8983 351.3387,57.209 349.1354,60.7899 C348.0337,62.5803 347.031,64.4383 346.1188,66.346 C346.0618,66.4652 346.0051,66.5846 345.9488,66.7043 " fill="none" id="Usager-Coord" style="stroke:#181818;stroke-width:1.0;"/></g><!--link Usager to Acc--><g id="link_Usager_Acc"><path codeLine="82" d="M518.391,29.013 C537.79,32.104 562.436,38.358 581,51 C597.798,62.439 611.4615,80.6275 621.086,96.3431 C623.4921,100.272 625.6458,104.0464 627.5329,107.5221 C628.0047,108.391 628.4598,109.2413 628.8981,110.0706 " fill="none" id="Usager-Acc" style="stroke:#181818;stroke-width:1.0;"/></g><!--link Usager to Soin--><g id="link_Usager_Soin"><path codeLine="83" d="M518.152,26.784 C597.705,28.993 803.999,36.103 831,51 C848.7945,60.8175 862.4893,78.9553 871.881,95.0498 C874.2289,99.0734 876.3079,102.9693 878.1148,106.5756 C878.3407,107.0264 878.5623,107.4726 878.7796,107.9141 C878.834,108.0244 878.8881,108.1345 878.9419,108.2442 " fill="none" id="Usager-Soin" style="stroke:#181818;stroke-width:1.0;"/></g><!--SRC=[TLPTRjim37xNAOJsEUWPilvjG8i5I3TW6FQWoAhDrfOyoVO633lFbdFuOYCb9Q4pzIMGA7xY9_8Z7RTxCNgGduAgZPUN3r0tmxjsD4BqIh-YKQwh3Yo4mQi1dgKAoP1TDs1VvIyXfKltNDnu1uCCJeCQVqepoCh8eEmmxoy8MyNZ4vOXr-FWF0ICucoGYaMTJ8XWnJpATtoeZ4MMe9CFXjVE-SfPE-_p9L2LeRTs0e-EfiCh2EbD26xqEkECdSh0xRn_GR_e50mjkTzl8TARLryRg93UjzNY7MBnAEO4bK2gp804195WfXHEd6frSKtF1PjkgmpcJ0zczEa9yL1URbHhxhqnTb6u9w_cFse7BM2j8dJUwqRPEhyVAw4L0_FArSPMAfKeBijk6p_lWx7Qo2kvtiLLnFIOwJBY_lOcUjI6qwQS9ZOyfp6moF7P0TqkOWXcn0jvrjPQkwvNTIf-38ccNCOlfctTZqMkhbK3s2qexHOK16SZH2ShHt5zJQeTOrsId73xbkj6UUqEHUjnywQZTo-eL7eTAbUr47ARzNYmMQ8mQPaWrnIo494ApnX6537i8eru8y_Pre5D36abBvyQxDRMBFBqg5fL0QOUIOOHgOQpST1H4Wx8irbWNGVc2YooWmeE27KuEU8uZ2xMXeP0Z5Hx5mAsST8PXhqleL3vC9mgFz2svFVUXHu6ol9fkZJWHrz3xf66FDucDkyJisVLOPlXV3pGkYjXFYkjSoT7lqdfajkZ2QFFyJjgf09nREjXf9R6d4oGij6eNSdtndWByr_gbycrZdYdkt5Nl1iDEB- -ZoREZ71K1Ncw4k9ZdCSAkp_gWiIhFVHnx4Ta75B_uxBOIK0KHFR65rI_BK9RPG_0v4c6KfrQuuV3roQkorvuT2owohlYMt7C-Ib_qawvSJjM9-hC91pMRfW3GNauwy2jI6zaPcmXqIqRc8GkejgNnZiC5AjozYsA_IHEdSLvx88Wjio4GX0a1cP2BGdI4sUB6HQ2DCkCiRL4_EKKSWB5CPFyUJYzk-NmJeN1MPJ_jAnMwIy9sySl7J_NckreOFq3]--></g></svg>